%FSLAX45Y45*%
G04 Gerber Fmt 4.5, Leading zero omitted, Abs format (unit mm)*
G04 Created by KiCad (PCBNEW (5.0.2)-1) date 4/11/2021 7:06:58 PM*
%MOMM*%
%LPD*%
G01*
G04 APERTURE LIST*
%ADD10C,0.150000*%
%ADD11C,0.200000*%
%ADD12C,0.300000*%
G04 APERTURE END LIST*
D10*
X41910000Y-13462000D02*
X2159000Y-13462000D01*
X41910000Y-1524000D02*
X41910000Y-13462000D01*
X2159000Y-1524000D02*
X41910000Y-1524000D01*
X2159000Y-13462000D02*
X2159000Y-1524000D01*
D11*
X3863600Y-2413500D02*
X4213600Y-2763500D01*
X4213600Y-2413500D02*
X3863600Y-2763500D01*
D12*
X2437928Y-13935214D02*
X2437928Y-13635214D01*
X2509357Y-13635214D01*
X2552214Y-13649500D01*
X2580786Y-13678071D01*
X2595071Y-13706643D01*
X2609357Y-13763786D01*
X2609357Y-13806643D01*
X2595071Y-13863786D01*
X2580786Y-13892357D01*
X2552214Y-13920929D01*
X2509357Y-13935214D01*
X2437928Y-13935214D01*
X2737928Y-13935214D02*
X2737928Y-13735214D01*
X2737928Y-13792357D02*
X2752214Y-13763786D01*
X2766500Y-13749500D01*
X2795071Y-13735214D01*
X2823643Y-13735214D01*
X2923643Y-13935214D02*
X2923643Y-13735214D01*
X2923643Y-13635214D02*
X2909357Y-13649500D01*
X2923643Y-13663786D01*
X2937928Y-13649500D01*
X2923643Y-13635214D01*
X2923643Y-13663786D01*
X3109357Y-13935214D02*
X3080786Y-13920929D01*
X3066500Y-13892357D01*
X3066500Y-13635214D01*
X3266500Y-13935214D02*
X3237928Y-13920929D01*
X3223643Y-13892357D01*
X3223643Y-13635214D01*
X3609357Y-13935214D02*
X3609357Y-13635214D01*
X3709357Y-13849500D01*
X3809357Y-13635214D01*
X3809357Y-13935214D01*
X4080786Y-13935214D02*
X4080786Y-13778071D01*
X4066500Y-13749500D01*
X4037928Y-13735214D01*
X3980786Y-13735214D01*
X3952214Y-13749500D01*
X4080786Y-13920929D02*
X4052214Y-13935214D01*
X3980786Y-13935214D01*
X3952214Y-13920929D01*
X3937928Y-13892357D01*
X3937928Y-13863786D01*
X3952214Y-13835214D01*
X3980786Y-13820929D01*
X4052214Y-13820929D01*
X4080786Y-13806643D01*
X4223643Y-13735214D02*
X4223643Y-14035214D01*
X4223643Y-13749500D02*
X4252214Y-13735214D01*
X4309357Y-13735214D01*
X4337928Y-13749500D01*
X4352214Y-13763786D01*
X4366500Y-13792357D01*
X4366500Y-13878071D01*
X4352214Y-13906643D01*
X4337928Y-13920929D01*
X4309357Y-13935214D01*
X4252214Y-13935214D01*
X4223643Y-13920929D01*
X4495071Y-13906643D02*
X4509357Y-13920929D01*
X4495071Y-13935214D01*
X4480786Y-13920929D01*
X4495071Y-13906643D01*
X4495071Y-13935214D01*
X4495071Y-13749500D02*
X4509357Y-13763786D01*
X4495071Y-13778071D01*
X4480786Y-13763786D01*
X4495071Y-13749500D01*
X4495071Y-13778071D01*
X1801500Y-14254500D02*
X2151500Y-14604500D01*
X2151500Y-14254500D02*
X1801500Y-14604500D01*
X2409357Y-14265214D02*
X2595071Y-14265214D01*
X2495071Y-14379500D01*
X2537928Y-14379500D01*
X2566500Y-14393786D01*
X2580786Y-14408071D01*
X2595071Y-14436643D01*
X2595071Y-14508071D01*
X2580786Y-14536643D01*
X2566500Y-14550929D01*
X2537928Y-14565214D01*
X2452214Y-14565214D01*
X2423643Y-14550929D01*
X2409357Y-14536643D01*
X2723643Y-14536643D02*
X2737928Y-14550929D01*
X2723643Y-14565214D01*
X2709357Y-14550929D01*
X2723643Y-14536643D01*
X2723643Y-14565214D01*
X3009357Y-14265214D02*
X2866500Y-14265214D01*
X2852214Y-14408071D01*
X2866500Y-14393786D01*
X2895071Y-14379500D01*
X2966500Y-14379500D01*
X2995071Y-14393786D01*
X3009357Y-14408071D01*
X3023643Y-14436643D01*
X3023643Y-14508071D01*
X3009357Y-14536643D01*
X2995071Y-14550929D01*
X2966500Y-14565214D01*
X2895071Y-14565214D01*
X2866500Y-14550929D01*
X2852214Y-14536643D01*
X3209357Y-14265214D02*
X3237928Y-14265214D01*
X3266500Y-14279500D01*
X3280786Y-14293786D01*
X3295071Y-14322357D01*
X3309357Y-14379500D01*
X3309357Y-14450929D01*
X3295071Y-14508071D01*
X3280786Y-14536643D01*
X3266500Y-14550929D01*
X3237928Y-14565214D01*
X3209357Y-14565214D01*
X3180786Y-14550929D01*
X3166500Y-14536643D01*
X3152214Y-14508071D01*
X3137928Y-14450929D01*
X3137928Y-14379500D01*
X3152214Y-14322357D01*
X3166500Y-14293786D01*
X3180786Y-14279500D01*
X3209357Y-14265214D01*
X3437928Y-14565214D02*
X3437928Y-14365214D01*
X3437928Y-14393786D02*
X3452214Y-14379500D01*
X3480786Y-14365214D01*
X3523643Y-14365214D01*
X3552214Y-14379500D01*
X3566500Y-14408071D01*
X3566500Y-14565214D01*
X3566500Y-14408071D02*
X3580786Y-14379500D01*
X3609357Y-14365214D01*
X3652214Y-14365214D01*
X3680786Y-14379500D01*
X3695071Y-14408071D01*
X3695071Y-14565214D01*
X3837928Y-14565214D02*
X3837928Y-14365214D01*
X3837928Y-14393786D02*
X3852214Y-14379500D01*
X3880786Y-14365214D01*
X3923643Y-14365214D01*
X3952214Y-14379500D01*
X3966500Y-14408071D01*
X3966500Y-14565214D01*
X3966500Y-14408071D02*
X3980786Y-14379500D01*
X4009357Y-14365214D01*
X4052214Y-14365214D01*
X4080786Y-14379500D01*
X4095071Y-14408071D01*
X4095071Y-14565214D01*
X4680786Y-14250929D02*
X4423643Y-14636643D01*
X5066500Y-14265214D02*
X5095071Y-14265214D01*
X5123643Y-14279500D01*
X5137928Y-14293786D01*
X5152214Y-14322357D01*
X5166500Y-14379500D01*
X5166500Y-14450929D01*
X5152214Y-14508071D01*
X5137928Y-14536643D01*
X5123643Y-14550929D01*
X5095071Y-14565214D01*
X5066500Y-14565214D01*
X5037928Y-14550929D01*
X5023643Y-14536643D01*
X5009357Y-14508071D01*
X4995071Y-14450929D01*
X4995071Y-14379500D01*
X5009357Y-14322357D01*
X5023643Y-14293786D01*
X5037928Y-14279500D01*
X5066500Y-14265214D01*
X5295071Y-14536643D02*
X5309357Y-14550929D01*
X5295071Y-14565214D01*
X5280786Y-14550929D01*
X5295071Y-14536643D01*
X5295071Y-14565214D01*
X5595071Y-14565214D02*
X5423643Y-14565214D01*
X5509357Y-14565214D02*
X5509357Y-14265214D01*
X5480786Y-14308071D01*
X5452214Y-14336643D01*
X5423643Y-14350929D01*
X5695071Y-14265214D02*
X5880786Y-14265214D01*
X5780786Y-14379500D01*
X5823643Y-14379500D01*
X5852214Y-14393786D01*
X5866500Y-14408071D01*
X5880786Y-14436643D01*
X5880786Y-14508071D01*
X5866500Y-14536643D01*
X5852214Y-14550929D01*
X5823643Y-14565214D01*
X5737928Y-14565214D01*
X5709357Y-14550929D01*
X5695071Y-14536643D01*
X6052214Y-14393786D02*
X6023643Y-14379500D01*
X6009357Y-14365214D01*
X5995071Y-14336643D01*
X5995071Y-14322357D01*
X6009357Y-14293786D01*
X6023643Y-14279500D01*
X6052214Y-14265214D01*
X6109357Y-14265214D01*
X6137928Y-14279500D01*
X6152214Y-14293786D01*
X6166500Y-14322357D01*
X6166500Y-14336643D01*
X6152214Y-14365214D01*
X6137928Y-14379500D01*
X6109357Y-14393786D01*
X6052214Y-14393786D01*
X6023643Y-14408071D01*
X6009357Y-14422357D01*
X5995071Y-14450929D01*
X5995071Y-14508071D01*
X6009357Y-14536643D01*
X6023643Y-14550929D01*
X6052214Y-14565214D01*
X6109357Y-14565214D01*
X6137928Y-14550929D01*
X6152214Y-14536643D01*
X6166500Y-14508071D01*
X6166500Y-14450929D01*
X6152214Y-14422357D01*
X6137928Y-14408071D01*
X6109357Y-14393786D01*
X6280786Y-14265214D02*
X6280786Y-14322357D01*
X6395071Y-14265214D02*
X6395071Y-14322357D01*
X6837928Y-14679500D02*
X6823643Y-14665214D01*
X6795071Y-14622357D01*
X6780786Y-14593786D01*
X6766500Y-14550929D01*
X6752214Y-14479500D01*
X6752214Y-14422357D01*
X6766500Y-14350929D01*
X6780786Y-14308071D01*
X6795071Y-14279500D01*
X6823643Y-14236643D01*
X6837928Y-14222357D01*
X7109357Y-14565214D02*
X6937928Y-14565214D01*
X7023643Y-14565214D02*
X7023643Y-14265214D01*
X6995071Y-14308071D01*
X6966500Y-14336643D01*
X6937928Y-14350929D01*
X7466500Y-14565214D02*
X7466500Y-14265214D01*
X7595071Y-14565214D02*
X7595071Y-14408071D01*
X7580786Y-14379500D01*
X7552214Y-14365214D01*
X7509357Y-14365214D01*
X7480786Y-14379500D01*
X7466500Y-14393786D01*
X7780786Y-14565214D02*
X7752214Y-14550929D01*
X7737928Y-14536643D01*
X7723643Y-14508071D01*
X7723643Y-14422357D01*
X7737928Y-14393786D01*
X7752214Y-14379500D01*
X7780786Y-14365214D01*
X7823643Y-14365214D01*
X7852214Y-14379500D01*
X7866500Y-14393786D01*
X7880786Y-14422357D01*
X7880786Y-14508071D01*
X7866500Y-14536643D01*
X7852214Y-14550929D01*
X7823643Y-14565214D01*
X7780786Y-14565214D01*
X8052214Y-14565214D02*
X8023643Y-14550929D01*
X8009357Y-14522357D01*
X8009357Y-14265214D01*
X8280786Y-14550929D02*
X8252214Y-14565214D01*
X8195071Y-14565214D01*
X8166500Y-14550929D01*
X8152214Y-14522357D01*
X8152214Y-14408071D01*
X8166500Y-14379500D01*
X8195071Y-14365214D01*
X8252214Y-14365214D01*
X8280786Y-14379500D01*
X8295071Y-14408071D01*
X8295071Y-14436643D01*
X8152214Y-14465214D01*
X8395071Y-14679500D02*
X8409357Y-14665214D01*
X8437928Y-14622357D01*
X8452214Y-14593786D01*
X8466500Y-14550929D01*
X8480786Y-14479500D01*
X8480786Y-14422357D01*
X8466500Y-14350929D01*
X8452214Y-14308071D01*
X8437928Y-14279500D01*
X8409357Y-14236643D01*
X8395071Y-14222357D01*
X8937928Y-14679500D02*
X8923643Y-14665214D01*
X8895071Y-14622357D01*
X8880786Y-14593786D01*
X8866500Y-14550929D01*
X8852214Y-14479500D01*
X8852214Y-14422357D01*
X8866500Y-14350929D01*
X8880786Y-14308071D01*
X8895071Y-14279500D01*
X8923643Y-14236643D01*
X8937928Y-14222357D01*
X9052214Y-14365214D02*
X9052214Y-14565214D01*
X9052214Y-14393786D02*
X9066500Y-14379500D01*
X9095071Y-14365214D01*
X9137928Y-14365214D01*
X9166500Y-14379500D01*
X9180786Y-14408071D01*
X9180786Y-14565214D01*
X9366500Y-14565214D02*
X9337928Y-14550929D01*
X9323643Y-14536643D01*
X9309357Y-14508071D01*
X9309357Y-14422357D01*
X9323643Y-14393786D01*
X9337928Y-14379500D01*
X9366500Y-14365214D01*
X9409357Y-14365214D01*
X9437928Y-14379500D01*
X9452214Y-14393786D01*
X9466500Y-14422357D01*
X9466500Y-14508071D01*
X9452214Y-14536643D01*
X9437928Y-14550929D01*
X9409357Y-14565214D01*
X9366500Y-14565214D01*
X9552214Y-14365214D02*
X9666500Y-14365214D01*
X9595071Y-14265214D02*
X9595071Y-14522357D01*
X9609357Y-14550929D01*
X9637928Y-14565214D01*
X9666500Y-14565214D01*
X9995071Y-14365214D02*
X9995071Y-14665214D01*
X9995071Y-14379500D02*
X10023643Y-14365214D01*
X10080786Y-14365214D01*
X10109357Y-14379500D01*
X10123643Y-14393786D01*
X10137928Y-14422357D01*
X10137928Y-14508071D01*
X10123643Y-14536643D01*
X10109357Y-14550929D01*
X10080786Y-14565214D01*
X10023643Y-14565214D01*
X9995071Y-14550929D01*
X10309357Y-14565214D02*
X10280786Y-14550929D01*
X10266500Y-14522357D01*
X10266500Y-14265214D01*
X10552214Y-14565214D02*
X10552214Y-14408071D01*
X10537928Y-14379500D01*
X10509357Y-14365214D01*
X10452214Y-14365214D01*
X10423643Y-14379500D01*
X10552214Y-14550929D02*
X10523643Y-14565214D01*
X10452214Y-14565214D01*
X10423643Y-14550929D01*
X10409357Y-14522357D01*
X10409357Y-14493786D01*
X10423643Y-14465214D01*
X10452214Y-14450929D01*
X10523643Y-14450929D01*
X10552214Y-14436643D01*
X10652214Y-14365214D02*
X10766500Y-14365214D01*
X10695071Y-14265214D02*
X10695071Y-14522357D01*
X10709357Y-14550929D01*
X10737928Y-14565214D01*
X10766500Y-14565214D01*
X10980786Y-14550929D02*
X10952214Y-14565214D01*
X10895071Y-14565214D01*
X10866500Y-14550929D01*
X10852214Y-14522357D01*
X10852214Y-14408071D01*
X10866500Y-14379500D01*
X10895071Y-14365214D01*
X10952214Y-14365214D01*
X10980786Y-14379500D01*
X10995071Y-14408071D01*
X10995071Y-14436643D01*
X10852214Y-14465214D01*
X11252214Y-14565214D02*
X11252214Y-14265214D01*
X11252214Y-14550929D02*
X11223643Y-14565214D01*
X11166500Y-14565214D01*
X11137928Y-14550929D01*
X11123643Y-14536643D01*
X11109357Y-14508071D01*
X11109357Y-14422357D01*
X11123643Y-14393786D01*
X11137928Y-14379500D01*
X11166500Y-14365214D01*
X11223643Y-14365214D01*
X11252214Y-14379500D01*
X11366500Y-14679500D02*
X11380786Y-14665214D01*
X11409357Y-14622357D01*
X11423643Y-14593786D01*
X11437928Y-14550929D01*
X11452214Y-14479500D01*
X11452214Y-14422357D01*
X11437928Y-14350929D01*
X11423643Y-14308071D01*
X11409357Y-14279500D01*
X11380786Y-14236643D01*
X11366500Y-14222357D01*
M02*
