M48
;DRILL file {KiCad (5.0.2)-1} date 4/11/2021 7:06:57 PM
;FORMAT={-:-/ absolute / inch / decimal}
FMAT,2
INCH,TZ
T1C0.0157
T2C0.0197
T3C0.0276
T4C0.0315
T5C0.0354
T6C0.0394
T7C0.0433
T8C0.0551
T9C0.0866
T10C0.1260
%
G90
G05
T1
X1.1834Y-1.3257
X1.3322Y-4.6757
X1.4383Y-1.2966
X1.5343Y-2.7457
X1.5589Y-1.3438
X1.5925Y-2.1149
X1.6585Y-4.7289
X1.7595Y-2.8
X1.9921Y-2.222
X2.1187Y-2.4875
X2.1252Y-2.425
X2.2916Y-1.4413
X2.3057Y-2.3527
X2.3131Y-2.936
X2.3994Y-1.976
X2.4371Y-1.4915
X2.4875Y-3.1139
X2.5094Y-1.5023
X2.63Y-4.7288
X2.7695Y-1.7938
X2.9005Y-4.3179
X2.9071Y-3.3311
X2.9962Y-2.1888
X3.011Y-1.5645
X3.0278Y-2.3443
X3.1384Y-4.3324
X3.1532Y-0.7949
X3.2127Y-3.2239
X3.3047Y-2.7218
X3.3317Y-3.4206
X3.686Y-1.3988
X3.7129Y-3.4491
X3.8456Y-1.2738
X3.8994Y-0.737
X3.9427Y-1.1827
X3.9885Y-2.0281
X4.115Y-2.5423
X4.1284Y-1.8621
X4.1894Y-5.0036
X4.257Y-1.2438
X4.7026Y-1.1549
X5.0065Y-1.8052
X5.0174Y-4.2225
X5.0333Y-4.0569
X5.3086Y-1.08
X5.4472Y-3.5362
X5.476Y-4.618
X5.4861Y-1.9323
X5.7078Y-1.9498
X6.4163Y-1.8304
X6.8246Y-2.9605
X6.84Y-4.27
X6.8704Y-1.8968
X6.9539Y-1.7539
X7.061Y-1.7365
X7.0855Y-1.7753
X7.1872Y-1.4218
X7.1905Y-1.5982
X7.2906Y-1.4855
X7.5127Y-1.8511
X7.7973Y-4.5989
X8.127Y-5.2755
X8.3137Y-0.794
X8.3334Y-1.5537
X8.4397Y-1.9759
X8.5269Y-0.7879
X8.6408Y-1.0346
X8.9099Y-0.6541
X9.1165Y-1.7339
X9.1229Y-1.886
X9.3226Y-2.9572
X9.3477Y-3.4113
X9.709Y-1.753
X9.8078Y-4.0074
X9.8866Y-4.3854
X9.9151Y-3.674
X9.9544Y-3.7774
X9.9853Y-3.6761
X9.995Y-1.3416
X10.0946Y-4.6338
X10.2227Y-1.23
X10.274Y-3.8249
X10.3232Y-4.2124
X10.3464Y-3.9607
X10.3617Y-1.8043
X10.4237Y-3.7224
X10.4694Y-1.7205
X10.6631Y-3.4383
X10.929Y-3.9607
X10.9895Y-1.4869
X11.0744Y-1.7451
X11.1036Y-1.4796
X11.4988Y-2.615
X11.5454Y-2.9272
X11.5517Y-3.6564
X11.5701Y-5.1382
X11.8412Y-2.6088
X11.9084Y-2.5
X12.384Y-2.8182
X12.5647Y-2.2203
X12.9414Y-1.1822
X13.0942Y-4.1317
X13.2721Y-4.4786
X13.3213Y-4.4416
X13.3503Y-4.0176
X13.4739Y-4.6109
X13.582Y-4.3612
X13.583Y-3.9883
X13.9469Y-3.769
X14.2194Y-2.8779
X14.3382Y-1.4735
X14.3685Y-3.3842
X14.4368Y-1.2116
X14.51Y-3.78
X14.5757Y-4.6485
X14.6115Y-4.1474
X14.64Y-3.91
X14.66Y-1.5222
X14.9048Y-3.7515
X14.9456Y-3.6183
X14.9951Y-2.9164
X15.Y-3.74
X15.0164Y-1.9796
X15.02Y-4.22
X15.14Y-3.38
X15.2259Y-4.0691
X15.2278Y-3.4138
X15.3217Y-1.8502
X15.5146Y-4.2207
X15.57Y-4.78
X15.6048Y-4.02
X15.6551Y-3.3889
X15.8943Y-2.4959
X16.0644Y-2.3525
X16.1933Y-3.1284
X16.2581Y-1.0984
X16.3222Y-3.1592
T2
X16.Y-3.86
X16.15Y-3.86
T3
X14.7Y-1.845
X14.7Y-2.145
X12.435Y-1.845
X12.435Y-2.145
X13.75Y-3.95
X13.75Y-4.25
X6.865Y-1.845
X6.865Y-2.145
X1.755Y-3.87
X1.755Y-4.17
X9.08Y-1.845
X9.08Y-2.145
X9.995Y-1.845
X9.995Y-2.145
X3.455Y-1.62
X3.755Y-1.62
X13.58Y-5.06
X13.88Y-5.06
X13.3Y-1.845
X13.3Y-2.145
X13.05Y-3.3
X13.35Y-3.3
X8.25Y-3.97
X8.25Y-4.27
X4.385Y-4.96
X4.685Y-4.96
X12.985Y-1.845
X12.985Y-2.145
X10.485Y-1.845
X10.485Y-2.145
X11.89Y-1.845
X11.89Y-2.145
X5.755Y-1.845
X5.755Y-2.145
X7.72Y-1.845
X7.72Y-2.145
X4.595Y-1.845
X4.595Y-2.145
X8.04Y-3.97
X8.04Y-4.27
X7.09Y-4.8
X7.39Y-4.8
X7.09Y-3.97
X7.09Y-4.27
X11.01Y-3.96
X11.01Y-4.26
X4.9Y-1.845
X4.9Y-2.145
X8.54Y-1.845
X8.54Y-2.145
X15.695Y-1.78
X15.695Y-2.08
X8.85Y-1.845
X8.85Y-2.145
X7.115Y-1.845
X7.115Y-2.145
X14.26Y-1.84
X14.26Y-2.14
X8.46Y-3.96
X8.46Y-4.26
X12.33Y-4.8
X12.63Y-4.8
X12.41Y-3.95
X12.41Y-4.25
X6.09Y-1.845
X6.09Y-2.145
X3.09Y-3.95
X3.09Y-4.25
X5.74Y-3.98
X5.74Y-4.28
X10.8Y-1.845
X10.8Y-2.145
X15.465Y-1.775
X15.465Y-2.075
X13.76Y-4.69
X14.06Y-4.69
X13.545Y-1.845
X13.545Y-2.145
X13.05Y-3.45
X13.35Y-3.45
X8.28Y-3.84
X8.58Y-3.84
X7.46Y-1.845
X7.46Y-2.145
X15.07Y-1.845
X15.07Y-2.145
X9.68Y-1.845
X9.68Y-2.145
X9.41Y-1.845
X9.41Y-2.145
X5.205Y-1.845
X5.205Y-2.145
X12.755Y-1.845
X12.755Y-2.145
X7.82Y-3.97
X7.82Y-4.27
X4.385Y-4.795
X4.685Y-4.795
X9.76Y-3.95
X9.76Y-4.25
X2.74Y-3.94
X2.74Y-4.24
X3.45Y-1.465
X3.75Y-1.465
X11.045Y-1.845
X11.045Y-2.145
X4.39Y-3.95
X4.39Y-4.25
X6.555Y-1.845
X6.555Y-2.145
X11.585Y-1.845
X11.585Y-2.145
X11.355Y-1.845
X11.355Y-2.145
X2.54Y-3.94
X2.54Y-4.24
X9.685Y-4.8
X9.985Y-4.8
X2.94Y-3.94
X2.94Y-4.24
X5.515Y-1.845
X5.515Y-2.145
X13.85Y-1.845
X13.85Y-2.145
X8.06Y-1.845
X8.06Y-2.145
T4
X14.84Y-3.54
X14.84Y-3.7369
X6.17Y-0.78
X6.17Y-0.88
X6.17Y-0.98
X6.17Y-1.08
X6.17Y-1.18
X6.17Y-1.28
X6.17Y-1.38
X6.17Y-1.48
X6.47Y-0.78
X6.47Y-0.88
X6.47Y-0.98
X6.47Y-1.08
X6.47Y-1.18
X6.47Y-1.28
X6.47Y-1.38
X6.47Y-1.48
X12.02Y-0.78
X12.02Y-0.88
X12.02Y-0.98
X12.02Y-1.08
X12.02Y-1.18
X12.02Y-1.28
X12.02Y-1.38
X12.02Y-1.48
X12.32Y-0.78
X12.32Y-0.88
X12.32Y-0.98
X12.32Y-1.08
X12.32Y-1.18
X12.32Y-1.28
X12.32Y-1.38
X12.32Y-1.48
X11.68Y-3.19
X11.68Y-3.29
X11.68Y-3.39
X11.68Y-3.49
X11.98Y-3.19
X11.98Y-3.29
X11.98Y-3.39
X11.98Y-3.49
X6.275Y-3.32
X6.4719Y-3.32
X14.035Y-1.9431
X14.035Y-2.14
X10.09Y-0.78
X10.09Y-0.88
X10.09Y-0.98
X10.09Y-1.08
X10.09Y-1.18
X10.09Y-1.28
X10.09Y-1.38
X10.09Y-1.48
X10.39Y-0.78
X10.39Y-0.88
X10.39Y-0.98
X10.39Y-1.08
X10.39Y-1.18
X10.39Y-1.28
X10.39Y-1.38
X10.39Y-1.48
X4.71Y-3.19
X4.71Y-3.49
X4.81Y-3.19
X4.81Y-3.49
X4.91Y-3.19
X4.91Y-3.49
X5.01Y-3.19
X5.01Y-3.49
X5.11Y-3.19
X5.11Y-3.49
X5.21Y-3.19
X5.21Y-3.49
X5.31Y-3.19
X5.31Y-3.49
X5.41Y-3.19
X5.41Y-3.49
X5.51Y-3.19
X5.51Y-3.49
X5.61Y-3.19
X5.61Y-3.49
X5.71Y-3.19
X5.71Y-3.49
X5.81Y-3.19
X5.81Y-3.49
X5.91Y-3.19
X5.91Y-3.49
X6.01Y-3.19
X6.01Y-3.49
X8.3Y-1.9481
X8.3Y-2.145
X14.42Y-2.74
X14.6169Y-2.74
X11.88Y-4.96
X12.0769Y-4.96
X1.49Y-1.81
X1.49Y-2.0069
X3.18Y-2.77
X3.18Y-2.87
X3.18Y-2.97
X3.18Y-3.07
X3.18Y-3.17
X3.18Y-3.27
X3.18Y-3.37
X3.18Y-3.47
X3.48Y-2.77
X3.48Y-2.87
X3.48Y-2.97
X3.48Y-3.07
X3.48Y-3.17
X3.48Y-3.27
X3.48Y-3.37
X3.48Y-3.47
X15.21Y-4.61
X15.21Y-4.8069
X8.71Y-3.19
X8.71Y-3.49
X8.81Y-3.19
X8.81Y-3.49
X8.91Y-3.19
X8.91Y-3.49
X9.01Y-3.19
X9.01Y-3.49
X9.11Y-3.19
X9.11Y-3.49
X9.21Y-3.19
X9.21Y-3.49
X9.31Y-3.19
X9.31Y-3.49
X9.41Y-3.19
X9.41Y-3.49
X9.51Y-3.19
X9.51Y-3.49
X9.61Y-3.19
X9.61Y-3.49
X9.71Y-3.19
X9.71Y-3.49
X9.81Y-3.19
X9.81Y-3.49
X9.91Y-3.19
X9.91Y-3.49
X10.01Y-3.19
X10.01Y-3.49
X12.1Y-3.19
X12.1Y-3.29
X12.1Y-3.39
X12.1Y-3.49
X12.4Y-3.19
X12.4Y-3.29
X12.4Y-3.39
X12.4Y-3.49
X3.945Y-0.8681
X3.945Y-1.065
X13.76Y-4.82
X13.76Y-4.92
X14.06Y-4.82
X14.06Y-4.92
X10.89Y-3.34
X11.0869Y-3.34
X13.71Y-2.975
X13.71Y-3.075
X13.71Y-3.175
X13.71Y-3.275
X13.71Y-3.375
X13.71Y-3.475
X13.71Y-3.575
X13.71Y-3.675
X14.01Y-2.975
X14.01Y-3.075
X14.01Y-3.175
X14.01Y-3.275
X14.01Y-3.375
X14.01Y-3.475
X14.01Y-3.575
X14.01Y-3.675
X13.1943Y-3.762
X13.1943Y-3.862
X13.1943Y-3.962
X13.1943Y-4.062
X13.1943Y-4.162
X13.1943Y-4.262
X13.1943Y-4.362
X13.1943Y-4.462
X13.4943Y-3.762
X13.4943Y-3.862
X13.4943Y-3.962
X13.4943Y-4.062
X13.4943Y-4.162
X13.4943Y-4.262
X13.4943Y-4.362
X13.4943Y-4.462
X13.95Y-0.78
X13.95Y-0.88
X13.95Y-0.98
X13.95Y-1.08
X13.95Y-1.18
X13.95Y-1.28
X13.95Y-1.38
X13.95Y-1.48
X14.25Y-0.78
X14.25Y-0.88
X14.25Y-0.98
X14.25Y-1.08
X14.25Y-1.18
X14.25Y-1.28
X14.25Y-1.38
X14.25Y-1.48
X15.455Y-4.5
X15.455Y-4.6
X15.455Y-4.7
X15.455Y-4.8
X15.755Y-4.5
X15.755Y-4.6
X15.755Y-4.7
X15.755Y-4.8
X2.55Y-1.6
X2.55Y-1.7
X2.55Y-1.8
X2.55Y-1.9
X2.55Y-2.
X2.55Y-2.1
X2.55Y-2.2
X2.55Y-2.3
X2.55Y-2.4
X2.55Y-2.5
X2.55Y-2.6
X2.55Y-2.7
X2.55Y-2.8
X2.55Y-2.9
X2.85Y-1.6
X2.85Y-1.7
X2.85Y-1.8
X2.85Y-1.9
X2.85Y-2.
X2.85Y-2.1
X2.85Y-2.2
X2.85Y-2.3
X2.85Y-2.4
X2.85Y-2.5
X2.85Y-2.6
X2.85Y-2.7
X2.85Y-2.8
X2.85Y-2.9
X10.245Y-1.9481
X10.245Y-2.145
X6.33Y-1.945
X6.33Y-2.1419
X8.15Y-0.79
X8.15Y-0.89
X8.15Y-0.99
X8.15Y-1.09
X8.15Y-1.19
X8.15Y-1.29
X8.15Y-1.39
X8.15Y-1.49
X8.45Y-0.79
X8.45Y-0.89
X8.45Y-0.99
X8.45Y-1.09
X8.45Y-1.19
X8.45Y-1.29
X8.45Y-1.39
X8.45Y-1.49
X12.52Y-3.19
X12.52Y-3.29
X12.52Y-3.39
X12.52Y-3.49
X12.82Y-3.19
X12.82Y-3.29
X12.82Y-3.39
X12.82Y-3.49
X3.84Y-4.78
X4.0369Y-4.78
X12.17Y-1.9431
X12.17Y-2.14
X1.0131Y-0.76
X1.21Y-0.76
X4.19Y-0.79
X4.19Y-0.89
X4.19Y-0.99
X4.19Y-1.09
X4.19Y-1.19
X4.19Y-1.29
X4.19Y-1.39
X4.19Y-1.49
X4.49Y-0.79
X4.49Y-0.89
X4.49Y-0.99
X4.49Y-1.09
X4.49Y-1.19
X4.49Y-1.29
X4.49Y-1.39
X4.49Y-1.49
X2.575Y-4.785
X2.575Y-5.085
X2.675Y-4.785
X2.675Y-5.085
X2.775Y-4.785
X2.775Y-5.085
X2.875Y-4.785
X2.875Y-5.085
X2.975Y-4.785
X2.975Y-5.085
X3.075Y-4.785
X3.075Y-5.085
X3.175Y-4.785
X3.175Y-5.085
X13.62Y-4.465
X13.8169Y-4.465
X10.41Y-4.79
X10.41Y-5.09
X10.51Y-4.79
X10.51Y-5.09
X10.61Y-4.79
X10.61Y-5.09
X10.71Y-4.79
X10.71Y-5.09
X10.81Y-4.79
X10.81Y-5.09
X10.91Y-4.79
X10.91Y-5.09
X11.01Y-4.79
X11.01Y-5.09
X11.11Y-4.79
X11.11Y-5.09
X11.21Y-4.79
X11.21Y-5.09
X11.31Y-4.79
X11.31Y-5.09
X11.41Y-4.79
X11.41Y-5.09
X11.51Y-4.79
X11.51Y-5.09
X11.61Y-4.79
X11.61Y-5.09
X11.71Y-4.79
X11.71Y-5.09
X1.705Y-2.05
X1.705Y-2.2469
X8.32Y-3.33
X8.5169Y-3.33
X13.34Y-4.82
X13.34Y-4.92
X13.64Y-4.82
X13.64Y-4.92
X1.96Y-2.78
X1.96Y-2.88
X1.96Y-2.98
X1.96Y-3.08
X1.96Y-3.18
X1.96Y-3.28
X1.96Y-3.38
X1.96Y-3.48
X2.26Y-2.78
X2.26Y-2.88
X2.26Y-2.98
X2.26Y-3.08
X2.26Y-3.18
X2.26Y-3.28
X2.26Y-3.38
X2.26Y-3.48
X2.36Y-0.88
X2.36Y-1.18
X2.46Y-0.88
X2.46Y-1.18
X2.56Y-0.88
X2.56Y-1.18
X2.66Y-0.88
X2.66Y-1.18
X2.76Y-0.88
X2.76Y-1.18
X2.86Y-0.88
X2.86Y-1.18
X2.96Y-0.88
X2.96Y-1.18
X3.06Y-0.88
X3.06Y-1.18
X3.16Y-0.88
X3.16Y-1.18
X3.26Y-0.88
X3.26Y-1.18
X3.36Y-0.88
X3.36Y-1.18
X3.46Y-0.88
X3.46Y-1.18
X3.56Y-0.88
X3.56Y-1.18
X3.66Y-0.88
X3.66Y-1.18
X11.25Y-3.19
X11.25Y-3.29
X11.25Y-3.39
X11.25Y-3.49
X11.55Y-3.19
X11.55Y-3.29
X11.55Y-3.39
X11.55Y-3.49
X2.5931Y-3.18
X2.79Y-3.18
T5
X4.54Y-4.1
X4.64Y-4.1
X12.55Y-1.55
X12.65Y-1.55
X11.15Y-1.55
X11.25Y-1.55
X8.65Y-1.55
X8.75Y-1.55
X7.85Y-0.85
X7.95Y-0.85
X3.94Y-1.55
X4.04Y-1.55
X15.2Y-0.85
X15.3Y-0.85
X11.14Y-4.1
X11.24Y-4.1
X13.65Y-0.85
X13.75Y-0.85
X15.85Y-1.55
X15.95Y-1.55
X5.89Y-4.11
X5.99Y-4.11
X9.8Y-1.55
X9.9Y-1.55
X10.6Y-0.85
X10.7Y-0.85
X5.3Y-1.55
X5.4Y-1.55
X4.7Y-0.85
X4.8Y-0.85
X12.54Y-4.1
X12.64Y-4.1
X8.65Y-0.85
X8.75Y-0.85
X11.7Y-1.55
X11.8Y-1.55
X6.65Y-1.55
X6.75Y-1.55
X5.89Y-0.85
X5.99Y-0.85
X15.2Y-1.55
X15.3Y-1.55
X7.24Y-4.11
X7.34Y-4.11
X11.7Y-0.85
X11.8Y-0.85
X9.8Y-0.85
X9.9Y-0.85
X7.85Y-1.55
X7.95Y-1.55
X7.25Y-0.85
X7.35Y-0.85
X14.45Y-0.85
X14.55Y-0.85
X1.91Y-4.11
X2.01Y-4.11
X13.1Y-0.85
X13.2Y-0.85
X11.15Y-0.85
X11.25Y-0.85
X13.89Y-4.1
X13.99Y-4.1
X9.2Y-1.55
X9.3Y-1.55
X9.2Y-0.85
X9.3Y-0.85
X4.7Y-1.55
X4.8Y-1.55
X3.2Y-1.55
X3.3Y-1.55
X9.89Y-4.1
X9.99Y-4.1
X3.24Y-4.1
X3.34Y-4.1
X10.6Y-1.55
X10.7Y-1.55
X5.89Y-1.55
X5.99Y-1.55
X5.3Y-0.85
X5.4Y-0.85
X13.65Y-1.55
X13.75Y-1.55
X8.59Y-4.09
X8.69Y-4.09
X12.55Y-0.85
X12.65Y-0.85
X13.1Y-1.55
X13.2Y-1.55
X7.25Y-1.55
X7.35Y-1.55
X6.65Y-0.85
X6.75Y-0.85
X14.45Y-1.55
X14.55Y-1.55
T6
X1.93Y-1.69
X16.41Y-1.15
X16.41Y-1.25
X16.41Y-1.35
X16.41Y-1.45
X15.63Y-0.69
X15.73Y-0.69
X15.83Y-0.69
X15.93Y-0.69
X14.85Y-2.69
X14.85Y-3.29
X14.95Y-2.69
X14.95Y-3.29
X15.05Y-2.69
X15.05Y-3.29
X15.15Y-2.69
X15.15Y-3.29
X15.25Y-2.69
X15.25Y-3.29
X15.35Y-2.69
X15.35Y-3.29
X15.45Y-2.69
X15.45Y-3.29
X15.55Y-2.69
X15.55Y-3.29
X15.65Y-2.69
X15.65Y-3.29
X15.75Y-2.69
X15.75Y-3.29
X15.85Y-2.69
X15.85Y-3.29
X15.95Y-2.69
X15.95Y-3.29
X16.05Y-2.69
X16.05Y-3.29
X16.15Y-2.69
X16.15Y-3.29
X16.25Y-2.69
X16.25Y-3.29
X15.16Y-5.2
X15.26Y-5.2
X15.36Y-5.2
X1.Y-1.05
X1.Y-1.175
X1.Y-1.3
X1.Y-1.425
X1.Y-1.55
X1.Y-1.675
X1.Y-1.8
X1.Y-1.925
X1.Y-2.05
X1.Y-2.175
X1.Y-2.3
X1.Y-2.425
X1.Y-2.55
X1.Y-2.675
X1.Y-2.8
X1.Y-2.925
X1.Y-3.05
X1.Y-3.175
X1.Y-3.3
X1.Y-3.425
X1.Y-3.55
X1.Y-3.675
X1.Y-3.8
X1.Y-3.925
X1.Y-4.05
X1.Y-4.175
X1.2469Y-1.05
X1.2469Y-1.175
X1.2469Y-1.3
X1.2469Y-1.425
X1.2469Y-1.55
X1.2469Y-1.675
X1.2469Y-1.8
X1.2469Y-1.925
X1.2469Y-2.05
X1.2469Y-2.175
X1.2469Y-2.3
X1.2469Y-2.425
X1.2469Y-2.55
X1.2469Y-2.675
X1.2469Y-2.8
X1.2469Y-2.925
X1.2469Y-3.05
X1.2469Y-3.175
X1.2469Y-3.3
X1.2469Y-3.425
X1.2469Y-3.55
X1.2469Y-3.675
X1.2469Y-3.8
X1.2469Y-3.925
X1.2469Y-4.05
X1.2469Y-4.175
X10.19Y-4.8
X10.19Y-4.9
X10.19Y-5.
X10.19Y-5.1
X1.01Y-4.475
X1.01Y-4.575
X1.01Y-4.675
X1.01Y-4.775
X1.01Y-4.875
X1.01Y-4.975
X1.01Y-5.075
X1.01Y-5.175
X1.11Y-4.475
X1.11Y-4.575
X1.11Y-4.675
X1.11Y-4.775
X1.11Y-4.875
X1.11Y-4.975
X1.11Y-5.075
X1.11Y-5.175
X15.31Y-2.51
X4.85Y-4.8
X4.85Y-4.9
X4.85Y-5.
X4.85Y-5.1
X15.64Y-5.2
X15.74Y-5.2
X15.84Y-5.2
X15.94Y-5.2
X16.04Y-5.2
X16.14Y-5.2
X14.84Y-2.51
X3.83Y-5.2
X3.93Y-5.2
X4.03Y-5.2
X4.13Y-5.2
X14.49Y-3.08
X14.49Y-3.18
X14.49Y-3.28
X14.49Y-3.38
X14.49Y-3.48
X15.97Y-4.32
X16.07Y-4.32
X16.31Y-1.84
X16.31Y-1.94
X16.31Y-2.04
X16.31Y-2.14
X16.31Y-2.24
X16.41Y-1.84
X16.41Y-1.94
X16.41Y-2.04
X16.41Y-2.14
X16.41Y-2.24
X2.42Y-4.4
X2.42Y-4.5
X2.52Y-4.4
X2.52Y-4.5
X2.62Y-4.4
X2.62Y-4.5
X2.72Y-4.4
X2.72Y-4.5
X2.82Y-4.4
X2.82Y-4.5
X2.92Y-4.4
X2.92Y-4.5
X3.02Y-4.4
X3.02Y-4.5
X3.12Y-4.4
X3.12Y-4.5
X3.22Y-4.4
X3.22Y-4.5
X12.85Y-4.8
X12.85Y-4.9
X12.85Y-5.
X12.85Y-5.1
X14.57Y-5.2
X14.67Y-5.2
X14.77Y-5.2
X14.87Y-5.2
X7.55Y-4.8
X7.55Y-4.9
X7.55Y-5.
X7.55Y-5.1
X2.25Y-4.8
X2.25Y-4.9
X2.25Y-5.
X2.25Y-5.1
X15.56Y-2.51
T7
X15.1Y-3.56
X15.1Y-3.66
X15.1Y-3.76
X15.1Y-3.86
X15.1Y-3.96
X15.1Y-4.06
X15.1Y-4.16
X15.2Y-3.56
X15.2Y-3.86
X15.2Y-3.96
X15.2Y-4.16
X15.3Y-3.56
X15.3Y-3.86
X15.3Y-3.96
X15.3Y-4.16
X15.4Y-3.56
X15.4Y-3.86
X15.4Y-3.96
X15.4Y-4.16
X15.5Y-3.56
X15.5Y-3.86
X15.5Y-3.96
X15.5Y-4.16
X15.6Y-3.56
X15.6Y-3.86
X15.6Y-3.96
X15.6Y-4.16
X15.7Y-3.56
X15.7Y-3.86
X15.7Y-3.96
X15.7Y-4.16
X15.8Y-3.56
X15.8Y-3.86
X15.8Y-3.96
X15.8Y-4.16
X15.9Y-3.56
X15.9Y-4.06
X15.9Y-4.16
X16.Y-3.56
X16.Y-4.06
X16.Y-4.16
X16.1Y-3.56
X16.1Y-4.06
X16.1Y-4.16
X16.2Y-3.56
X16.2Y-4.16
X16.3Y-3.56
X16.3Y-4.06
X16.3Y-4.16
X16.4Y-3.56
X16.4Y-4.16
X1.49Y-1.675
X1.59Y-1.675
X1.69Y-1.675
T8
X3.55Y-3.911
X3.55Y-4.1
X3.55Y-4.289
X9.85Y-2.311
X9.85Y-2.5
X9.85Y-2.689
X4.75Y-2.311
X4.75Y-2.5
X4.75Y-2.689
X14.2Y-3.911
X14.2Y-4.1
X14.2Y-4.289
X13.15Y-2.311
X13.15Y-2.5
X13.15Y-2.689
X6.7Y-2.311
X6.7Y-2.5
X6.7Y-2.689
X11.2Y-2.311
X11.2Y-2.5
X11.2Y-2.689
X11.45Y-3.911
X11.45Y-4.1
X11.45Y-4.289
X7.55Y-3.922
X7.55Y-4.111
X7.55Y-4.3
X7.9Y-2.311
X7.9Y-2.5
X7.9Y-2.689
X12.6Y-2.311
X12.6Y-2.5
X12.6Y-2.689
X8.9Y-3.911
X8.9Y-4.1
X8.9Y-4.289
X4.85Y-3.911
X4.85Y-4.1
X4.85Y-4.289
X9.25Y-2.311
X9.25Y-2.5
X9.25Y-2.689
X11.75Y-2.311
X11.75Y-2.5
X11.75Y-2.689
X2.22Y-3.922
X2.22Y-4.111
X2.22Y-4.3
X10.65Y-2.311
X10.65Y-2.5
X10.65Y-2.689
X5.35Y-2.322
X5.35Y-2.5
X5.35Y-2.7
X3.99Y-2.311
X3.99Y-2.5
X3.99Y-2.689
X12.85Y-3.911
X12.85Y-4.1
X12.85Y-4.289
X7.3Y-2.311
X7.3Y-2.5
X7.3Y-2.689
X13.7Y-2.311
X13.7Y-2.5
X13.7Y-2.689
X10.2Y-3.911
X10.2Y-4.1
X10.2Y-4.289
X6.2Y-3.922
X6.2Y-4.111
X6.2Y-4.3
X8.7Y-2.311
X8.7Y-2.5
X8.7Y-2.689
X5.94Y-2.31
X5.94Y-2.499
X5.94Y-2.688
T9
X1.93Y-1.95
X3.75Y-1.95
T10
X9.54Y-4.45
X1.7Y-0.75
X9.54Y-0.75
X16.35Y-4.45
X16.35Y-0.75
X1.7Y-4.45
T0
M30
