G04 #@! TF.GenerationSoftware,KiCad,Pcbnew,(5.0.2)-1*
G04 #@! TF.CreationDate,2021-04-11T18:58:02+01:00*
G04 #@! TF.ProjectId,nova1200_fptest,6e6f7661-3132-4303-905f-667074657374,Rev 3*
G04 #@! TF.SameCoordinates,Original*
G04 #@! TF.FileFunction,Copper,L2,Bot*
G04 #@! TF.FilePolarity,Positive*
%FSLAX46Y46*%
G04 Gerber Fmt 4.6, Leading zero omitted, Abs format (unit mm)*
G04 Created by KiCad (PCBNEW (5.0.2)-1) date 4/11/2021 6:58:02 PM*
%MOMM*%
%LPD*%
G01*
G04 APERTURE LIST*
G04 #@! TA.AperFunction,ComponentPad*
%ADD10R,1.700000X1.700000*%
G04 #@! TD*
G04 #@! TA.AperFunction,ComponentPad*
%ADD11O,1.700000X1.700000*%
G04 #@! TD*
G04 #@! TA.AperFunction,ComponentPad*
%ADD12O,1.600000X1.600000*%
G04 #@! TD*
G04 #@! TA.AperFunction,ComponentPad*
%ADD13R,1.600000X1.600000*%
G04 #@! TD*
G04 #@! TA.AperFunction,ComponentPad*
%ADD14O,1.400000X1.400000*%
G04 #@! TD*
G04 #@! TA.AperFunction,ComponentPad*
%ADD15C,1.400000*%
G04 #@! TD*
G04 #@! TA.AperFunction,ComponentPad*
%ADD16C,1.600000*%
G04 #@! TD*
G04 #@! TA.AperFunction,ComponentPad*
%ADD17C,1.900000*%
G04 #@! TD*
G04 #@! TA.AperFunction,ComponentPad*
%ADD18C,4.400000*%
G04 #@! TD*
G04 #@! TA.AperFunction,ComponentPad*
%ADD19C,6.400000*%
G04 #@! TD*
G04 #@! TA.AperFunction,ComponentPad*
%ADD20R,1.905000X2.000000*%
G04 #@! TD*
G04 #@! TA.AperFunction,ComponentPad*
%ADD21O,1.905000X2.000000*%
G04 #@! TD*
G04 #@! TA.AperFunction,ComponentPad*
%ADD22C,1.800000*%
G04 #@! TD*
G04 #@! TA.AperFunction,ComponentPad*
%ADD23R,1.800000X1.800000*%
G04 #@! TD*
G04 #@! TA.AperFunction,ComponentPad*
%ADD24O,5.000000X3.000000*%
G04 #@! TD*
G04 #@! TA.AperFunction,ComponentPad*
%ADD25C,2.000000*%
G04 #@! TD*
G04 #@! TA.AperFunction,ViaPad*
%ADD26C,0.800000*%
G04 #@! TD*
G04 #@! TA.AperFunction,Conductor*
%ADD27C,0.250000*%
G04 #@! TD*
G04 #@! TA.AperFunction,Conductor*
%ADD28C,1.000000*%
G04 #@! TD*
G04 APERTURE END LIST*
D10*
G04 #@! TO.P,J8,1*
G04 #@! TO.N,Net-(J8-Pad1)*
X370078000Y-132080000D03*
D11*
G04 #@! TO.P,J8,2*
G04 #@! TO.N,Net-(J8-Pad2)*
X372618000Y-132080000D03*
G04 #@! TO.P,J8,3*
G04 #@! TO.N,Net-(J8-Pad3)*
X375158000Y-132080000D03*
G04 #@! TO.P,J8,4*
G04 #@! TO.N,Net-(J8-Pad4)*
X377698000Y-132080000D03*
G04 #@! TD*
D12*
G04 #@! TO.P,U23,4*
G04 #@! TO.N,/SPIVCC*
X346456000Y-122428000D03*
G04 #@! TO.P,U23,2*
G04 #@! TO.N,Net-(J8-Pad2)*
X338836000Y-124968000D03*
G04 #@! TO.P,U23,3*
G04 #@! TO.N,/SERIALIN*
X346456000Y-124968000D03*
D13*
G04 #@! TO.P,U23,1*
G04 #@! TO.N,Net-(J8-Pad1)*
X338836000Y-122428000D03*
G04 #@! TD*
G04 #@! TO.P,U25,1*
G04 #@! TO.N,Net-(R63-Pad2)*
X349504000Y-122428000D03*
D12*
G04 #@! TO.P,U25,3*
G04 #@! TO.N,Net-(J8-Pad4)*
X357124000Y-124968000D03*
G04 #@! TO.P,U25,2*
G04 #@! TO.N,/GND*
X349504000Y-124968000D03*
G04 #@! TO.P,U25,4*
G04 #@! TO.N,Net-(J8-Pad3)*
X357124000Y-122428000D03*
G04 #@! TD*
D14*
G04 #@! TO.P,R63,2*
G04 #@! TO.N,Net-(R63-Pad2)*
X349504000Y-119126000D03*
D15*
G04 #@! TO.P,R63,1*
G04 #@! TO.N,/SERIALOUT*
X357124000Y-119126000D03*
G04 #@! TD*
G04 #@! TO.P,R62,1*
G04 #@! TO.N,/GND*
X352552000Y-128524000D03*
D14*
G04 #@! TO.P,R62,2*
G04 #@! TO.N,/SERIALIN*
X344932000Y-128524000D03*
G04 #@! TD*
D10*
G04 #@! TO.P,J4,1*
G04 #@! TO.N,/VCC*
X405638000Y-109728000D03*
D11*
G04 #@! TO.P,J4,2*
G04 #@! TO.N,Net-(J4-Pad2)*
X408178000Y-109728000D03*
G04 #@! TD*
D10*
G04 #@! TO.P,J5,1*
G04 #@! TO.N,/GND*
X385064000Y-132080000D03*
D11*
G04 #@! TO.P,J5,2*
G04 #@! TO.N,/VCC*
X387604000Y-132080000D03*
G04 #@! TO.P,J5,3*
G04 #@! TO.N,/D3*
X390144000Y-132080000D03*
G04 #@! TD*
D16*
G04 #@! TO.P,C18,2*
G04 #@! TO.N,/GND*
X371268000Y-69596000D03*
D13*
G04 #@! TO.P,C18,1*
G04 #@! TO.N,/VCC*
X366268000Y-69596000D03*
G04 #@! TD*
G04 #@! TO.P,C19,1*
G04 #@! TO.N,/VCC*
X97536000Y-121412000D03*
D16*
G04 #@! TO.P,C19,2*
G04 #@! TO.N,/GND*
X102536000Y-121412000D03*
G04 #@! TD*
G04 #@! TO.P,U22,17*
G04 #@! TO.N,Net-(U22-Pad17)*
X383540000Y-98044000D03*
G04 #@! TO.P,U22,18*
G04 #@! TO.N,Net-(U22-Pad18)*
X383540000Y-100584000D03*
G04 #@! TO.P,U22,19*
G04 #@! TO.N,/A14*
X383540000Y-103124000D03*
G04 #@! TO.P,U22,20*
G04 #@! TO.N,/SSCK*
X383540000Y-105664000D03*
G04 #@! TO.P,U22,16*
G04 #@! TO.N,Net-(U22-Pad16)*
X383540000Y-95504000D03*
G04 #@! TO.P,U22,15*
G04 #@! TO.N,Net-(U22-Pad15)*
X383540000Y-92964000D03*
G04 #@! TO.P,U22,14*
G04 #@! TO.N,/MISO*
X383540000Y-90424000D03*
G04 #@! TO.P,U22,21*
G04 #@! TO.N,/CS*
X386080000Y-105664000D03*
G04 #@! TO.P,U22,22*
G04 #@! TO.N,/ENOLED2*
X388620000Y-105664000D03*
G04 #@! TO.P,U22,23*
G04 #@! TO.N,/TA2*
X391160000Y-105664000D03*
G04 #@! TO.P,U22,24*
G04 #@! TO.N,/TA3*
X393700000Y-105664000D03*
G04 #@! TO.P,U22,25*
G04 #@! TO.N,/D0*
X396240000Y-105664000D03*
G04 #@! TO.P,U22,26*
G04 #@! TO.N,/D1*
X398780000Y-105664000D03*
G04 #@! TO.P,U22,27*
G04 #@! TO.N,/D2*
X401320000Y-105664000D03*
G04 #@! TO.P,U22,28*
G04 #@! TO.N,/D3*
X403860000Y-105664000D03*
G04 #@! TO.P,U22,29*
G04 #@! TO.N,/SDA*
X406400000Y-105664000D03*
G04 #@! TO.P,U22,30*
G04 #@! TO.N,/SCK*
X408940000Y-105664000D03*
G04 #@! TO.P,U22,31*
G04 #@! TO.N,/SPIVCC*
X411480000Y-105664000D03*
G04 #@! TO.P,U22,32*
G04 #@! TO.N,Net-(U22-Pad32)*
X414020000Y-105664000D03*
G04 #@! TO.P,U22,33*
G04 #@! TO.N,Net-(J4-Pad2)*
X416560000Y-105664000D03*
G04 #@! TO.P,U22,34*
G04 #@! TO.N,Net-(U22-Pad34)*
X414020000Y-103124000D03*
G04 #@! TO.P,U22,35*
G04 #@! TO.N,Net-(U22-Pad35)*
X408940000Y-103124000D03*
G04 #@! TO.P,U22,36*
G04 #@! TO.N,Net-(U22-Pad36)*
X406400000Y-103124000D03*
G04 #@! TO.P,U22,37*
G04 #@! TO.N,Net-(U22-Pad37)*
X403860000Y-103124000D03*
G04 #@! TO.P,U22,13*
G04 #@! TO.N,/MOSI*
X386080000Y-90424000D03*
G04 #@! TO.P,U22,12*
G04 #@! TO.N,/ENOLED1*
X388620000Y-90424000D03*
G04 #@! TO.P,U22,11*
G04 #@! TO.N,/ENOLED0*
X391160000Y-90424000D03*
G04 #@! TO.P,U22,10*
G04 #@! TO.N,/A2*
X393700000Y-90424000D03*
G04 #@! TO.P,U22,9*
G04 #@! TO.N,/A1*
X396240000Y-90424000D03*
G04 #@! TO.P,U22,8*
G04 #@! TO.N,/A0*
X398780000Y-90424000D03*
G04 #@! TO.P,U22,7*
G04 #@! TO.N,/ENLCD2*
X401320000Y-90424000D03*
G04 #@! TO.P,U22,6*
G04 #@! TO.N,/ENLCD1*
X403860000Y-90424000D03*
G04 #@! TO.P,U22,5*
G04 #@! TO.N,/SELR1*
X406400000Y-90424000D03*
G04 #@! TO.P,U22,4*
G04 #@! TO.N,/LIGHTINT*
X408940000Y-90424000D03*
G04 #@! TO.P,U22,3*
G04 #@! TO.N,/SERIALOUT*
X411480000Y-90424000D03*
G04 #@! TO.P,U22,2*
G04 #@! TO.N,/SERIALIN*
X414020000Y-90424000D03*
D13*
G04 #@! TO.P,U22,1*
G04 #@! TO.N,/GND*
X416560000Y-90424000D03*
D16*
G04 #@! TO.P,U22,38*
G04 #@! TO.N,Net-(U22-Pad38)*
X401320000Y-98044000D03*
G04 #@! TO.P,U22,39*
G04 #@! TO.N,Net-(U22-Pad39)*
X398780000Y-98044000D03*
G04 #@! TO.P,U22,40*
G04 #@! TO.N,Net-(U22-Pad40)*
X396240000Y-98044000D03*
G04 #@! TO.P,U22,41*
G04 #@! TO.N,Net-(U22-Pad41)*
X393700000Y-98044000D03*
G04 #@! TO.P,U22,42*
G04 #@! TO.N,Net-(U22-Pad42)*
X391160000Y-98044000D03*
G04 #@! TO.P,U22,43*
G04 #@! TO.N,Net-(U22-Pad43)*
X388620000Y-98044000D03*
G04 #@! TO.P,U22,44*
G04 #@! TO.N,Net-(U22-Pad44)*
X386080000Y-98044000D03*
G04 #@! TO.P,U22,45*
G04 #@! TO.N,Net-(U22-Pad45)*
X386080000Y-100584000D03*
G04 #@! TO.P,U22,46*
G04 #@! TO.N,Net-(U22-Pad46)*
X388620000Y-100584000D03*
G04 #@! TO.P,U22,47*
G04 #@! TO.N,Net-(U22-Pad47)*
X391160000Y-100584000D03*
G04 #@! TO.P,U22,48*
G04 #@! TO.N,Net-(U22-Pad48)*
X393700000Y-100584000D03*
G04 #@! TO.P,U22,49*
G04 #@! TO.N,Net-(U22-Pad49)*
X396240000Y-100584000D03*
G04 #@! TO.P,U22,50*
G04 #@! TO.N,Net-(U22-Pad50)*
X398780000Y-100584000D03*
G04 #@! TO.P,U22,51*
G04 #@! TO.N,Net-(U22-Pad51)*
X401320000Y-100584000D03*
D17*
G04 #@! TO.P,U22,52*
G04 #@! TO.N,Net-(U22-Pad52)*
X406400000Y-98044000D03*
X410210000Y-98044000D03*
G04 #@! TD*
D16*
G04 #@! TO.P,C17,2*
G04 #@! TO.N,/GND*
X350948000Y-113411000D03*
D13*
G04 #@! TO.P,C17,1*
G04 #@! TO.N,/VCC*
X345948000Y-113411000D03*
G04 #@! TD*
D16*
G04 #@! TO.P,C16,2*
G04 #@! TO.N,/GND*
X386334000Y-122094000D03*
D13*
G04 #@! TO.P,C16,1*
G04 #@! TO.N,/SPIVCC*
X386334000Y-117094000D03*
G04 #@! TD*
D10*
G04 #@! TO.P,J24,1*
G04 #@! TO.N,/GND*
X397256000Y-132080000D03*
D11*
G04 #@! TO.P,J24,2*
G04 #@! TO.N,/MISO*
X399796000Y-132080000D03*
G04 #@! TO.P,J24,3*
G04 #@! TO.N,/MOSI*
X402336000Y-132080000D03*
G04 #@! TO.P,J24,4*
G04 #@! TO.N,/SSCK*
X404876000Y-132080000D03*
G04 #@! TO.P,J24,5*
G04 #@! TO.N,/CS*
X407416000Y-132080000D03*
G04 #@! TO.P,J24,6*
G04 #@! TO.N,/SPIVCC*
X409956000Y-132080000D03*
G04 #@! TD*
D13*
G04 #@! TO.P,U21,1*
G04 #@! TO.N,/CS*
X392557000Y-114300000D03*
D12*
G04 #@! TO.P,U21,5*
G04 #@! TO.N,/MOSI*
X400177000Y-121920000D03*
G04 #@! TO.P,U21,2*
G04 #@! TO.N,/MISO*
X392557000Y-116840000D03*
G04 #@! TO.P,U21,6*
G04 #@! TO.N,/SSCK*
X400177000Y-119380000D03*
G04 #@! TO.P,U21,3*
G04 #@! TO.N,/SPIVCC*
X392557000Y-119380000D03*
G04 #@! TO.P,U21,7*
X400177000Y-116840000D03*
G04 #@! TO.P,U21,4*
G04 #@! TO.N,/GND*
X392557000Y-121920000D03*
G04 #@! TO.P,U21,8*
G04 #@! TO.N,/SPIVCC*
X400177000Y-114300000D03*
G04 #@! TD*
D10*
G04 #@! TO.P,J9,1*
G04 #@! TO.N,/GND*
X368046000Y-78232000D03*
D11*
G04 #@! TO.P,J9,2*
G04 #@! TO.N,/TA2*
X368046000Y-80772000D03*
G04 #@! TO.P,J9,3*
G04 #@! TO.N,/TA3*
X368046000Y-83312000D03*
G04 #@! TO.P,J9,4*
G04 #@! TO.N,/A14*
X368046000Y-85852000D03*
G04 #@! TO.P,J9,5*
G04 #@! TO.N,/SPIVCC*
X368046000Y-88392000D03*
G04 #@! TD*
D15*
G04 #@! TO.P,R57,1*
G04 #@! TO.N,/VCC*
X111379000Y-125984000D03*
D14*
G04 #@! TO.P,R57,2*
G04 #@! TO.N,Net-(J11-Pad4)*
X118999000Y-125984000D03*
G04 #@! TD*
G04 #@! TO.P,R58,2*
G04 #@! TO.N,Net-(J12-Pad4)*
X118999000Y-121793000D03*
D15*
G04 #@! TO.P,R58,1*
G04 #@! TO.N,/VCC*
X111379000Y-121793000D03*
G04 #@! TD*
G04 #@! TO.P,R59,1*
G04 #@! TO.N,/VCC*
X180086000Y-121920000D03*
D14*
G04 #@! TO.P,R59,2*
G04 #@! TO.N,Net-(J15-Pad4)*
X187706000Y-121920000D03*
G04 #@! TD*
G04 #@! TO.P,R60,2*
G04 #@! TO.N,Net-(J16-Pad4)*
X253619000Y-121920000D03*
D15*
G04 #@! TO.P,R60,1*
G04 #@! TO.N,/VCC*
X245999000Y-121920000D03*
G04 #@! TD*
G04 #@! TO.P,R61,1*
G04 #@! TO.N,/VCC*
X320802000Y-121920000D03*
D14*
G04 #@! TO.P,R61,2*
G04 #@! TO.N,Net-(J17-Pad4)*
X313182000Y-121920000D03*
G04 #@! TD*
D13*
G04 #@! TO.P,U18,1*
G04 #@! TO.N,Net-(J17-Pad4)*
X335135000Y-95555000D03*
D12*
G04 #@! TO.P,U18,9*
G04 #@! TO.N,/ENOLED2*
X342755000Y-113335000D03*
G04 #@! TO.P,U18,2*
G04 #@! TO.N,Net-(U18-Pad2)*
X335135000Y-98095000D03*
G04 #@! TO.P,U18,10*
G04 #@! TO.N,/ENOLED1*
X342755000Y-110795000D03*
G04 #@! TO.P,U18,3*
G04 #@! TO.N,/SDA*
X335135000Y-100635000D03*
G04 #@! TO.P,U18,11*
G04 #@! TO.N,/ENOLED0*
X342755000Y-108255000D03*
G04 #@! TO.P,U18,4*
G04 #@! TO.N,Net-(U18-Pad4)*
X335135000Y-103175000D03*
G04 #@! TO.P,U18,12*
G04 #@! TO.N,Net-(J16-Pad4)*
X342755000Y-105715000D03*
G04 #@! TO.P,U18,5*
G04 #@! TO.N,Net-(U18-Pad5)*
X335135000Y-105715000D03*
G04 #@! TO.P,U18,13*
G04 #@! TO.N,Net-(J11-Pad4)*
X342755000Y-103175000D03*
G04 #@! TO.P,U18,6*
G04 #@! TO.N,/GND*
X335135000Y-108255000D03*
G04 #@! TO.P,U18,14*
G04 #@! TO.N,Net-(J12-Pad4)*
X342755000Y-100635000D03*
G04 #@! TO.P,U18,7*
G04 #@! TO.N,/GND*
X335135000Y-110795000D03*
G04 #@! TO.P,U18,15*
G04 #@! TO.N,Net-(J15-Pad4)*
X342755000Y-98095000D03*
G04 #@! TO.P,U18,8*
G04 #@! TO.N,/GND*
X335135000Y-113335000D03*
G04 #@! TO.P,U18,16*
G04 #@! TO.N,/VCC*
X342755000Y-95555000D03*
G04 #@! TD*
D14*
G04 #@! TO.P,R55,2*
G04 #@! TO.N,/SDA*
X331470000Y-87630000D03*
D15*
G04 #@! TO.P,R55,1*
G04 #@! TO.N,/VCC*
X339090000Y-87630000D03*
G04 #@! TD*
G04 #@! TO.P,R56,1*
G04 #@! TO.N,/VCC*
X339090000Y-83820000D03*
D14*
G04 #@! TO.P,R56,2*
G04 #@! TO.N,/SCK*
X331470000Y-83820000D03*
G04 #@! TD*
D10*
G04 #@! TO.P,J3,1*
G04 #@! TO.N,/GND*
X61468000Y-114300000D03*
D11*
G04 #@! TO.P,J3,2*
G04 #@! TO.N,Net-(J3-Pad2)*
X61468000Y-111760000D03*
G04 #@! TO.P,J3,3*
G04 #@! TO.N,Net-(J3-Pad3)*
X64008000Y-114300000D03*
G04 #@! TO.P,J3,4*
G04 #@! TO.N,Net-(J3-Pad4)*
X64008000Y-111760000D03*
G04 #@! TO.P,J3,5*
G04 #@! TO.N,Net-(D38-Pad2)*
X66548000Y-114300000D03*
G04 #@! TO.P,J3,6*
G04 #@! TO.N,Net-(J3-Pad6)*
X66548000Y-111760000D03*
G04 #@! TO.P,J3,7*
G04 #@! TO.N,Net-(J3-Pad7)*
X69088000Y-114300000D03*
G04 #@! TO.P,J3,8*
G04 #@! TO.N,Net-(J3-Pad8)*
X69088000Y-111760000D03*
G04 #@! TO.P,J3,9*
G04 #@! TO.N,Net-(D39-Pad2)*
X71628000Y-114300000D03*
G04 #@! TO.P,J3,10*
G04 #@! TO.N,Net-(J3-Pad10)*
X71628000Y-111760000D03*
G04 #@! TO.P,J3,11*
G04 #@! TO.N,Net-(J3-Pad11)*
X74168000Y-114300000D03*
G04 #@! TO.P,J3,12*
G04 #@! TO.N,Net-(J3-Pad12)*
X74168000Y-111760000D03*
G04 #@! TO.P,J3,13*
G04 #@! TO.N,Net-(D41-Pad2)*
X76708000Y-114300000D03*
G04 #@! TO.P,J3,14*
G04 #@! TO.N,Net-(D42-Pad2)*
X76708000Y-111760000D03*
G04 #@! TO.P,J3,15*
G04 #@! TO.N,Net-(D40-Pad2)*
X79248000Y-114300000D03*
G04 #@! TO.P,J3,16*
G04 #@! TO.N,Net-(J3-Pad16)*
X79248000Y-111760000D03*
G04 #@! TO.P,J3,17*
G04 #@! TO.N,Net-(J3-Pad17)*
X81788000Y-114300000D03*
G04 #@! TO.P,J3,18*
G04 #@! TO.N,Net-(J3-Pad18)*
X81788000Y-111760000D03*
G04 #@! TD*
D10*
G04 #@! TO.P,J2,1*
G04 #@! TO.N,/GND*
X25654000Y-113665000D03*
D11*
G04 #@! TO.P,J2,2*
G04 #@! TO.N,Net-(J2-Pad2)*
X28194000Y-113665000D03*
G04 #@! TO.P,J2,3*
G04 #@! TO.N,Net-(J2-Pad3)*
X25654000Y-116205000D03*
G04 #@! TO.P,J2,4*
G04 #@! TO.N,Net-(J2-Pad4)*
X28194000Y-116205000D03*
G04 #@! TO.P,J2,5*
G04 #@! TO.N,Net-(J2-Pad5)*
X25654000Y-118745000D03*
G04 #@! TO.P,J2,6*
G04 #@! TO.N,Net-(J2-Pad6)*
X28194000Y-118745000D03*
G04 #@! TO.P,J2,7*
G04 #@! TO.N,Net-(J2-Pad7)*
X25654000Y-121285000D03*
G04 #@! TO.P,J2,8*
G04 #@! TO.N,Net-(J2-Pad8)*
X28194000Y-121285000D03*
G04 #@! TO.P,J2,9*
G04 #@! TO.N,Net-(J2-Pad9)*
X25654000Y-123825000D03*
G04 #@! TO.P,J2,10*
G04 #@! TO.N,Net-(J2-Pad10)*
X28194000Y-123825000D03*
G04 #@! TO.P,J2,11*
G04 #@! TO.N,Net-(J2-Pad11)*
X25654000Y-126365000D03*
G04 #@! TO.P,J2,12*
G04 #@! TO.N,Net-(J2-Pad12)*
X28194000Y-126365000D03*
G04 #@! TO.P,J2,13*
G04 #@! TO.N,Net-(J2-Pad13)*
X25654000Y-128905000D03*
G04 #@! TO.P,J2,14*
G04 #@! TO.N,Net-(J2-Pad14)*
X28194000Y-128905000D03*
G04 #@! TO.P,J2,15*
G04 #@! TO.N,Net-(J2-Pad15)*
X25654000Y-131445000D03*
G04 #@! TO.P,J2,16*
G04 #@! TO.N,Net-(J2-Pad16)*
X28194000Y-131445000D03*
G04 #@! TD*
D10*
G04 #@! TO.P,J20,1*
G04 #@! TO.N,/GND*
X395224000Y-63754000D03*
G04 #@! TD*
G04 #@! TO.P,J19,1*
G04 #@! TO.N,/GND*
X97282000Y-132080000D03*
D11*
G04 #@! TO.P,J19,2*
G04 #@! TO.N,/VCC*
X99822000Y-132080000D03*
G04 #@! TO.P,J19,3*
G04 #@! TO.N,/SDA*
X102362000Y-132080000D03*
G04 #@! TO.P,J19,4*
G04 #@! TO.N,/SCK*
X104902000Y-132080000D03*
G04 #@! TD*
G04 #@! TO.P,J18,4*
G04 #@! TO.N,/SDA*
X404622000Y-17526000D03*
G04 #@! TO.P,J18,3*
G04 #@! TO.N,/SCK*
X402082000Y-17526000D03*
G04 #@! TO.P,J18,2*
G04 #@! TO.N,/VCC*
X399542000Y-17526000D03*
D10*
G04 #@! TO.P,J18,1*
G04 #@! TO.N,/GND*
X397002000Y-17526000D03*
G04 #@! TD*
G04 #@! TO.P,J17,1*
G04 #@! TO.N,/GND*
X326390000Y-129540000D03*
D11*
G04 #@! TO.P,J17,2*
G04 #@! TO.N,/VCC*
X326390000Y-127000000D03*
G04 #@! TO.P,J17,3*
G04 #@! TO.N,/SCK*
X326390000Y-124460000D03*
G04 #@! TO.P,J17,4*
G04 #@! TO.N,Net-(J17-Pad4)*
X326390000Y-121920000D03*
G04 #@! TD*
D13*
G04 #@! TO.P,U24,1*
G04 #@! TO.N,Net-(U24-Pad1)*
X65405000Y-129159000D03*
D12*
G04 #@! TO.P,U24,8*
G04 #@! TO.N,Net-(J2-Pad11)*
X80645000Y-121539000D03*
G04 #@! TO.P,U24,2*
G04 #@! TO.N,Net-(J2-Pad13)*
X67945000Y-129159000D03*
G04 #@! TO.P,U24,9*
G04 #@! TO.N,Net-(J2-Pad9)*
X78105000Y-121539000D03*
G04 #@! TO.P,U24,3*
G04 #@! TO.N,Net-(J2-Pad2)*
X70485000Y-129159000D03*
G04 #@! TO.P,U24,10*
G04 #@! TO.N,Net-(J2-Pad5)*
X75565000Y-121539000D03*
G04 #@! TO.P,U24,4*
G04 #@! TO.N,Net-(J2-Pad2)*
X73025000Y-129159000D03*
G04 #@! TO.P,U24,11*
G04 #@! TO.N,Net-(J2-Pad5)*
X73025000Y-121539000D03*
G04 #@! TO.P,U24,5*
G04 #@! TO.N,Net-(J2-Pad3)*
X75565000Y-129159000D03*
G04 #@! TO.P,U24,12*
G04 #@! TO.N,Net-(J2-Pad7)*
X70485000Y-121539000D03*
G04 #@! TO.P,U24,6*
G04 #@! TO.N,Net-(U24-Pad1)*
X78105000Y-129159000D03*
G04 #@! TO.P,U24,13*
G04 #@! TO.N,Net-(J2-Pad11)*
X67945000Y-121539000D03*
G04 #@! TO.P,U24,7*
G04 #@! TO.N,/GND*
X80645000Y-129159000D03*
G04 #@! TO.P,U24,14*
G04 #@! TO.N,/VCC*
X65405000Y-121539000D03*
G04 #@! TD*
D18*
G04 #@! TO.P,H1,1*
G04 #@! TO.N,/GND*
X95250000Y-49530000D03*
G04 #@! TD*
G04 #@! TO.P,H2,1*
G04 #@! TO.N,/GND*
X49022000Y-49530000D03*
G04 #@! TD*
D19*
G04 #@! TO.P,PAD2,1*
G04 #@! TO.N,/GND*
X43180000Y-19050000D03*
G04 #@! TD*
D10*
G04 #@! TO.P,J7,1*
G04 #@! TO.N,/GND*
X416814000Y-36830000D03*
D11*
G04 #@! TO.P,J7,2*
G04 #@! TO.N,/SERIALOUT*
X416814000Y-34290000D03*
G04 #@! TO.P,J7,3*
G04 #@! TO.N,/SERIALIN*
X416814000Y-31750000D03*
G04 #@! TO.P,J7,4*
G04 #@! TO.N,/VCC*
X416814000Y-29210000D03*
G04 #@! TD*
D10*
G04 #@! TO.P,J6,1*
G04 #@! TO.N,/GND*
X414274000Y-46736000D03*
D11*
G04 #@! TO.P,J6,2*
G04 #@! TO.N,/VCC*
X416814000Y-46736000D03*
G04 #@! TO.P,J6,3*
G04 #@! TO.N,/A0*
X414274000Y-49276000D03*
G04 #@! TO.P,J6,4*
G04 #@! TO.N,/ENLCD1*
X416814000Y-49276000D03*
G04 #@! TO.P,J6,5*
G04 #@! TO.N,/D0*
X414274000Y-51816000D03*
G04 #@! TO.P,J6,6*
G04 #@! TO.N,/D1*
X416814000Y-51816000D03*
G04 #@! TO.P,J6,7*
G04 #@! TO.N,/D2*
X414274000Y-54356000D03*
G04 #@! TO.P,J6,8*
G04 #@! TO.N,/D3*
X416814000Y-54356000D03*
G04 #@! TO.P,J6,9*
G04 #@! TO.N,/TA2*
X414274000Y-56896000D03*
G04 #@! TO.P,J6,10*
G04 #@! TO.N,/ENLCD2*
X416814000Y-56896000D03*
G04 #@! TD*
D10*
G04 #@! TO.P,J16,1*
G04 #@! TO.N,/GND*
X258826000Y-129540000D03*
D11*
G04 #@! TO.P,J16,2*
G04 #@! TO.N,/VCC*
X258826000Y-127000000D03*
G04 #@! TO.P,J16,3*
G04 #@! TO.N,/SCK*
X258826000Y-124460000D03*
G04 #@! TO.P,J16,4*
G04 #@! TO.N,Net-(J16-Pad4)*
X258826000Y-121920000D03*
G04 #@! TD*
G04 #@! TO.P,J15,4*
G04 #@! TO.N,Net-(J15-Pad4)*
X191770000Y-121920000D03*
G04 #@! TO.P,J15,3*
G04 #@! TO.N,/SCK*
X191770000Y-124460000D03*
G04 #@! TO.P,J15,2*
G04 #@! TO.N,/VCC*
X191770000Y-127000000D03*
D10*
G04 #@! TO.P,J15,1*
G04 #@! TO.N,/GND*
X191770000Y-129540000D03*
G04 #@! TD*
G04 #@! TO.P,J12,1*
G04 #@! TO.N,/GND*
X123190000Y-129540000D03*
D11*
G04 #@! TO.P,J12,2*
G04 #@! TO.N,/VCC*
X123190000Y-127000000D03*
G04 #@! TO.P,J12,3*
G04 #@! TO.N,/SCK*
X123190000Y-124460000D03*
G04 #@! TO.P,J12,4*
G04 #@! TO.N,Net-(J12-Pad4)*
X123190000Y-121920000D03*
G04 #@! TD*
D10*
G04 #@! TO.P,J11,1*
G04 #@! TO.N,/GND*
X57150000Y-129540000D03*
D11*
G04 #@! TO.P,J11,2*
G04 #@! TO.N,/VCC*
X57150000Y-127000000D03*
G04 #@! TO.P,J11,3*
G04 #@! TO.N,/SCK*
X57150000Y-124460000D03*
G04 #@! TO.P,J11,4*
G04 #@! TO.N,Net-(J11-Pad4)*
X57150000Y-121920000D03*
G04 #@! TD*
D10*
G04 #@! TO.P,J14,1*
G04 #@! TO.N,Net-(A1-Pad30)*
X376936000Y-63754000D03*
G04 #@! TD*
G04 #@! TO.P,J13,1*
G04 #@! TO.N,Net-(C14-Pad1)*
X49022000Y-42926000D03*
G04 #@! TD*
D20*
G04 #@! TO.P,U20,1*
G04 #@! TO.N,/VLAMP*
X37846000Y-42545000D03*
D21*
G04 #@! TO.P,U20,2*
G04 #@! TO.N,/GND*
X40386000Y-42545000D03*
G04 #@! TO.P,U20,3*
G04 #@! TO.N,Net-(C14-Pad1)*
X42926000Y-42545000D03*
G04 #@! TD*
D10*
G04 #@! TO.P,J10,1*
G04 #@! TO.N,Net-(A1-Pad27)*
X388874000Y-63754000D03*
G04 #@! TD*
D12*
G04 #@! TO.P,U8,8*
G04 #@! TO.N,/VCC*
X314960000Y-81026000D03*
G04 #@! TO.P,U8,4*
G04 #@! TO.N,/GND*
X307340000Y-88646000D03*
G04 #@! TO.P,U8,7*
X314960000Y-83566000D03*
G04 #@! TO.P,U8,3*
G04 #@! TO.N,/VCC*
X307340000Y-86106000D03*
G04 #@! TO.P,U8,6*
G04 #@! TO.N,/SCK*
X314960000Y-86106000D03*
G04 #@! TO.P,U8,2*
G04 #@! TO.N,/VCC*
X307340000Y-83566000D03*
G04 #@! TO.P,U8,5*
G04 #@! TO.N,/SDA*
X314960000Y-88646000D03*
D13*
G04 #@! TO.P,U8,1*
G04 #@! TO.N,/GND*
X307340000Y-81026000D03*
G04 #@! TD*
G04 #@! TO.P,U7,1*
G04 #@! TO.N,/GND*
X285750000Y-81026000D03*
D12*
G04 #@! TO.P,U7,5*
G04 #@! TO.N,/SDA*
X293370000Y-88646000D03*
G04 #@! TO.P,U7,2*
G04 #@! TO.N,/GND*
X285750000Y-83566000D03*
G04 #@! TO.P,U7,6*
G04 #@! TO.N,/SCK*
X293370000Y-86106000D03*
G04 #@! TO.P,U7,3*
G04 #@! TO.N,/VCC*
X285750000Y-86106000D03*
G04 #@! TO.P,U7,7*
G04 #@! TO.N,/GND*
X293370000Y-83566000D03*
G04 #@! TO.P,U7,4*
X285750000Y-88646000D03*
G04 #@! TO.P,U7,8*
G04 #@! TO.N,/VCC*
X293370000Y-81026000D03*
G04 #@! TD*
D22*
G04 #@! TO.P,D47,2*
G04 #@! TO.N,Net-(D42-Pad2)*
X355346000Y-104140000D03*
D23*
G04 #@! TO.P,D47,1*
G04 #@! TO.N,Net-(D47-Pad1)*
X352806000Y-104140000D03*
G04 #@! TD*
G04 #@! TO.P,D41,1*
G04 #@! TO.N,Net-(D41-Pad1)*
X149606000Y-104394000D03*
D22*
G04 #@! TO.P,D41,2*
G04 #@! TO.N,Net-(D41-Pad2)*
X152146000Y-104394000D03*
G04 #@! TD*
G04 #@! TO.P,D39,2*
G04 #@! TO.N,Net-(D39-Pad2)*
X84836000Y-104140000D03*
D23*
G04 #@! TO.P,D39,1*
G04 #@! TO.N,Net-(D39-Pad1)*
X82296000Y-104140000D03*
G04 #@! TD*
G04 #@! TO.P,D46,1*
G04 #@! TO.N,Net-(D46-Pad1)*
X318516000Y-104140000D03*
D22*
G04 #@! TO.P,D46,2*
G04 #@! TO.N,Net-(D41-Pad2)*
X321056000Y-104140000D03*
G04 #@! TD*
G04 #@! TO.P,D43,2*
G04 #@! TO.N,Net-(D38-Pad2)*
X220726000Y-103886000D03*
D23*
G04 #@! TO.P,D43,1*
G04 #@! TO.N,Net-(D43-Pad1)*
X218186000Y-103886000D03*
G04 #@! TD*
G04 #@! TO.P,D42,1*
G04 #@! TO.N,Net-(D42-Pad1)*
X183896000Y-104394000D03*
D22*
G04 #@! TO.P,D42,2*
G04 #@! TO.N,Net-(D42-Pad2)*
X186436000Y-104394000D03*
G04 #@! TD*
G04 #@! TO.P,D40,2*
G04 #@! TO.N,Net-(D40-Pad2)*
X117856000Y-104140000D03*
D23*
G04 #@! TO.P,D40,1*
G04 #@! TO.N,Net-(D40-Pad1)*
X115316000Y-104140000D03*
G04 #@! TD*
G04 #@! TO.P,D38,1*
G04 #@! TO.N,Net-(D38-Pad1)*
X48514000Y-104394000D03*
D22*
G04 #@! TO.P,D38,2*
G04 #@! TO.N,Net-(D38-Pad2)*
X51054000Y-104394000D03*
G04 #@! TD*
G04 #@! TO.P,D45,2*
G04 #@! TO.N,Net-(D40-Pad2)*
X285496000Y-104140000D03*
D23*
G04 #@! TO.P,D45,1*
G04 #@! TO.N,Net-(D45-Pad1)*
X282956000Y-104140000D03*
G04 #@! TD*
G04 #@! TO.P,D44,1*
G04 #@! TO.N,Net-(D44-Pad1)*
X251206000Y-104140000D03*
D22*
G04 #@! TO.P,D44,2*
G04 #@! TO.N,Net-(D39-Pad2)*
X253746000Y-104140000D03*
G04 #@! TD*
D13*
G04 #@! TO.P,U15,1*
G04 #@! TO.N,Net-(D42-Pad2)*
X119634000Y-88646000D03*
D12*
G04 #@! TO.P,U15,15*
G04 #@! TO.N,/VCC*
X152654000Y-81026000D03*
G04 #@! TO.P,U15,2*
G04 #@! TO.N,Net-(D41-Pad2)*
X122174000Y-88646000D03*
G04 #@! TO.P,U15,16*
G04 #@! TO.N,/GND*
X150114000Y-81026000D03*
G04 #@! TO.P,U15,3*
G04 #@! TO.N,Net-(D40-Pad2)*
X124714000Y-88646000D03*
G04 #@! TO.P,U15,17*
G04 #@! TO.N,/GND*
X147574000Y-81026000D03*
G04 #@! TO.P,U15,4*
G04 #@! TO.N,Net-(D39-Pad2)*
X127254000Y-88646000D03*
G04 #@! TO.P,U15,18*
G04 #@! TO.N,/VCC*
X145034000Y-81026000D03*
G04 #@! TO.P,U15,5*
G04 #@! TO.N,Net-(D38-Pad2)*
X129794000Y-88646000D03*
G04 #@! TO.P,U15,19*
G04 #@! TO.N,Net-(U15-Pad19)*
X142494000Y-81026000D03*
G04 #@! TO.P,U15,6*
G04 #@! TO.N,Net-(J3-Pad12)*
X132334000Y-88646000D03*
G04 #@! TO.P,U15,20*
G04 #@! TO.N,/KEYINT*
X139954000Y-81026000D03*
G04 #@! TO.P,U15,7*
G04 #@! TO.N,Net-(J3-Pad6)*
X134874000Y-88646000D03*
G04 #@! TO.P,U15,21*
G04 #@! TO.N,Net-(R48-Pad1)*
X137414000Y-81026000D03*
G04 #@! TO.P,U15,8*
G04 #@! TO.N,Net-(J3-Pad8)*
X137414000Y-88646000D03*
G04 #@! TO.P,U15,22*
G04 #@! TO.N,Net-(R49-Pad1)*
X134874000Y-81026000D03*
G04 #@! TO.P,U15,9*
G04 #@! TO.N,/VCC*
X139954000Y-88646000D03*
G04 #@! TO.P,U15,23*
G04 #@! TO.N,Net-(R50-Pad1)*
X132334000Y-81026000D03*
G04 #@! TO.P,U15,10*
G04 #@! TO.N,/GND*
X142494000Y-88646000D03*
G04 #@! TO.P,U15,24*
G04 #@! TO.N,Net-(R51-Pad1)*
X129794000Y-81026000D03*
G04 #@! TO.P,U15,11*
G04 #@! TO.N,Net-(U15-Pad11)*
X145034000Y-88646000D03*
G04 #@! TO.P,U15,25*
G04 #@! TO.N,Net-(R52-Pad1)*
X127254000Y-81026000D03*
G04 #@! TO.P,U15,12*
G04 #@! TO.N,/SCK*
X147574000Y-88646000D03*
G04 #@! TO.P,U15,26*
G04 #@! TO.N,Net-(R53-Pad1)*
X124714000Y-81026000D03*
G04 #@! TO.P,U15,13*
G04 #@! TO.N,/SDA*
X150114000Y-88646000D03*
G04 #@! TO.P,U15,27*
G04 #@! TO.N,Net-(R54-Pad1)*
X122174000Y-81026000D03*
G04 #@! TO.P,U15,14*
G04 #@! TO.N,Net-(U15-Pad14)*
X152654000Y-88646000D03*
G04 #@! TO.P,U15,28*
G04 #@! TO.N,Net-(J3-Pad10)*
X119634000Y-81026000D03*
G04 #@! TD*
G04 #@! TO.P,U4,28*
G04 #@! TO.N,Net-(J2-Pad15)*
X264414000Y-121666000D03*
G04 #@! TO.P,U4,14*
G04 #@! TO.N,Net-(U4-Pad14)*
X297434000Y-129286000D03*
G04 #@! TO.P,U4,27*
G04 #@! TO.N,Net-(J2-Pad16)*
X266954000Y-121666000D03*
G04 #@! TO.P,U4,13*
G04 #@! TO.N,/SDA*
X294894000Y-129286000D03*
G04 #@! TO.P,U4,26*
G04 #@! TO.N,Net-(J2-Pad14)*
X269494000Y-121666000D03*
G04 #@! TO.P,U4,12*
G04 #@! TO.N,/SCK*
X292354000Y-129286000D03*
G04 #@! TO.P,U4,25*
G04 #@! TO.N,Net-(J2-Pad12)*
X272034000Y-121666000D03*
G04 #@! TO.P,U4,11*
G04 #@! TO.N,Net-(U4-Pad11)*
X289814000Y-129286000D03*
G04 #@! TO.P,U4,24*
G04 #@! TO.N,Net-(J2-Pad10)*
X274574000Y-121666000D03*
G04 #@! TO.P,U4,10*
G04 #@! TO.N,/GND*
X287274000Y-129286000D03*
G04 #@! TO.P,U4,23*
G04 #@! TO.N,Net-(J2-Pad8)*
X277114000Y-121666000D03*
G04 #@! TO.P,U4,9*
G04 #@! TO.N,/VCC*
X284734000Y-129286000D03*
G04 #@! TO.P,U4,22*
G04 #@! TO.N,Net-(J2-Pad6)*
X279654000Y-121666000D03*
G04 #@! TO.P,U4,8*
G04 #@! TO.N,/SWINT*
X282194000Y-129286000D03*
G04 #@! TO.P,U4,21*
G04 #@! TO.N,Net-(J2-Pad4)*
X282194000Y-121666000D03*
G04 #@! TO.P,U4,7*
G04 #@! TO.N,/KEYINT*
X279654000Y-129286000D03*
G04 #@! TO.P,U4,20*
G04 #@! TO.N,Net-(J2-Pad13)*
X284734000Y-121666000D03*
G04 #@! TO.P,U4,6*
G04 #@! TO.N,/CARRY*
X277114000Y-129286000D03*
G04 #@! TO.P,U4,19*
G04 #@! TO.N,/LIGHTINT*
X287274000Y-121666000D03*
G04 #@! TO.P,U4,5*
G04 #@! TO.N,/EXEC*
X274574000Y-129286000D03*
G04 #@! TO.P,U4,18*
G04 #@! TO.N,/VCC*
X289814000Y-121666000D03*
G04 #@! TO.P,U4,4*
G04 #@! TO.N,/DEFER*
X272034000Y-129286000D03*
G04 #@! TO.P,U4,17*
G04 #@! TO.N,/VCC*
X292354000Y-121666000D03*
G04 #@! TO.P,U4,3*
G04 #@! TO.N,/FETCH*
X269494000Y-129286000D03*
G04 #@! TO.P,U4,16*
G04 #@! TO.N,/GND*
X294894000Y-121666000D03*
G04 #@! TO.P,U4,2*
G04 #@! TO.N,/ION*
X266954000Y-129286000D03*
G04 #@! TO.P,U4,15*
G04 #@! TO.N,/GND*
X297434000Y-121666000D03*
D13*
G04 #@! TO.P,U4,1*
G04 #@! TO.N,/RUN*
X264414000Y-129286000D03*
G04 #@! TD*
G04 #@! TO.P,U3,1*
G04 #@! TO.N,Net-(SW1-Pad2)*
X221234000Y-88646000D03*
D12*
G04 #@! TO.P,U3,15*
G04 #@! TO.N,/GND*
X254254000Y-81026000D03*
G04 #@! TO.P,U3,2*
G04 #@! TO.N,Net-(SW2-Pad2)*
X223774000Y-88646000D03*
G04 #@! TO.P,U3,16*
G04 #@! TO.N,/GND*
X251714000Y-81026000D03*
G04 #@! TO.P,U3,3*
G04 #@! TO.N,Net-(SW3-Pad2)*
X226314000Y-88646000D03*
G04 #@! TO.P,U3,17*
G04 #@! TO.N,/GND*
X249174000Y-81026000D03*
G04 #@! TO.P,U3,4*
G04 #@! TO.N,Net-(SW4-Pad2)*
X228854000Y-88646000D03*
G04 #@! TO.P,U3,18*
G04 #@! TO.N,/VCC*
X246634000Y-81026000D03*
G04 #@! TO.P,U3,5*
G04 #@! TO.N,Net-(SW5-Pad2)*
X231394000Y-88646000D03*
G04 #@! TO.P,U3,19*
G04 #@! TO.N,Net-(U3-Pad19)*
X244094000Y-81026000D03*
G04 #@! TO.P,U3,6*
G04 #@! TO.N,Net-(SW6-Pad2)*
X233934000Y-88646000D03*
G04 #@! TO.P,U3,20*
G04 #@! TO.N,/SWINT*
X241554000Y-81026000D03*
G04 #@! TO.P,U3,7*
G04 #@! TO.N,Net-(SW7-Pad2)*
X236474000Y-88646000D03*
G04 #@! TO.P,U3,21*
G04 #@! TO.N,Net-(SW9-Pad2)*
X239014000Y-81026000D03*
G04 #@! TO.P,U3,8*
G04 #@! TO.N,Net-(SW8-Pad2)*
X239014000Y-88646000D03*
G04 #@! TO.P,U3,22*
G04 #@! TO.N,Net-(SW10-Pad2)*
X236474000Y-81026000D03*
G04 #@! TO.P,U3,9*
G04 #@! TO.N,/VCC*
X241554000Y-88646000D03*
G04 #@! TO.P,U3,23*
G04 #@! TO.N,Net-(SW11-Pad2)*
X233934000Y-81026000D03*
G04 #@! TO.P,U3,10*
G04 #@! TO.N,/GND*
X244094000Y-88646000D03*
G04 #@! TO.P,U3,24*
G04 #@! TO.N,Net-(SW12-Pad2)*
X231394000Y-81026000D03*
G04 #@! TO.P,U3,11*
G04 #@! TO.N,Net-(U3-Pad11)*
X246634000Y-88646000D03*
G04 #@! TO.P,U3,25*
G04 #@! TO.N,Net-(SW13-Pad2)*
X228854000Y-81026000D03*
G04 #@! TO.P,U3,12*
G04 #@! TO.N,/SCK*
X249174000Y-88646000D03*
G04 #@! TO.P,U3,26*
G04 #@! TO.N,Net-(SW14-Pad2)*
X226314000Y-81026000D03*
G04 #@! TO.P,U3,13*
G04 #@! TO.N,/SDA*
X251714000Y-88646000D03*
G04 #@! TO.P,U3,27*
G04 #@! TO.N,Net-(SW15-Pad2)*
X223774000Y-81026000D03*
G04 #@! TO.P,U3,14*
G04 #@! TO.N,Net-(U3-Pad14)*
X254254000Y-88646000D03*
G04 #@! TO.P,U3,28*
G04 #@! TO.N,Net-(SW16-Pad2)*
X221234000Y-81026000D03*
G04 #@! TD*
G04 #@! TO.P,U2,28*
G04 #@! TO.N,/NA8*
X59944000Y-22352000D03*
G04 #@! TO.P,U2,14*
G04 #@! TO.N,Net-(U2-Pad14)*
X92964000Y-29972000D03*
G04 #@! TO.P,U2,27*
G04 #@! TO.N,/NA9*
X62484000Y-22352000D03*
G04 #@! TO.P,U2,13*
G04 #@! TO.N,/SDA*
X90424000Y-29972000D03*
G04 #@! TO.P,U2,26*
G04 #@! TO.N,/NA10*
X65024000Y-22352000D03*
G04 #@! TO.P,U2,12*
G04 #@! TO.N,/SCK*
X87884000Y-29972000D03*
G04 #@! TO.P,U2,25*
G04 #@! TO.N,/NA11*
X67564000Y-22352000D03*
G04 #@! TO.P,U2,11*
G04 #@! TO.N,Net-(U2-Pad11)*
X85344000Y-29972000D03*
G04 #@! TO.P,U2,24*
G04 #@! TO.N,/NA12*
X70104000Y-22352000D03*
G04 #@! TO.P,U2,10*
G04 #@! TO.N,/GND*
X82804000Y-29972000D03*
G04 #@! TO.P,U2,23*
G04 #@! TO.N,/NA13*
X72644000Y-22352000D03*
G04 #@! TO.P,U2,9*
G04 #@! TO.N,/VCC*
X80264000Y-29972000D03*
G04 #@! TO.P,U2,22*
G04 #@! TO.N,/NA14*
X75184000Y-22352000D03*
G04 #@! TO.P,U2,8*
G04 #@! TO.N,/ND8*
X77724000Y-29972000D03*
G04 #@! TO.P,U2,21*
G04 #@! TO.N,/NA15*
X77724000Y-22352000D03*
G04 #@! TO.P,U2,7*
G04 #@! TO.N,/ND9*
X75184000Y-29972000D03*
G04 #@! TO.P,U2,20*
G04 #@! TO.N,Net-(U2-Pad20)*
X80264000Y-22352000D03*
G04 #@! TO.P,U2,6*
G04 #@! TO.N,/ND10*
X72644000Y-29972000D03*
G04 #@! TO.P,U2,19*
G04 #@! TO.N,Net-(U2-Pad19)*
X82804000Y-22352000D03*
G04 #@! TO.P,U2,5*
G04 #@! TO.N,/ND11*
X70104000Y-29972000D03*
G04 #@! TO.P,U2,18*
G04 #@! TO.N,/VCC*
X85344000Y-22352000D03*
G04 #@! TO.P,U2,4*
G04 #@! TO.N,/ND12*
X67564000Y-29972000D03*
G04 #@! TO.P,U2,17*
G04 #@! TO.N,/GND*
X87884000Y-22352000D03*
G04 #@! TO.P,U2,3*
G04 #@! TO.N,/ND13*
X65024000Y-29972000D03*
G04 #@! TO.P,U2,16*
G04 #@! TO.N,/VCC*
X90424000Y-22352000D03*
G04 #@! TO.P,U2,2*
G04 #@! TO.N,/ND14*
X62484000Y-29972000D03*
G04 #@! TO.P,U2,15*
G04 #@! TO.N,/GND*
X92964000Y-22352000D03*
D13*
G04 #@! TO.P,U2,1*
G04 #@! TO.N,/ND15*
X59944000Y-29972000D03*
G04 #@! TD*
G04 #@! TO.P,U1,1*
G04 #@! TO.N,/ND7*
X64770000Y-40640000D03*
D12*
G04 #@! TO.P,U1,15*
G04 #@! TO.N,/VCC*
X72390000Y-73660000D03*
G04 #@! TO.P,U1,2*
G04 #@! TO.N,/ND6*
X64770000Y-43180000D03*
G04 #@! TO.P,U1,16*
G04 #@! TO.N,/VCC*
X72390000Y-71120000D03*
G04 #@! TO.P,U1,3*
G04 #@! TO.N,/ND5*
X64770000Y-45720000D03*
G04 #@! TO.P,U1,17*
G04 #@! TO.N,/GND*
X72390000Y-68580000D03*
G04 #@! TO.P,U1,4*
G04 #@! TO.N,/ND4*
X64770000Y-48260000D03*
G04 #@! TO.P,U1,18*
G04 #@! TO.N,/VCC*
X72390000Y-66040000D03*
G04 #@! TO.P,U1,5*
G04 #@! TO.N,/ND3*
X64770000Y-50800000D03*
G04 #@! TO.P,U1,19*
G04 #@! TO.N,Net-(U1-Pad19)*
X72390000Y-63500000D03*
G04 #@! TO.P,U1,6*
G04 #@! TO.N,/ND2*
X64770000Y-53340000D03*
G04 #@! TO.P,U1,20*
G04 #@! TO.N,Net-(U1-Pad20)*
X72390000Y-60960000D03*
G04 #@! TO.P,U1,7*
G04 #@! TO.N,/ND1*
X64770000Y-55880000D03*
G04 #@! TO.P,U1,21*
G04 #@! TO.N,/NA7*
X72390000Y-58420000D03*
G04 #@! TO.P,U1,8*
G04 #@! TO.N,/ND0*
X64770000Y-58420000D03*
G04 #@! TO.P,U1,22*
G04 #@! TO.N,/NA6*
X72390000Y-55880000D03*
G04 #@! TO.P,U1,9*
G04 #@! TO.N,/VCC*
X64770000Y-60960000D03*
G04 #@! TO.P,U1,23*
G04 #@! TO.N,/NA5*
X72390000Y-53340000D03*
G04 #@! TO.P,U1,10*
G04 #@! TO.N,/GND*
X64770000Y-63500000D03*
G04 #@! TO.P,U1,24*
G04 #@! TO.N,/NA4*
X72390000Y-50800000D03*
G04 #@! TO.P,U1,11*
G04 #@! TO.N,Net-(U1-Pad11)*
X64770000Y-66040000D03*
G04 #@! TO.P,U1,25*
G04 #@! TO.N,/NA3*
X72390000Y-48260000D03*
G04 #@! TO.P,U1,12*
G04 #@! TO.N,/SCK*
X64770000Y-68580000D03*
G04 #@! TO.P,U1,26*
G04 #@! TO.N,/NA2*
X72390000Y-45720000D03*
G04 #@! TO.P,U1,13*
G04 #@! TO.N,/SDA*
X64770000Y-71120000D03*
G04 #@! TO.P,U1,27*
G04 #@! TO.N,/NA1*
X72390000Y-43180000D03*
G04 #@! TO.P,U1,14*
G04 #@! TO.N,Net-(U1-Pad14)*
X64770000Y-73660000D03*
G04 #@! TO.P,U1,28*
G04 #@! TO.N,Net-(U1-Pad28)*
X72390000Y-40640000D03*
G04 #@! TD*
G04 #@! TO.P,U17,8*
G04 #@! TO.N,/VCC*
X304292000Y-81026000D03*
G04 #@! TO.P,U17,4*
G04 #@! TO.N,/GND*
X296672000Y-88646000D03*
G04 #@! TO.P,U17,7*
X304292000Y-83566000D03*
G04 #@! TO.P,U17,3*
G04 #@! TO.N,/VCC*
X296672000Y-86106000D03*
G04 #@! TO.P,U17,6*
G04 #@! TO.N,/SCK*
X304292000Y-86106000D03*
G04 #@! TO.P,U17,2*
G04 #@! TO.N,/GND*
X296672000Y-83566000D03*
G04 #@! TO.P,U17,5*
G04 #@! TO.N,/SDA*
X304292000Y-88646000D03*
D13*
G04 #@! TO.P,U17,1*
G04 #@! TO.N,/VCC*
X296672000Y-81026000D03*
G04 #@! TD*
G04 #@! TO.P,U19,1*
G04 #@! TO.N,/VCC*
X318008000Y-81026000D03*
D12*
G04 #@! TO.P,U19,5*
G04 #@! TO.N,/SDA*
X325628000Y-88646000D03*
G04 #@! TO.P,U19,2*
G04 #@! TO.N,/VCC*
X318008000Y-83566000D03*
G04 #@! TO.P,U19,6*
G04 #@! TO.N,/SCK*
X325628000Y-86106000D03*
G04 #@! TO.P,U19,3*
G04 #@! TO.N,/VCC*
X318008000Y-86106000D03*
G04 #@! TO.P,U19,7*
G04 #@! TO.N,/GND*
X325628000Y-83566000D03*
G04 #@! TO.P,U19,4*
X318008000Y-88646000D03*
G04 #@! TO.P,U19,8*
G04 #@! TO.N,/VCC*
X325628000Y-81026000D03*
G04 #@! TD*
D14*
G04 #@! TO.P,R44,2*
G04 #@! TO.N,Net-(D44-Pad1)*
X247904000Y-100330000D03*
D15*
G04 #@! TO.P,R44,1*
G04 #@! TO.N,Net-(J3-Pad6)*
X247904000Y-107950000D03*
G04 #@! TD*
G04 #@! TO.P,R42,1*
G04 #@! TO.N,Net-(J3-Pad8)*
X180086000Y-108458000D03*
D14*
G04 #@! TO.P,R42,2*
G04 #@! TO.N,Net-(D42-Pad1)*
X180086000Y-100838000D03*
G04 #@! TD*
D19*
G04 #@! TO.P,PAD3,1*
G04 #@! TO.N,/GND*
X242316000Y-19050000D03*
G04 #@! TD*
G04 #@! TO.P,PAD4,1*
G04 #@! TO.N,/GND*
X242316000Y-113030000D03*
G04 #@! TD*
D12*
G04 #@! TO.P,U5,16*
G04 #@! TO.N,/VCC*
X361950000Y-19812000D03*
G04 #@! TO.P,U5,8*
G04 #@! TO.N,/GND*
X354330000Y-37592000D03*
G04 #@! TO.P,U5,15*
X361950000Y-22352000D03*
G04 #@! TO.P,U5,7*
G04 #@! TO.N,/SEL0*
X354330000Y-35052000D03*
G04 #@! TO.P,U5,14*
G04 #@! TO.N,/D0*
X361950000Y-24892000D03*
G04 #@! TO.P,U5,6*
G04 #@! TO.N,/ND12*
X354330000Y-32512000D03*
G04 #@! TO.P,U5,13*
G04 #@! TO.N,/D1*
X361950000Y-27432000D03*
G04 #@! TO.P,U5,5*
G04 #@! TO.N,/ND13*
X354330000Y-29972000D03*
G04 #@! TO.P,U5,12*
G04 #@! TO.N,/D2*
X361950000Y-29972000D03*
G04 #@! TO.P,U5,4*
G04 #@! TO.N,/ND14*
X354330000Y-27432000D03*
G04 #@! TO.P,U5,11*
G04 #@! TO.N,/D3*
X361950000Y-32512000D03*
G04 #@! TO.P,U5,3*
G04 #@! TO.N,/ND15*
X354330000Y-24892000D03*
G04 #@! TO.P,U5,10*
G04 #@! TO.N,/GND*
X361950000Y-35052000D03*
G04 #@! TO.P,U5,2*
G04 #@! TO.N,/CONTDATA*
X354330000Y-22352000D03*
G04 #@! TO.P,U5,9*
G04 #@! TO.N,/GND*
X361950000Y-37592000D03*
D13*
G04 #@! TO.P,U5,1*
G04 #@! TO.N,/CONTDATA*
X354330000Y-19812000D03*
G04 #@! TD*
G04 #@! TO.P,U6,1*
G04 #@! TO.N,/CONTDATA*
X305308000Y-19812000D03*
D12*
G04 #@! TO.P,U6,9*
G04 #@! TO.N,/GND*
X312928000Y-37592000D03*
G04 #@! TO.P,U6,2*
G04 #@! TO.N,/CONTDATA*
X305308000Y-22352000D03*
G04 #@! TO.P,U6,10*
G04 #@! TO.N,/GND*
X312928000Y-35052000D03*
G04 #@! TO.P,U6,3*
G04 #@! TO.N,/ND11*
X305308000Y-24892000D03*
G04 #@! TO.P,U6,11*
G04 #@! TO.N,/D3*
X312928000Y-32512000D03*
G04 #@! TO.P,U6,4*
G04 #@! TO.N,/ND10*
X305308000Y-27432000D03*
G04 #@! TO.P,U6,12*
G04 #@! TO.N,/D2*
X312928000Y-29972000D03*
G04 #@! TO.P,U6,5*
G04 #@! TO.N,/ND9*
X305308000Y-29972000D03*
G04 #@! TO.P,U6,13*
G04 #@! TO.N,/D1*
X312928000Y-27432000D03*
G04 #@! TO.P,U6,6*
G04 #@! TO.N,/ND8*
X305308000Y-32512000D03*
G04 #@! TO.P,U6,14*
G04 #@! TO.N,/D0*
X312928000Y-24892000D03*
G04 #@! TO.P,U6,7*
G04 #@! TO.N,/SEL1*
X305308000Y-35052000D03*
G04 #@! TO.P,U6,15*
G04 #@! TO.N,/GND*
X312928000Y-22352000D03*
G04 #@! TO.P,U6,8*
X305308000Y-37592000D03*
G04 #@! TO.P,U6,16*
G04 #@! TO.N,/VCC*
X312928000Y-19812000D03*
G04 #@! TD*
D13*
G04 #@! TO.P,U9,1*
G04 #@! TO.N,/CONTDATA*
X207010000Y-20066000D03*
D12*
G04 #@! TO.P,U9,9*
G04 #@! TO.N,/GND*
X214630000Y-37846000D03*
G04 #@! TO.P,U9,2*
G04 #@! TO.N,/CONTDATA*
X207010000Y-22606000D03*
G04 #@! TO.P,U9,10*
G04 #@! TO.N,/GND*
X214630000Y-35306000D03*
G04 #@! TO.P,U9,3*
G04 #@! TO.N,/ND7*
X207010000Y-25146000D03*
G04 #@! TO.P,U9,11*
G04 #@! TO.N,/D3*
X214630000Y-32766000D03*
G04 #@! TO.P,U9,4*
G04 #@! TO.N,/ND6*
X207010000Y-27686000D03*
G04 #@! TO.P,U9,12*
G04 #@! TO.N,/D2*
X214630000Y-30226000D03*
G04 #@! TO.P,U9,5*
G04 #@! TO.N,/ND5*
X207010000Y-30226000D03*
G04 #@! TO.P,U9,13*
G04 #@! TO.N,/D1*
X214630000Y-27686000D03*
G04 #@! TO.P,U9,6*
G04 #@! TO.N,/ND4*
X207010000Y-32766000D03*
G04 #@! TO.P,U9,14*
G04 #@! TO.N,/D0*
X214630000Y-25146000D03*
G04 #@! TO.P,U9,7*
G04 #@! TO.N,/SEL2*
X207010000Y-35306000D03*
G04 #@! TO.P,U9,15*
G04 #@! TO.N,/GND*
X214630000Y-22606000D03*
G04 #@! TO.P,U9,8*
X207010000Y-37846000D03*
G04 #@! TO.P,U9,16*
G04 #@! TO.N,/VCC*
X214630000Y-20066000D03*
G04 #@! TD*
G04 #@! TO.P,U11,16*
G04 #@! TO.N,/VCC*
X263906000Y-19812000D03*
G04 #@! TO.P,U11,8*
G04 #@! TO.N,/GND*
X256286000Y-37592000D03*
G04 #@! TO.P,U11,15*
X263906000Y-22352000D03*
G04 #@! TO.P,U11,7*
G04 #@! TO.N,/SEL4*
X256286000Y-35052000D03*
G04 #@! TO.P,U11,14*
G04 #@! TO.N,/D0*
X263906000Y-24892000D03*
G04 #@! TO.P,U11,6*
G04 #@! TO.N,/ND4*
X256286000Y-32512000D03*
G04 #@! TO.P,U11,13*
G04 #@! TO.N,/D1*
X263906000Y-27432000D03*
G04 #@! TO.P,U11,5*
G04 #@! TO.N,/ND5*
X256286000Y-29972000D03*
G04 #@! TO.P,U11,12*
G04 #@! TO.N,/D2*
X263906000Y-29972000D03*
G04 #@! TO.P,U11,4*
G04 #@! TO.N,/ND6*
X256286000Y-27432000D03*
G04 #@! TO.P,U11,11*
G04 #@! TO.N,/D3*
X263906000Y-32512000D03*
G04 #@! TO.P,U11,3*
G04 #@! TO.N,/ND7*
X256286000Y-24892000D03*
G04 #@! TO.P,U11,10*
G04 #@! TO.N,/GND*
X263906000Y-35052000D03*
G04 #@! TO.P,U11,2*
G04 #@! TO.N,/CONINST*
X256286000Y-22352000D03*
G04 #@! TO.P,U11,9*
G04 #@! TO.N,/GND*
X263906000Y-37592000D03*
D13*
G04 #@! TO.P,U11,1*
G04 #@! TO.N,/CONINST*
X256286000Y-19812000D03*
G04 #@! TD*
D12*
G04 #@! TO.P,U12,16*
G04 #@! TO.N,/VCC*
X114046000Y-20066000D03*
G04 #@! TO.P,U12,8*
G04 #@! TO.N,/GND*
X106426000Y-37846000D03*
G04 #@! TO.P,U12,15*
X114046000Y-22606000D03*
G04 #@! TO.P,U12,7*
G04 #@! TO.N,/SEL5*
X106426000Y-35306000D03*
G04 #@! TO.P,U12,14*
G04 #@! TO.N,/D0*
X114046000Y-25146000D03*
G04 #@! TO.P,U12,6*
G04 #@! TO.N,/ND0*
X106426000Y-32766000D03*
G04 #@! TO.P,U12,13*
G04 #@! TO.N,/D1*
X114046000Y-27686000D03*
G04 #@! TO.P,U12,5*
G04 #@! TO.N,/ND1*
X106426000Y-30226000D03*
G04 #@! TO.P,U12,12*
G04 #@! TO.N,/D2*
X114046000Y-30226000D03*
G04 #@! TO.P,U12,4*
G04 #@! TO.N,/ND2*
X106426000Y-27686000D03*
G04 #@! TO.P,U12,11*
G04 #@! TO.N,/D3*
X114046000Y-32766000D03*
G04 #@! TO.P,U12,3*
G04 #@! TO.N,/ND3*
X106426000Y-25146000D03*
G04 #@! TO.P,U12,10*
G04 #@! TO.N,/GND*
X114046000Y-35306000D03*
G04 #@! TO.P,U12,2*
G04 #@! TO.N,/CONINST*
X106426000Y-22606000D03*
G04 #@! TO.P,U12,9*
G04 #@! TO.N,/GND*
X114046000Y-37846000D03*
D13*
G04 #@! TO.P,U12,1*
G04 #@! TO.N,/CONINST*
X106426000Y-20066000D03*
G04 #@! TD*
G04 #@! TO.P,U13,1*
G04 #@! TO.N,/GND*
X80772000Y-70358000D03*
D12*
G04 #@! TO.P,U13,9*
X88392000Y-88138000D03*
G04 #@! TO.P,U13,2*
X80772000Y-72898000D03*
G04 #@! TO.P,U13,10*
X88392000Y-85598000D03*
G04 #@! TO.P,U13,3*
G04 #@! TO.N,/ISTP*
X80772000Y-75438000D03*
G04 #@! TO.P,U13,11*
G04 #@! TO.N,/D3*
X88392000Y-83058000D03*
G04 #@! TO.P,U13,4*
G04 #@! TO.N,/PL*
X80772000Y-77978000D03*
G04 #@! TO.P,U13,12*
G04 #@! TO.N,/D2*
X88392000Y-80518000D03*
G04 #@! TO.P,U13,5*
G04 #@! TO.N,/RST*
X80772000Y-80518000D03*
G04 #@! TO.P,U13,13*
G04 #@! TO.N,/D1*
X88392000Y-77978000D03*
G04 #@! TO.P,U13,6*
G04 #@! TO.N,Net-(U13-Pad6)*
X80772000Y-83058000D03*
G04 #@! TO.P,U13,14*
G04 #@! TO.N,/D0*
X88392000Y-75438000D03*
G04 #@! TO.P,U13,7*
G04 #@! TO.N,/SEL6*
X80772000Y-85598000D03*
G04 #@! TO.P,U13,15*
G04 #@! TO.N,/GND*
X88392000Y-72898000D03*
G04 #@! TO.P,U13,8*
X80772000Y-88138000D03*
G04 #@! TO.P,U13,16*
G04 #@! TO.N,/VCC*
X88392000Y-70358000D03*
G04 #@! TD*
G04 #@! TO.P,U14,16*
G04 #@! TO.N,/VCC*
X57404000Y-70612000D03*
G04 #@! TO.P,U14,8*
G04 #@! TO.N,/GND*
X49784000Y-88392000D03*
G04 #@! TO.P,U14,15*
X57404000Y-73152000D03*
G04 #@! TO.P,U14,7*
G04 #@! TO.N,/SEL7*
X49784000Y-85852000D03*
G04 #@! TO.P,U14,14*
G04 #@! TO.N,/D0*
X57404000Y-75692000D03*
G04 #@! TO.P,U14,6*
G04 #@! TO.N,/STOP*
X49784000Y-83312000D03*
G04 #@! TO.P,U14,13*
G04 #@! TO.N,/D1*
X57404000Y-78232000D03*
G04 #@! TO.P,U14,5*
G04 #@! TO.N,/CONREQ*
X49784000Y-80772000D03*
G04 #@! TO.P,U14,12*
G04 #@! TO.N,/D2*
X57404000Y-80772000D03*
G04 #@! TO.P,U14,4*
G04 #@! TO.N,/CON+*
X49784000Y-78232000D03*
G04 #@! TO.P,U14,11*
G04 #@! TO.N,/D3*
X57404000Y-83312000D03*
G04 #@! TO.P,U14,3*
G04 #@! TO.N,/MSTP*
X49784000Y-75692000D03*
G04 #@! TO.P,U14,10*
G04 #@! TO.N,/GND*
X57404000Y-85852000D03*
G04 #@! TO.P,U14,2*
X49784000Y-73152000D03*
G04 #@! TO.P,U14,9*
X57404000Y-88392000D03*
D13*
G04 #@! TO.P,U14,1*
X49784000Y-70612000D03*
G04 #@! TD*
D12*
G04 #@! TO.P,U16,16*
G04 #@! TO.N,/VCC*
X355854000Y-75565000D03*
G04 #@! TO.P,U16,8*
G04 #@! TO.N,/GND*
X348234000Y-93345000D03*
G04 #@! TO.P,U16,15*
G04 #@! TO.N,/A0*
X355854000Y-78105000D03*
G04 #@! TO.P,U16,7*
G04 #@! TO.N,/SEL6*
X348234000Y-90805000D03*
G04 #@! TO.P,U16,14*
G04 #@! TO.N,/A1*
X355854000Y-80645000D03*
G04 #@! TO.P,U16,6*
G04 #@! TO.N,/SEL5*
X348234000Y-88265000D03*
G04 #@! TO.P,U16,13*
G04 #@! TO.N,/A2*
X355854000Y-83185000D03*
G04 #@! TO.P,U16,5*
G04 #@! TO.N,/SEL4*
X348234000Y-85725000D03*
G04 #@! TO.P,U16,12*
G04 #@! TO.N,/SELR1*
X355854000Y-85725000D03*
G04 #@! TO.P,U16,4*
G04 #@! TO.N,/SEL3*
X348234000Y-83185000D03*
G04 #@! TO.P,U16,11*
G04 #@! TO.N,Net-(U16-Pad11)*
X355854000Y-88265000D03*
G04 #@! TO.P,U16,3*
G04 #@! TO.N,/SEL2*
X348234000Y-80645000D03*
G04 #@! TO.P,U16,10*
G04 #@! TO.N,Net-(U16-Pad10)*
X355854000Y-90805000D03*
G04 #@! TO.P,U16,2*
G04 #@! TO.N,/SEL1*
X348234000Y-78105000D03*
G04 #@! TO.P,U16,9*
G04 #@! TO.N,/SEL7*
X355854000Y-93345000D03*
D13*
G04 #@! TO.P,U16,1*
G04 #@! TO.N,/SEL0*
X348234000Y-75565000D03*
G04 #@! TD*
D12*
G04 #@! TO.P,U10,16*
G04 #@! TO.N,/VCC*
X164338000Y-19812000D03*
G04 #@! TO.P,U10,8*
G04 #@! TO.N,/GND*
X156718000Y-37592000D03*
G04 #@! TO.P,U10,15*
X164338000Y-22352000D03*
G04 #@! TO.P,U10,7*
G04 #@! TO.N,/SEL3*
X156718000Y-35052000D03*
G04 #@! TO.P,U10,14*
G04 #@! TO.N,/D0*
X164338000Y-24892000D03*
G04 #@! TO.P,U10,6*
G04 #@! TO.N,/ND0*
X156718000Y-32512000D03*
G04 #@! TO.P,U10,13*
G04 #@! TO.N,/D1*
X164338000Y-27432000D03*
G04 #@! TO.P,U10,5*
G04 #@! TO.N,/ND1*
X156718000Y-29972000D03*
G04 #@! TO.P,U10,12*
G04 #@! TO.N,/D2*
X164338000Y-29972000D03*
G04 #@! TO.P,U10,4*
G04 #@! TO.N,/ND2*
X156718000Y-27432000D03*
G04 #@! TO.P,U10,11*
G04 #@! TO.N,/D3*
X164338000Y-32512000D03*
G04 #@! TO.P,U10,3*
G04 #@! TO.N,/ND3*
X156718000Y-24892000D03*
G04 #@! TO.P,U10,10*
G04 #@! TO.N,/GND*
X164338000Y-35052000D03*
G04 #@! TO.P,U10,2*
G04 #@! TO.N,/CONTDATA*
X156718000Y-22352000D03*
G04 #@! TO.P,U10,9*
G04 #@! TO.N,/GND*
X164338000Y-37592000D03*
D13*
G04 #@! TO.P,U10,1*
G04 #@! TO.N,/CONTDATA*
X156718000Y-19812000D03*
G04 #@! TD*
D14*
G04 #@! TO.P,R53,2*
G04 #@! TO.N,Net-(J3-Pad7)*
X69596000Y-107696000D03*
D15*
G04 #@! TO.P,R53,1*
G04 #@! TO.N,Net-(R53-Pad1)*
X69596000Y-100076000D03*
G04 #@! TD*
G04 #@! TO.P,R45,1*
G04 #@! TO.N,Net-(J3-Pad6)*
X279654000Y-108204000D03*
D14*
G04 #@! TO.P,R45,2*
G04 #@! TO.N,Net-(D45-Pad1)*
X279654000Y-100584000D03*
G04 #@! TD*
D15*
G04 #@! TO.P,R54,1*
G04 #@! TO.N,Net-(R54-Pad1)*
X74676000Y-100076000D03*
D14*
G04 #@! TO.P,R54,2*
G04 #@! TO.N,Net-(J3-Pad11)*
X74676000Y-107696000D03*
G04 #@! TD*
G04 #@! TO.P,R46,2*
G04 #@! TO.N,Net-(D46-Pad1)*
X315214000Y-100330000D03*
D15*
G04 #@! TO.P,R46,1*
G04 #@! TO.N,Net-(J3-Pad6)*
X315214000Y-107950000D03*
G04 #@! TD*
G04 #@! TO.P,R47,1*
G04 #@! TO.N,Net-(J3-Pad6)*
X349250000Y-107950000D03*
D14*
G04 #@! TO.P,R47,2*
G04 #@! TO.N,Net-(D47-Pad1)*
X349250000Y-100330000D03*
G04 #@! TD*
G04 #@! TO.P,R48,2*
G04 #@! TO.N,Net-(J3-Pad2)*
X217932000Y-97536000D03*
D15*
G04 #@! TO.P,R48,1*
G04 #@! TO.N,Net-(R48-Pad1)*
X210312000Y-97536000D03*
G04 #@! TD*
G04 #@! TO.P,R49,1*
G04 #@! TO.N,Net-(R49-Pad1)*
X209550000Y-100838000D03*
D14*
G04 #@! TO.P,R49,2*
G04 #@! TO.N,Net-(J3-Pad18)*
X209550000Y-108458000D03*
G04 #@! TD*
G04 #@! TO.P,R50,2*
G04 #@! TO.N,Net-(J3-Pad16)*
X198628000Y-108458000D03*
D15*
G04 #@! TO.P,R50,1*
G04 #@! TO.N,Net-(R50-Pad1)*
X198628000Y-100838000D03*
G04 #@! TD*
G04 #@! TO.P,R51,1*
G04 #@! TO.N,Net-(R51-Pad1)*
X204216000Y-100838000D03*
D14*
G04 #@! TO.P,R51,2*
G04 #@! TO.N,Net-(J3-Pad4)*
X204216000Y-108458000D03*
G04 #@! TD*
G04 #@! TO.P,R52,2*
G04 #@! TO.N,Net-(J3-Pad3)*
X64516000Y-107696000D03*
D15*
G04 #@! TO.P,R52,1*
G04 #@! TO.N,Net-(R52-Pad1)*
X64516000Y-100076000D03*
G04 #@! TD*
G04 #@! TO.P,R43,1*
G04 #@! TO.N,Net-(J3-Pad6)*
X214884000Y-108204000D03*
D14*
G04 #@! TO.P,R43,2*
G04 #@! TO.N,Net-(D43-Pad1)*
X214884000Y-100584000D03*
G04 #@! TD*
G04 #@! TO.P,R19,2*
G04 #@! TO.N,Net-(D19-Pad2)*
X315849000Y-46863000D03*
D15*
G04 #@! TO.P,R19,1*
G04 #@! TO.N,/VCC*
X315849000Y-54483000D03*
G04 #@! TD*
G04 #@! TO.P,R1,1*
G04 #@! TO.N,/VCC*
X344043000Y-54483000D03*
D14*
G04 #@! TO.P,R1,2*
G04 #@! TO.N,Net-(D1-Pad2)*
X344043000Y-46863000D03*
G04 #@! TD*
G04 #@! TO.P,R2,2*
G04 #@! TO.N,Net-(D2-Pad2)*
X337820000Y-46863000D03*
D15*
G04 #@! TO.P,R2,1*
G04 #@! TO.N,/VCC*
X337820000Y-54483000D03*
G04 #@! TD*
G04 #@! TO.P,R3,1*
G04 #@! TO.N,/VCC*
X323977000Y-54483000D03*
D14*
G04 #@! TO.P,R3,2*
G04 #@! TO.N,Net-(D3-Pad2)*
X323977000Y-46863000D03*
G04 #@! TD*
D15*
G04 #@! TO.P,R31,1*
G04 #@! TO.N,/VCC*
X116713000Y-54483000D03*
D14*
G04 #@! TO.P,R31,2*
G04 #@! TO.N,Net-(D31-Pad2)*
X116713000Y-46863000D03*
G04 #@! TD*
D15*
G04 #@! TO.P,R5,1*
G04 #@! TO.N,/VCC*
X288417000Y-54483000D03*
D14*
G04 #@! TO.P,R5,2*
G04 #@! TO.N,Net-(D5-Pad2)*
X288417000Y-46863000D03*
G04 #@! TD*
G04 #@! TO.P,R6,2*
G04 #@! TO.N,Net-(D6-Pad2)*
X274320000Y-46863000D03*
D15*
G04 #@! TO.P,R6,1*
G04 #@! TO.N,/VCC*
X274320000Y-54483000D03*
G04 #@! TD*
G04 #@! TO.P,R7,1*
G04 #@! TO.N,/VCC*
X253873000Y-54483000D03*
D14*
G04 #@! TO.P,R7,2*
G04 #@! TO.N,Net-(D7-Pad2)*
X253873000Y-46863000D03*
G04 #@! TD*
G04 #@! TO.P,R8,2*
G04 #@! TO.N,Net-(D8-Pad2)*
X239014000Y-46863000D03*
D15*
G04 #@! TO.P,R8,1*
G04 #@! TO.N,/VCC*
X239014000Y-54483000D03*
G04 #@! TD*
G04 #@! TO.P,R4,1*
G04 #@! TO.N,/VCC*
X302006000Y-54483000D03*
D14*
G04 #@! TO.P,R4,2*
G04 #@! TO.N,Net-(D4-Pad2)*
X302006000Y-46863000D03*
G04 #@! TD*
D15*
G04 #@! TO.P,R40,1*
G04 #@! TO.N,Net-(J3-Pad8)*
X111506000Y-107950000D03*
D14*
G04 #@! TO.P,R40,2*
G04 #@! TO.N,Net-(D40-Pad1)*
X111506000Y-100330000D03*
G04 #@! TD*
G04 #@! TO.P,R9,2*
G04 #@! TO.N,Net-(D9-Pad2)*
X224790000Y-46863000D03*
D15*
G04 #@! TO.P,R9,1*
G04 #@! TO.N,/VCC*
X224790000Y-54483000D03*
G04 #@! TD*
G04 #@! TO.P,R17,1*
G04 #@! TO.N,/VCC*
X351790000Y-54483000D03*
D14*
G04 #@! TO.P,R17,2*
G04 #@! TO.N,Net-(D17-Pad2)*
X351790000Y-46863000D03*
G04 #@! TD*
G04 #@! TO.P,R39,2*
G04 #@! TO.N,Net-(D39-Pad1)*
X78486000Y-100330000D03*
D15*
G04 #@! TO.P,R39,1*
G04 #@! TO.N,Net-(J3-Pad8)*
X78486000Y-107950000D03*
G04 #@! TD*
G04 #@! TO.P,R38,1*
G04 #@! TO.N,Net-(J3-Pad8)*
X44577000Y-105918000D03*
D14*
G04 #@! TO.P,R38,2*
G04 #@! TO.N,Net-(D38-Pad1)*
X44577000Y-98298000D03*
G04 #@! TD*
G04 #@! TO.P,R36,2*
G04 #@! TO.N,Net-(D36-Pad2)*
X382778000Y-46863000D03*
D15*
G04 #@! TO.P,R36,1*
G04 #@! TO.N,/VCC*
X382778000Y-54483000D03*
G04 #@! TD*
G04 #@! TO.P,R18,1*
G04 #@! TO.N,/VCC*
X329819000Y-54483000D03*
D14*
G04 #@! TO.P,R18,2*
G04 #@! TO.N,Net-(D18-Pad2)*
X329819000Y-46863000D03*
G04 #@! TD*
D15*
G04 #@! TO.P,R16,1*
G04 #@! TO.N,/VCC*
X87630000Y-37211000D03*
D14*
G04 #@! TO.P,R16,2*
G04 #@! TO.N,Net-(D16-Pad2)*
X95250000Y-37211000D03*
G04 #@! TD*
G04 #@! TO.P,R15,2*
G04 #@! TO.N,Net-(D15-Pad2)*
X124460000Y-46863000D03*
D15*
G04 #@! TO.P,R15,1*
G04 #@! TO.N,/VCC*
X124460000Y-54483000D03*
G04 #@! TD*
G04 #@! TO.P,R14,1*
G04 #@! TO.N,/VCC*
X140081000Y-54483000D03*
D14*
G04 #@! TO.P,R14,2*
G04 #@! TO.N,Net-(D14-Pad2)*
X140081000Y-46863000D03*
G04 #@! TD*
G04 #@! TO.P,R13,2*
G04 #@! TO.N,Net-(D13-Pad2)*
X154686000Y-46863000D03*
D15*
G04 #@! TO.P,R13,1*
G04 #@! TO.N,/VCC*
X154686000Y-54483000D03*
G04 #@! TD*
D14*
G04 #@! TO.P,R12,2*
G04 #@! TO.N,Net-(D12-Pad2)*
X174371000Y-46863000D03*
D15*
G04 #@! TO.P,R12,1*
G04 #@! TO.N,/VCC*
X174371000Y-54483000D03*
G04 #@! TD*
G04 #@! TO.P,R11,1*
G04 #@! TO.N,/VCC*
X189484000Y-54483000D03*
D14*
G04 #@! TO.P,R11,2*
G04 #@! TO.N,Net-(D11-Pad2)*
X189484000Y-46863000D03*
G04 #@! TD*
G04 #@! TO.P,R10,2*
G04 #@! TO.N,Net-(D10-Pad2)*
X196088000Y-46863000D03*
D15*
G04 #@! TO.P,R10,1*
G04 #@! TO.N,/VCC*
X196088000Y-54483000D03*
G04 #@! TD*
G04 #@! TO.P,R20,1*
G04 #@! TO.N,/VCC*
X294259000Y-54483000D03*
D14*
G04 #@! TO.P,R20,2*
G04 #@! TO.N,Net-(D20-Pad2)*
X294259000Y-46863000D03*
G04 #@! TD*
G04 #@! TO.P,R35,2*
G04 #@! TO.N,Net-(D35-Pad2)*
X362204000Y-46736000D03*
D15*
G04 #@! TO.P,R35,1*
G04 #@! TO.N,/VCC*
X362204000Y-54356000D03*
G04 #@! TD*
G04 #@! TO.P,R34,1*
G04 #@! TO.N,/VCC*
X373380000Y-54483000D03*
D14*
G04 #@! TO.P,R34,2*
G04 #@! TO.N,Net-(D34-Pad2)*
X373380000Y-46863000D03*
G04 #@! TD*
G04 #@! TO.P,R33,2*
G04 #@! TO.N,Net-(D33-Pad2)*
X392811000Y-45085000D03*
D15*
G04 #@! TO.P,R33,1*
G04 #@! TO.N,/VCC*
X392811000Y-52705000D03*
G04 #@! TD*
D14*
G04 #@! TO.P,R32,2*
G04 #@! TO.N,Net-(D32-Pad2)*
X87757000Y-41148000D03*
D15*
G04 #@! TO.P,R32,1*
G04 #@! TO.N,/VCC*
X95377000Y-41148000D03*
G04 #@! TD*
G04 #@! TO.P,R30,1*
G04 #@! TO.N,/VCC*
X132207000Y-54483000D03*
D14*
G04 #@! TO.P,R30,2*
G04 #@! TO.N,Net-(D30-Pad2)*
X132207000Y-46863000D03*
G04 #@! TD*
G04 #@! TO.P,R29,2*
G04 #@! TO.N,Net-(D29-Pad2)*
X146177000Y-46863000D03*
D15*
G04 #@! TO.P,R29,1*
G04 #@! TO.N,/VCC*
X146177000Y-54483000D03*
G04 #@! TD*
D14*
G04 #@! TO.P,R28,2*
G04 #@! TO.N,Net-(D28-Pad2)*
X166497000Y-46863000D03*
D15*
G04 #@! TO.P,R28,1*
G04 #@! TO.N,/VCC*
X166497000Y-54483000D03*
G04 #@! TD*
G04 #@! TO.P,R27,1*
G04 #@! TO.N,/VCC*
X180721000Y-54483000D03*
D14*
G04 #@! TO.P,R27,2*
G04 #@! TO.N,Net-(D27-Pad2)*
X180721000Y-46863000D03*
G04 #@! TD*
G04 #@! TO.P,R26,2*
G04 #@! TO.N,Net-(D26-Pad2)*
X204724000Y-46863000D03*
D15*
G04 #@! TO.P,R26,1*
G04 #@! TO.N,/VCC*
X204724000Y-54483000D03*
G04 #@! TD*
G04 #@! TO.P,R41,1*
G04 #@! TO.N,Net-(J3-Pad8)*
X145796000Y-108712000D03*
D14*
G04 #@! TO.P,R41,2*
G04 #@! TO.N,Net-(D41-Pad1)*
X145796000Y-101092000D03*
G04 #@! TD*
G04 #@! TO.P,R24,2*
G04 #@! TO.N,Net-(D24-Pad2)*
X230632000Y-46863000D03*
D15*
G04 #@! TO.P,R24,1*
G04 #@! TO.N,/VCC*
X230632000Y-54483000D03*
G04 #@! TD*
G04 #@! TO.P,R23,1*
G04 #@! TO.N,/VCC*
X245872000Y-54483000D03*
D14*
G04 #@! TO.P,R23,2*
G04 #@! TO.N,Net-(D23-Pad2)*
X245872000Y-46863000D03*
G04 #@! TD*
G04 #@! TO.P,R22,2*
G04 #@! TO.N,Net-(D22-Pad2)*
X266319000Y-46863000D03*
D15*
G04 #@! TO.P,R22,1*
G04 #@! TO.N,/VCC*
X266319000Y-54483000D03*
G04 #@! TD*
G04 #@! TO.P,R21,1*
G04 #@! TO.N,/VCC*
X280543000Y-54483000D03*
D14*
G04 #@! TO.P,R21,2*
G04 #@! TO.N,Net-(D21-Pad2)*
X280543000Y-46863000D03*
G04 #@! TD*
G04 #@! TO.P,R25,2*
G04 #@! TO.N,Net-(D25-Pad2)*
X216916000Y-46863000D03*
D15*
G04 #@! TO.P,R25,1*
G04 #@! TO.N,/VCC*
X216916000Y-54483000D03*
G04 #@! TD*
G04 #@! TO.P,R37,1*
G04 #@! TO.N,/VCC*
X398653000Y-52832000D03*
D14*
G04 #@! TO.P,R37,2*
G04 #@! TO.N,Net-(D37-Pad2)*
X398653000Y-45212000D03*
G04 #@! TD*
D24*
G04 #@! TO.P,SW16,1*
G04 #@! TO.N,/GND*
X101346000Y-68300000D03*
G04 #@! TO.P,SW16,2*
G04 #@! TO.N,Net-(SW16-Pad2)*
X101346000Y-63500000D03*
G04 #@! TO.P,SW16,3*
G04 #@! TO.N,N/C*
X101346000Y-58700000D03*
G04 #@! TD*
G04 #@! TO.P,SW5,3*
G04 #@! TO.N,N/C*
X284480000Y-58700000D03*
G04 #@! TO.P,SW5,2*
G04 #@! TO.N,Net-(SW5-Pad2)*
X284480000Y-63500000D03*
G04 #@! TO.P,SW5,1*
G04 #@! TO.N,/GND*
X284480000Y-68300000D03*
G04 #@! TD*
G04 #@! TO.P,SW1,3*
G04 #@! TO.N,N/C*
X347980000Y-58700000D03*
G04 #@! TO.P,SW1,2*
G04 #@! TO.N,Net-(SW1-Pad2)*
X347980000Y-63500000D03*
G04 #@! TO.P,SW1,1*
G04 #@! TO.N,/GND*
X347980000Y-68300000D03*
G04 #@! TD*
G04 #@! TO.P,SW3,3*
G04 #@! TO.N,N/C*
X320040000Y-58700000D03*
G04 #@! TO.P,SW3,2*
G04 #@! TO.N,Net-(SW3-Pad2)*
X320040000Y-63500000D03*
G04 #@! TO.P,SW3,1*
G04 #@! TO.N,/GND*
X320040000Y-68300000D03*
G04 #@! TD*
G04 #@! TO.P,SW13,1*
G04 #@! TO.N,/GND*
X150876000Y-68274000D03*
G04 #@! TO.P,SW13,2*
G04 #@! TO.N,Net-(SW13-Pad2)*
X150876000Y-63474000D03*
G04 #@! TO.P,SW13,3*
G04 #@! TO.N,N/C*
X150876000Y-58674000D03*
G04 #@! TD*
G04 #@! TO.P,SW4,3*
G04 #@! TO.N,N/C*
X298450000Y-58700000D03*
G04 #@! TO.P,SW4,2*
G04 #@! TO.N,Net-(SW4-Pad2)*
X298450000Y-63500000D03*
G04 #@! TO.P,SW4,1*
G04 #@! TO.N,/GND*
X298450000Y-68300000D03*
G04 #@! TD*
G04 #@! TO.P,SW15,1*
G04 #@! TO.N,/GND*
X120650000Y-68300000D03*
G04 #@! TO.P,SW15,2*
G04 #@! TO.N,Net-(SW15-Pad2)*
X120650000Y-63500000D03*
G04 #@! TO.P,SW15,3*
G04 #@! TO.N,N/C*
X120650000Y-58700000D03*
G04 #@! TD*
G04 #@! TO.P,SW14,1*
G04 #@! TO.N,/GND*
X135890000Y-68580000D03*
G04 #@! TO.P,SW14,2*
G04 #@! TO.N,Net-(SW14-Pad2)*
X135890000Y-63500000D03*
G04 #@! TO.P,SW14,3*
G04 #@! TO.N,N/C*
X135890000Y-58980000D03*
G04 #@! TD*
G04 #@! TO.P,SW12,3*
G04 #@! TO.N,N/C*
X170180000Y-58700000D03*
G04 #@! TO.P,SW12,2*
G04 #@! TO.N,Net-(SW12-Pad2)*
X170180000Y-63500000D03*
G04 #@! TO.P,SW12,1*
G04 #@! TO.N,/GND*
X170180000Y-68300000D03*
G04 #@! TD*
G04 #@! TO.P,SW11,3*
G04 #@! TO.N,N/C*
X185420000Y-58700000D03*
G04 #@! TO.P,SW11,2*
G04 #@! TO.N,Net-(SW11-Pad2)*
X185420000Y-63500000D03*
G04 #@! TO.P,SW11,1*
G04 #@! TO.N,/GND*
X185420000Y-68300000D03*
G04 #@! TD*
G04 #@! TO.P,SW10,3*
G04 #@! TO.N,N/C*
X200660000Y-58700000D03*
G04 #@! TO.P,SW10,2*
G04 #@! TO.N,Net-(SW10-Pad2)*
X200660000Y-63500000D03*
G04 #@! TO.P,SW10,1*
G04 #@! TO.N,/GND*
X200660000Y-68300000D03*
G04 #@! TD*
G04 #@! TO.P,SW9,3*
G04 #@! TO.N,N/C*
X220980000Y-58700000D03*
G04 #@! TO.P,SW9,2*
G04 #@! TO.N,Net-(SW9-Pad2)*
X220980000Y-63500000D03*
G04 #@! TO.P,SW9,1*
G04 #@! TO.N,/GND*
X220980000Y-68300000D03*
G04 #@! TD*
G04 #@! TO.P,SW8,1*
G04 #@! TO.N,/GND*
X234950000Y-68300000D03*
G04 #@! TO.P,SW8,2*
G04 #@! TO.N,Net-(SW8-Pad2)*
X234950000Y-63500000D03*
G04 #@! TO.P,SW8,3*
G04 #@! TO.N,N/C*
X234950000Y-58700000D03*
G04 #@! TD*
G04 #@! TO.P,SW7,3*
G04 #@! TO.N,N/C*
X250190000Y-58700000D03*
G04 #@! TO.P,SW7,2*
G04 #@! TO.N,Net-(SW7-Pad2)*
X250190000Y-63500000D03*
G04 #@! TO.P,SW7,1*
G04 #@! TO.N,/GND*
X250190000Y-68300000D03*
G04 #@! TD*
G04 #@! TO.P,SW6,3*
G04 #@! TO.N,N/C*
X270510000Y-58700000D03*
G04 #@! TO.P,SW6,2*
G04 #@! TO.N,Net-(SW6-Pad2)*
X270510000Y-63500000D03*
G04 #@! TO.P,SW6,1*
G04 #@! TO.N,/GND*
X270510000Y-68300000D03*
G04 #@! TD*
G04 #@! TO.P,SW2,3*
G04 #@! TO.N,N/C*
X334010000Y-58700000D03*
G04 #@! TO.P,SW2,2*
G04 #@! TO.N,Net-(SW2-Pad2)*
X334010000Y-63500000D03*
G04 #@! TO.P,SW2,1*
G04 #@! TO.N,/GND*
X334010000Y-68300000D03*
G04 #@! TD*
G04 #@! TO.P,SW26,3*
G04 #@! TO.N,Net-(J3-Pad4)*
X191770000Y-109220000D03*
G04 #@! TO.P,SW26,2*
G04 #@! TO.N,Net-(D42-Pad2)*
X191770000Y-104420000D03*
G04 #@! TO.P,SW26,1*
G04 #@! TO.N,Net-(J3-Pad16)*
X191770000Y-99620000D03*
G04 #@! TD*
G04 #@! TO.P,SW25,3*
G04 #@! TO.N,Net-(J3-Pad4)*
X157480000Y-109220000D03*
G04 #@! TO.P,SW25,2*
G04 #@! TO.N,Net-(D41-Pad2)*
X157480000Y-104420000D03*
G04 #@! TO.P,SW25,1*
G04 #@! TO.N,Net-(J3-Pad16)*
X157480000Y-99620000D03*
G04 #@! TD*
G04 #@! TO.P,SW24,3*
G04 #@! TO.N,Net-(J3-Pad4)*
X123190000Y-108940000D03*
G04 #@! TO.P,SW24,2*
G04 #@! TO.N,Net-(D40-Pad2)*
X123190000Y-104140000D03*
G04 #@! TO.P,SW24,1*
G04 #@! TO.N,Net-(J3-Pad16)*
X123190000Y-99340000D03*
G04 #@! TD*
G04 #@! TO.P,SW23,3*
G04 #@! TO.N,Net-(J3-Pad4)*
X90170000Y-108940000D03*
G04 #@! TO.P,SW23,2*
G04 #@! TO.N,Net-(D39-Pad2)*
X90170000Y-104140000D03*
G04 #@! TO.P,SW23,1*
G04 #@! TO.N,Net-(J3-Pad16)*
X90170000Y-99340000D03*
G04 #@! TD*
G04 #@! TO.P,SW22,3*
G04 #@! TO.N,Net-(J3-Pad4)*
X56388000Y-109220000D03*
G04 #@! TO.P,SW22,2*
G04 #@! TO.N,Net-(D38-Pad2)*
X56388000Y-104420000D03*
G04 #@! TO.P,SW22,1*
G04 #@! TO.N,Net-(J3-Pad16)*
X56388000Y-99620000D03*
G04 #@! TD*
G04 #@! TO.P,SW21,3*
G04 #@! TO.N,Net-(J3-Pad18)*
X360680000Y-108940000D03*
G04 #@! TO.P,SW21,2*
G04 #@! TO.N,Net-(D42-Pad2)*
X360680000Y-104140000D03*
G04 #@! TO.P,SW21,1*
G04 #@! TO.N,Net-(J3-Pad2)*
X360680000Y-99340000D03*
G04 #@! TD*
G04 #@! TO.P,SW20,3*
G04 #@! TO.N,Net-(J3-Pad18)*
X326390000Y-108940000D03*
G04 #@! TO.P,SW20,2*
G04 #@! TO.N,Net-(D41-Pad2)*
X326390000Y-104140000D03*
G04 #@! TO.P,SW20,1*
G04 #@! TO.N,Net-(J3-Pad2)*
X326390000Y-99340000D03*
G04 #@! TD*
G04 #@! TO.P,SW19,3*
G04 #@! TO.N,Net-(J3-Pad18)*
X290830000Y-108940000D03*
G04 #@! TO.P,SW19,2*
G04 #@! TO.N,Net-(D40-Pad2)*
X290830000Y-104140000D03*
G04 #@! TO.P,SW19,1*
G04 #@! TO.N,Net-(J3-Pad2)*
X290830000Y-99340000D03*
G04 #@! TD*
G04 #@! TO.P,SW18,3*
G04 #@! TO.N,Net-(J3-Pad18)*
X259080000Y-108940000D03*
G04 #@! TO.P,SW18,2*
G04 #@! TO.N,Net-(D39-Pad2)*
X259080000Y-104140000D03*
G04 #@! TO.P,SW18,1*
G04 #@! TO.N,Net-(J3-Pad2)*
X259080000Y-99340000D03*
G04 #@! TD*
G04 #@! TO.P,SW17,3*
G04 #@! TO.N,Net-(J3-Pad18)*
X226060000Y-108940000D03*
G04 #@! TO.P,SW17,2*
G04 #@! TO.N,Net-(D38-Pad2)*
X226060000Y-104140000D03*
G04 #@! TO.P,SW17,1*
G04 #@! TO.N,Net-(J3-Pad2)*
X226060000Y-99340000D03*
G04 #@! TD*
D12*
G04 #@! TO.P,A1,16*
G04 #@! TO.N,/ENOLED2*
X412750000Y-68326000D03*
G04 #@! TO.P,A1,15*
G04 #@! TO.N,/ENOLED1*
X412750000Y-83566000D03*
G04 #@! TO.P,A1,30*
G04 #@! TO.N,Net-(A1-Pad30)*
X377190000Y-68326000D03*
G04 #@! TO.P,A1,14*
G04 #@! TO.N,/ENOLED0*
X410210000Y-83566000D03*
G04 #@! TO.P,A1,29*
G04 #@! TO.N,/GND*
X379730000Y-68326000D03*
G04 #@! TO.P,A1,13*
G04 #@! TO.N,/A2*
X407670000Y-83566000D03*
G04 #@! TO.P,A1,28*
G04 #@! TO.N,Net-(A1-Pad28)*
X382270000Y-68326000D03*
G04 #@! TO.P,A1,12*
G04 #@! TO.N,/A1*
X405130000Y-83566000D03*
G04 #@! TO.P,A1,27*
G04 #@! TO.N,Net-(A1-Pad27)*
X384810000Y-68326000D03*
G04 #@! TO.P,A1,11*
G04 #@! TO.N,/A0*
X402590000Y-83566000D03*
G04 #@! TO.P,A1,26*
G04 #@! TO.N,/TA2*
X387350000Y-68326000D03*
G04 #@! TO.P,A1,10*
G04 #@! TO.N,/ENLCD2*
X400050000Y-83566000D03*
G04 #@! TO.P,A1,25*
G04 #@! TO.N,/TA3*
X389890000Y-68326000D03*
G04 #@! TO.P,A1,9*
G04 #@! TO.N,/ENLCD1*
X397510000Y-83566000D03*
G04 #@! TO.P,A1,24*
G04 #@! TO.N,/SCK*
X392430000Y-68326000D03*
G04 #@! TO.P,A1,8*
G04 #@! TO.N,/SELR1*
X394970000Y-83566000D03*
G04 #@! TO.P,A1,23*
G04 #@! TO.N,/SDA*
X394970000Y-68326000D03*
G04 #@! TO.P,A1,7*
G04 #@! TO.N,/SERIALOUT*
X392430000Y-83566000D03*
G04 #@! TO.P,A1,22*
G04 #@! TO.N,/D3*
X397510000Y-68326000D03*
G04 #@! TO.P,A1,6*
G04 #@! TO.N,/SERIALIN*
X389890000Y-83566000D03*
G04 #@! TO.P,A1,21*
G04 #@! TO.N,/D2*
X400050000Y-68326000D03*
G04 #@! TO.P,A1,5*
G04 #@! TO.N,/LIGHTINT*
X387350000Y-83566000D03*
G04 #@! TO.P,A1,20*
G04 #@! TO.N,/D1*
X402590000Y-68326000D03*
G04 #@! TO.P,A1,4*
G04 #@! TO.N,/GND*
X384810000Y-83566000D03*
G04 #@! TO.P,A1,19*
G04 #@! TO.N,/D0*
X405130000Y-68326000D03*
G04 #@! TO.P,A1,3*
G04 #@! TO.N,Net-(A1-Pad3)*
X382270000Y-83566000D03*
G04 #@! TO.P,A1,18*
G04 #@! TO.N,/SPIVCC*
X407670000Y-68326000D03*
G04 #@! TO.P,A1,2*
G04 #@! TO.N,Net-(A1-Pad2)*
X379730000Y-83566000D03*
G04 #@! TO.P,A1,17*
G04 #@! TO.N,Net-(A1-Pad17)*
X410210000Y-68326000D03*
D13*
G04 #@! TO.P,A1,1*
G04 #@! TO.N,Net-(A1-Pad1)*
X377190000Y-83566000D03*
G04 #@! TD*
D22*
G04 #@! TO.P,D25,2*
G04 #@! TO.N,Net-(D25-Pad2)*
X222250000Y-21590000D03*
D23*
G04 #@! TO.P,D25,1*
G04 #@! TO.N,/NA7*
X219710000Y-21590000D03*
G04 #@! TD*
D22*
G04 #@! TO.P,D19,2*
G04 #@! TO.N,Net-(D19-Pad2)*
X321310000Y-21590000D03*
D23*
G04 #@! TO.P,D19,1*
G04 #@! TO.N,/NA13*
X318770000Y-21590000D03*
G04 #@! TD*
D22*
G04 #@! TO.P,D20,2*
G04 #@! TO.N,Net-(D20-Pad2)*
X299720000Y-21590000D03*
D23*
G04 #@! TO.P,D20,1*
G04 #@! TO.N,/NA12*
X297180000Y-21590000D03*
G04 #@! TD*
D22*
G04 #@! TO.P,D3,2*
G04 #@! TO.N,Net-(D3-Pad2)*
X321310000Y-39370000D03*
D23*
G04 #@! TO.P,D3,1*
G04 #@! TO.N,/ND13*
X318770000Y-39370000D03*
G04 #@! TD*
D22*
G04 #@! TO.P,D18,2*
G04 #@! TO.N,Net-(D18-Pad2)*
X335280000Y-21590000D03*
D23*
G04 #@! TO.P,D18,1*
G04 #@! TO.N,/NA14*
X332740000Y-21590000D03*
G04 #@! TD*
D22*
G04 #@! TO.P,D17,2*
G04 #@! TO.N,Net-(D17-Pad2)*
X349250000Y-21590000D03*
D23*
G04 #@! TO.P,D17,1*
G04 #@! TO.N,/NA15*
X346710000Y-21590000D03*
G04 #@! TD*
G04 #@! TO.P,D16,1*
G04 #@! TO.N,/ND0*
X100076000Y-39370000D03*
D22*
G04 #@! TO.P,D16,2*
G04 #@! TO.N,Net-(D16-Pad2)*
X102616000Y-39370000D03*
G04 #@! TD*
D23*
G04 #@! TO.P,D15,1*
G04 #@! TO.N,/ND1*
X119380000Y-39370000D03*
D22*
G04 #@! TO.P,D15,2*
G04 #@! TO.N,Net-(D15-Pad2)*
X121920000Y-39370000D03*
G04 #@! TD*
D23*
G04 #@! TO.P,D14,1*
G04 #@! TO.N,/ND2*
X134620000Y-39370000D03*
D22*
G04 #@! TO.P,D14,2*
G04 #@! TO.N,Net-(D14-Pad2)*
X137160000Y-39370000D03*
G04 #@! TD*
D23*
G04 #@! TO.P,D13,1*
G04 #@! TO.N,/ND3*
X149606000Y-39370000D03*
D22*
G04 #@! TO.P,D13,2*
G04 #@! TO.N,Net-(D13-Pad2)*
X152146000Y-39370000D03*
G04 #@! TD*
G04 #@! TO.P,D12,2*
G04 #@! TO.N,Net-(D12-Pad2)*
X171450000Y-39370000D03*
D23*
G04 #@! TO.P,D12,1*
G04 #@! TO.N,/ND4*
X168910000Y-39370000D03*
G04 #@! TD*
D22*
G04 #@! TO.P,D11,2*
G04 #@! TO.N,Net-(D11-Pad2)*
X186690000Y-39370000D03*
D23*
G04 #@! TO.P,D11,1*
G04 #@! TO.N,/ND5*
X184150000Y-39370000D03*
G04 #@! TD*
D22*
G04 #@! TO.P,D10,2*
G04 #@! TO.N,Net-(D10-Pad2)*
X201930000Y-39370000D03*
D23*
G04 #@! TO.P,D10,1*
G04 #@! TO.N,/ND6*
X199390000Y-39370000D03*
G04 #@! TD*
D22*
G04 #@! TO.P,D9,2*
G04 #@! TO.N,Net-(D9-Pad2)*
X222250000Y-39370000D03*
D23*
G04 #@! TO.P,D9,1*
G04 #@! TO.N,/ND7*
X219710000Y-39370000D03*
G04 #@! TD*
D22*
G04 #@! TO.P,D8,2*
G04 #@! TO.N,Net-(D8-Pad2)*
X236220000Y-39370000D03*
D23*
G04 #@! TO.P,D8,1*
G04 #@! TO.N,/ND8*
X233680000Y-39370000D03*
G04 #@! TD*
D22*
G04 #@! TO.P,D7,2*
G04 #@! TO.N,Net-(D7-Pad2)*
X251460000Y-39370000D03*
D23*
G04 #@! TO.P,D7,1*
G04 #@! TO.N,/ND9*
X248920000Y-39370000D03*
G04 #@! TD*
D22*
G04 #@! TO.P,D6,2*
G04 #@! TO.N,Net-(D6-Pad2)*
X271780000Y-39370000D03*
D23*
G04 #@! TO.P,D6,1*
G04 #@! TO.N,/ND10*
X269240000Y-39370000D03*
G04 #@! TD*
D22*
G04 #@! TO.P,D4,2*
G04 #@! TO.N,Net-(D4-Pad2)*
X299720000Y-39370000D03*
D23*
G04 #@! TO.P,D4,1*
G04 #@! TO.N,/ND12*
X297180000Y-39370000D03*
G04 #@! TD*
D22*
G04 #@! TO.P,D2,2*
G04 #@! TO.N,Net-(D2-Pad2)*
X335280000Y-39370000D03*
D23*
G04 #@! TO.P,D2,1*
G04 #@! TO.N,/ND14*
X332740000Y-39370000D03*
G04 #@! TD*
D22*
G04 #@! TO.P,D23,2*
G04 #@! TO.N,Net-(D23-Pad2)*
X251460000Y-21590000D03*
D23*
G04 #@! TO.P,D23,1*
G04 #@! TO.N,/NA9*
X248920000Y-21590000D03*
G04 #@! TD*
D22*
G04 #@! TO.P,D5,2*
G04 #@! TO.N,Net-(D5-Pad2)*
X285750000Y-39370000D03*
D23*
G04 #@! TO.P,D5,1*
G04 #@! TO.N,/ND11*
X283210000Y-39370000D03*
G04 #@! TD*
D22*
G04 #@! TO.P,D21,2*
G04 #@! TO.N,Net-(D21-Pad2)*
X285750000Y-21590000D03*
D23*
G04 #@! TO.P,D21,1*
G04 #@! TO.N,/NA11*
X283210000Y-21590000D03*
G04 #@! TD*
D22*
G04 #@! TO.P,D37,2*
G04 #@! TO.N,Net-(D37-Pad2)*
X405130000Y-39370000D03*
D23*
G04 #@! TO.P,D37,1*
G04 #@! TO.N,/EXEC*
X402590000Y-39370000D03*
G04 #@! TD*
D22*
G04 #@! TO.P,D1,2*
G04 #@! TO.N,Net-(D1-Pad2)*
X349250000Y-39370000D03*
D23*
G04 #@! TO.P,D1,1*
G04 #@! TO.N,/ND15*
X346710000Y-39370000D03*
G04 #@! TD*
D22*
G04 #@! TO.P,D36,2*
G04 #@! TO.N,Net-(D36-Pad2)*
X388620000Y-39370000D03*
D23*
G04 #@! TO.P,D36,1*
G04 #@! TO.N,/DEFER*
X386080000Y-39370000D03*
G04 #@! TD*
D22*
G04 #@! TO.P,D35,2*
G04 #@! TO.N,Net-(D35-Pad2)*
X369570000Y-39370000D03*
D23*
G04 #@! TO.P,D35,1*
G04 #@! TO.N,/FETCH*
X367030000Y-39370000D03*
G04 #@! TD*
D22*
G04 #@! TO.P,D34,2*
G04 #@! TO.N,Net-(D34-Pad2)*
X369570000Y-21590000D03*
D23*
G04 #@! TO.P,D34,1*
G04 #@! TO.N,/RUN*
X367030000Y-21590000D03*
G04 #@! TD*
D22*
G04 #@! TO.P,D33,2*
G04 #@! TO.N,Net-(D33-Pad2)*
X388620000Y-21590000D03*
D23*
G04 #@! TO.P,D33,1*
G04 #@! TO.N,/ION*
X386080000Y-21590000D03*
G04 #@! TD*
G04 #@! TO.P,D32,1*
G04 #@! TO.N,/CARRY*
X81280000Y-39370000D03*
D22*
G04 #@! TO.P,D32,2*
G04 #@! TO.N,Net-(D32-Pad2)*
X83820000Y-39370000D03*
G04 #@! TD*
D23*
G04 #@! TO.P,D31,1*
G04 #@! TO.N,/NA1*
X119380000Y-21590000D03*
D22*
G04 #@! TO.P,D31,2*
G04 #@! TO.N,Net-(D31-Pad2)*
X121920000Y-21590000D03*
G04 #@! TD*
D23*
G04 #@! TO.P,D30,1*
G04 #@! TO.N,/NA2*
X134620000Y-21590000D03*
D22*
G04 #@! TO.P,D30,2*
G04 #@! TO.N,Net-(D30-Pad2)*
X137160000Y-21590000D03*
G04 #@! TD*
D23*
G04 #@! TO.P,D29,1*
G04 #@! TO.N,/NA3*
X149606000Y-21590000D03*
D22*
G04 #@! TO.P,D29,2*
G04 #@! TO.N,Net-(D29-Pad2)*
X152146000Y-21590000D03*
G04 #@! TD*
G04 #@! TO.P,D28,2*
G04 #@! TO.N,Net-(D28-Pad2)*
X171450000Y-21590000D03*
D23*
G04 #@! TO.P,D28,1*
G04 #@! TO.N,/NA4*
X168910000Y-21590000D03*
G04 #@! TD*
D22*
G04 #@! TO.P,D27,2*
G04 #@! TO.N,Net-(D27-Pad2)*
X186690000Y-21590000D03*
D23*
G04 #@! TO.P,D27,1*
G04 #@! TO.N,/NA5*
X184150000Y-21590000D03*
G04 #@! TD*
D22*
G04 #@! TO.P,D26,2*
G04 #@! TO.N,Net-(D26-Pad2)*
X201930000Y-21590000D03*
D23*
G04 #@! TO.P,D26,1*
G04 #@! TO.N,/NA6*
X199390000Y-21590000D03*
G04 #@! TD*
D22*
G04 #@! TO.P,D24,2*
G04 #@! TO.N,Net-(D24-Pad2)*
X236220000Y-21590000D03*
D23*
G04 #@! TO.P,D24,1*
G04 #@! TO.N,/NA8*
X233680000Y-21590000D03*
G04 #@! TD*
D22*
G04 #@! TO.P,D22,2*
G04 #@! TO.N,Net-(D22-Pad2)*
X271780000Y-21590000D03*
D23*
G04 #@! TO.P,D22,1*
G04 #@! TO.N,/NA10*
X269240000Y-21590000D03*
G04 #@! TD*
D25*
G04 #@! TO.P,J1,52*
G04 #@! TO.N,/DEFER*
X31670000Y-106045000D03*
G04 #@! TO.P,J1,51*
G04 #@! TO.N,/RUN*
X25400000Y-106045000D03*
G04 #@! TO.P,J1,50*
G04 #@! TO.N,/EXEC*
X31670000Y-102870000D03*
G04 #@! TO.P,J1,49*
G04 #@! TO.N,/ION*
X25400000Y-102870000D03*
G04 #@! TO.P,J1,48*
G04 #@! TO.N,/FETCH*
X31670000Y-99695000D03*
G04 #@! TO.P,J1,47*
G04 #@! TO.N,/ISTP*
X25400000Y-99695000D03*
G04 #@! TO.P,J1,46*
G04 #@! TO.N,/CARRY*
X31670000Y-96520000D03*
G04 #@! TO.P,J1,45*
G04 #@! TO.N,/PL*
X25400000Y-96520000D03*
G04 #@! TO.P,J1,44*
G04 #@! TO.N,/MSTP*
X31670000Y-93345000D03*
G04 #@! TO.P,J1,43*
G04 #@! TO.N,/CONINST*
X25400000Y-93345000D03*
G04 #@! TO.P,J1,42*
G04 #@! TO.N,/CON+*
X31670000Y-90170000D03*
G04 #@! TO.P,J1,41*
G04 #@! TO.N,/CONREQ*
X25400000Y-90170000D03*
G04 #@! TO.P,J1,40*
G04 #@! TO.N,/CONTDATA*
X31670000Y-86995000D03*
G04 #@! TO.P,J1,39*
G04 #@! TO.N,/RST*
X25400000Y-86995000D03*
G04 #@! TO.P,J1,38*
G04 #@! TO.N,/STOP*
X31670000Y-83820000D03*
G04 #@! TO.P,J1,37*
G04 #@! TO.N,Net-(J1-Pad37)*
X25400000Y-83820000D03*
G04 #@! TO.P,J1,36*
G04 #@! TO.N,/NA10*
X31670000Y-80645000D03*
G04 #@! TO.P,J1,35*
G04 #@! TO.N,/NA8*
X25400000Y-80645000D03*
G04 #@! TO.P,J1,34*
G04 #@! TO.N,/ND3*
X31670000Y-77470000D03*
G04 #@! TO.P,J1,33*
G04 #@! TO.N,/GND*
X25400000Y-77470000D03*
G04 #@! TO.P,J1,32*
G04 #@! TO.N,/ND7*
X31670000Y-74295000D03*
G04 #@! TO.P,J1,31*
G04 #@! TO.N,/NA4*
X25400000Y-74295000D03*
G04 #@! TO.P,J1,30*
G04 #@! TO.N,/ND1*
X31670000Y-71120000D03*
G04 #@! TO.P,J1,29*
G04 #@! TO.N,/NA2*
X25400000Y-71120000D03*
G04 #@! TO.P,J1,28*
G04 #@! TO.N,/GND*
X31670000Y-67945000D03*
G04 #@! TO.P,J1,27*
G04 #@! TO.N,/NA1*
X25400000Y-67945000D03*
G04 #@! TO.P,J1,26*
G04 #@! TO.N,/ND0*
X31670000Y-64770000D03*
G04 #@! TO.P,J1,25*
G04 #@! TO.N,/ND2*
X25400000Y-64770000D03*
G04 #@! TO.P,J1,24*
G04 #@! TO.N,/NA3*
X31670000Y-61595000D03*
G04 #@! TO.P,J1,23*
G04 #@! TO.N,/NA14*
X25400000Y-61595000D03*
G04 #@! TO.P,J1,22*
G04 #@! TO.N,/ND4*
X31670000Y-58420000D03*
G04 #@! TO.P,J1,21*
G04 #@! TO.N,/NA5*
X25400000Y-58420000D03*
G04 #@! TO.P,J1,20*
G04 #@! TO.N,/ND5*
X31670000Y-55245000D03*
G04 #@! TO.P,J1,19*
G04 #@! TO.N,/ND6*
X25400000Y-55245000D03*
G04 #@! TO.P,J1,18*
G04 #@! TO.N,/NA6*
X31670000Y-52070000D03*
G04 #@! TO.P,J1,17*
G04 #@! TO.N,/NA7*
X25400000Y-52070000D03*
G04 #@! TO.P,J1,16*
G04 #@! TO.N,/ND8*
X31670000Y-48895000D03*
G04 #@! TO.P,J1,15*
G04 #@! TO.N,/NA9*
X25400000Y-48895000D03*
G04 #@! TO.P,J1,14*
G04 #@! TO.N,/VLAMP*
X31670000Y-45720000D03*
G04 #@! TO.P,J1,13*
G04 #@! TO.N,/ND9*
X25400000Y-45720000D03*
G04 #@! TO.P,J1,12*
G04 #@! TO.N,/ND10*
X31670000Y-42545000D03*
G04 #@! TO.P,J1,11*
G04 #@! TO.N,/NA11*
X25400000Y-42545000D03*
G04 #@! TO.P,J1,10*
G04 #@! TO.N,/ND11*
X31670000Y-39370000D03*
G04 #@! TO.P,J1,9*
G04 #@! TO.N,/ND12*
X25400000Y-39370000D03*
G04 #@! TO.P,J1,8*
G04 #@! TO.N,/NA12*
X31670000Y-36195000D03*
G04 #@! TO.P,J1,7*
G04 #@! TO.N,/NA13*
X25400000Y-36195000D03*
G04 #@! TO.P,J1,6*
G04 #@! TO.N,/ND13*
X31670000Y-33020000D03*
G04 #@! TO.P,J1,5*
G04 #@! TO.N,/ND14*
X25400000Y-33020000D03*
G04 #@! TO.P,J1,4*
G04 #@! TO.N,/NA15*
X31670000Y-29845000D03*
G04 #@! TO.P,J1,3*
G04 #@! TO.N,/ND15*
X25400000Y-29845000D03*
G04 #@! TO.P,J1,2*
G04 #@! TO.N,/VCC*
X31670000Y-26670000D03*
G04 #@! TO.P,J1,1*
G04 #@! TO.N,/GND*
X25400000Y-26670000D03*
G04 #@! TD*
D13*
G04 #@! TO.P,C15,1*
G04 #@! TO.N,/VCC*
X301752000Y-125984000D03*
D16*
G04 #@! TO.P,C15,2*
G04 #@! TO.N,/GND*
X306752000Y-125984000D03*
G04 #@! TD*
G04 #@! TO.P,C14,2*
G04 #@! TO.N,/GND*
X43307000Y-57070000D03*
D13*
G04 #@! TO.P,C14,1*
G04 #@! TO.N,Net-(C14-Pad1)*
X43307000Y-52070000D03*
G04 #@! TD*
D16*
G04 #@! TO.P,C13,2*
G04 #@! TO.N,/GND*
X281606000Y-84836000D03*
D13*
G04 #@! TO.P,C13,1*
G04 #@! TO.N,/VCC*
X276606000Y-84836000D03*
G04 #@! TD*
D16*
G04 #@! TO.P,C12,2*
G04 #@! TO.N,/GND*
X376936000Y-94916000D03*
D13*
G04 #@! TO.P,C12,1*
G04 #@! TO.N,/VCC*
X376936000Y-89916000D03*
G04 #@! TD*
D16*
G04 #@! TO.P,C11,2*
G04 #@! TO.N,/GND*
X160782000Y-49403000D03*
D13*
G04 #@! TO.P,C11,1*
G04 #@! TO.N,/VCC*
X160782000Y-54403000D03*
G04 #@! TD*
D16*
G04 #@! TO.P,C10,2*
G04 #@! TO.N,/GND*
X356489000Y-49356000D03*
D13*
G04 #@! TO.P,C10,1*
G04 #@! TO.N,/VCC*
X356489000Y-54356000D03*
G04 #@! TD*
D16*
G04 #@! TO.P,C9,2*
G04 #@! TO.N,/GND*
X25734000Y-19304000D03*
D13*
G04 #@! TO.P,C9,1*
G04 #@! TO.N,/VCC*
X30734000Y-19304000D03*
G04 #@! TD*
D16*
G04 #@! TO.P,C8,2*
G04 #@! TO.N,/GND*
X37846000Y-50974000D03*
D13*
G04 #@! TO.P,C8,1*
G04 #@! TO.N,/VLAMP*
X37846000Y-45974000D03*
G04 #@! TD*
D16*
G04 #@! TO.P,C7,2*
G04 #@! TO.N,/GND*
X216328000Y-84582000D03*
D13*
G04 #@! TO.P,C7,1*
G04 #@! TO.N,/VCC*
X211328000Y-84582000D03*
G04 #@! TD*
G04 #@! TO.P,C6,1*
G04 #@! TO.N,/VCC*
X100203000Y-22051000D03*
D16*
G04 #@! TO.P,C6,2*
G04 #@! TO.N,/GND*
X100203000Y-27051000D03*
G04 #@! TD*
D13*
G04 #@! TO.P,C5,1*
G04 #@! TO.N,/VCC*
X70866000Y-80772000D03*
D16*
G04 #@! TO.P,C5,2*
G04 #@! TO.N,/GND*
X65866000Y-80772000D03*
G04 #@! TD*
G04 #@! TO.P,C4,2*
G04 #@! TO.N,/GND*
X260223000Y-49483000D03*
D13*
G04 #@! TO.P,C4,1*
G04 #@! TO.N,/VCC*
X260223000Y-54483000D03*
G04 #@! TD*
D16*
G04 #@! TO.P,C3,2*
G04 #@! TO.N,/GND*
X164385000Y-84328000D03*
D13*
G04 #@! TO.P,C3,1*
G04 #@! TO.N,/VCC*
X159385000Y-84328000D03*
G04 #@! TD*
D16*
G04 #@! TO.P,C2,2*
G04 #@! TO.N,/GND*
X309118000Y-49356000D03*
D13*
G04 #@! TO.P,C2,1*
G04 #@! TO.N,/VCC*
X309118000Y-54356000D03*
G04 #@! TD*
D16*
G04 #@! TO.P,C1,2*
G04 #@! TO.N,/GND*
X210820000Y-49483000D03*
D13*
G04 #@! TO.P,C1,1*
G04 #@! TO.N,/VCC*
X210820000Y-54483000D03*
G04 #@! TD*
D19*
G04 #@! TO.P,PAD6,1*
G04 #@! TO.N,/GND*
X415290000Y-19050000D03*
G04 #@! TD*
G04 #@! TO.P,PAD5,1*
G04 #@! TO.N,/GND*
X415290000Y-113030000D03*
G04 #@! TD*
G04 #@! TO.P,PAD1,1*
G04 #@! TO.N,/GND*
X43180000Y-113030000D03*
G04 #@! TD*
D26*
G04 #@! TO.N,/CONTDATA*
X104521000Y-64575200D03*
X58753400Y-74574700D03*
G04 #@! TO.N,/ND7*
X176628100Y-44547900D03*
X219477300Y-26279200D03*
G04 #@! TO.N,/D3*
X408036700Y-59754000D03*
G04 #@! TO.N,/ND6*
X179349800Y-44108200D03*
X182638100Y-40595300D03*
G04 #@! TO.N,/D2*
X361172400Y-73099400D03*
X403714700Y-63395100D03*
X371130990Y-105344654D03*
G04 #@! TO.N,/ND5*
X179971200Y-45092000D03*
G04 #@! TO.N,/D1*
X411309700Y-79461900D03*
X364189100Y-37426400D03*
G04 #@! TO.N,/ND4*
X50598400Y-56438200D03*
X162973800Y-46491600D03*
X253874000Y-34077000D03*
G04 #@! TO.N,/D0*
X396361200Y-102108000D03*
X366693600Y-30773600D03*
X372364900Y-38662800D03*
G04 #@! TO.N,/SEL5*
X104861700Y-47296800D03*
X263187300Y-45830200D03*
G04 #@! TO.N,/SEL3*
X173344700Y-75196800D03*
G04 #@! TO.N,/SEL2*
X236792800Y-75112600D03*
G04 #@! TO.N,/EXEC*
X389172200Y-46995900D03*
X364960400Y-85958500D03*
X260958800Y-97152700D03*
G04 #@! TO.N,/DEFER*
X381417600Y-50281400D03*
X314553500Y-71582300D03*
X277596200Y-100602100D03*
X262798600Y-100602100D03*
G04 #@! TO.N,/FETCH*
X252841600Y-95945500D03*
X293252300Y-74350700D03*
X251844100Y-93320500D03*
G04 #@! TO.N,/RUN*
X342236000Y-117117100D03*
X256401900Y-117698400D03*
G04 #@! TO.N,/ION*
X251118900Y-111388100D03*
X293879400Y-130509100D03*
G04 #@! TO.N,/PL*
X63182600Y-79091800D03*
G04 #@! TO.N,/ISTP*
X73840800Y-84611100D03*
G04 #@! TO.N,/CONINST*
X83940500Y-69132600D03*
X216583900Y-20012400D03*
X211167400Y-20168400D03*
G04 #@! TO.N,/ND2*
X53814800Y-63182500D03*
X134837400Y-27432000D03*
G04 #@! TO.N,/ND1*
X44690500Y-71120000D03*
X119445800Y-29335600D03*
G04 #@! TO.N,/ND0*
X76906200Y-59545300D03*
G04 #@! TO.N,/ND10*
X265922300Y-43700800D03*
X61902300Y-37883400D03*
G04 #@! TO.N,/ND9*
X259657100Y-31242000D03*
X246609400Y-44525900D03*
X63740000Y-38158300D03*
G04 #@! TO.N,/ND8*
X231560200Y-44041200D03*
X76479200Y-39738900D03*
G04 #@! TO.N,/ND13*
X328710400Y-30027800D03*
G04 #@! TO.N,/ND14*
X58207900Y-36609600D03*
G04 #@! TO.N,/NA7*
X214367200Y-50187200D03*
G04 #@! TO.N,/CARRY*
X70345300Y-45561500D03*
X60943700Y-50190900D03*
X253627200Y-93373400D03*
G04 #@! TO.N,/NA3*
X139347000Y-49081500D03*
X53979700Y-61595000D03*
G04 #@! TO.N,/NA4*
X40450300Y-53717300D03*
X144978900Y-49525700D03*
G04 #@! TO.N,/NA6*
X190822600Y-47017500D03*
G04 #@! TO.N,/NA1*
X99043500Y-18719400D03*
G04 #@! TO.N,/NA2*
X38972100Y-69741800D03*
X127164900Y-45853000D03*
G04 #@! TO.N,/NA5*
X58563900Y-59757800D03*
X174508800Y-48177700D03*
G04 #@! TO.N,/NA15*
X319143800Y-56395300D03*
X30057100Y-33671700D03*
G04 #@! TO.N,/NA11*
X279133800Y-37766500D03*
X211668300Y-39463900D03*
X80092400Y-20189900D03*
G04 #@! TO.N,/NA12*
X282030600Y-37581200D03*
X185181300Y-37732700D03*
X182554900Y-36114800D03*
G04 #@! TO.N,/NA14*
X226310700Y-16615100D03*
G04 #@! TO.N,/NA9*
X39596200Y-34133100D03*
G04 #@! TO.N,/NA10*
X100143400Y-30039600D03*
X231721900Y-47904800D03*
X76103500Y-55595800D03*
G04 #@! TO.N,/NA13*
X101308400Y-51512900D03*
X281290700Y-44326100D03*
X108127200Y-31593600D03*
G04 #@! TO.N,/VCC*
X412954700Y-27900000D03*
X36531700Y-32932800D03*
G04 #@! TO.N,Net-(SW8-Pad2)*
X237431000Y-86647800D03*
G04 #@! TO.N,Net-(SW1-Pad2)*
X300767000Y-66263100D03*
G04 #@! TO.N,Net-(SW2-Pad2)*
X292070300Y-66420600D03*
G04 #@! TO.N,Net-(SW3-Pad2)*
X302474400Y-63500000D03*
G04 #@! TO.N,/SELR1*
X397639700Y-86077300D03*
G04 #@! TO.N,/SDA*
X81603500Y-81888000D03*
X97677100Y-32353800D03*
G04 #@! TO.N,/SCK*
X339097100Y-102046100D03*
X106410400Y-127091100D03*
X414583000Y-80243100D03*
X84624600Y-86882200D03*
X93625400Y-35528500D03*
G04 #@! TO.N,/SWINT*
X270842000Y-87332700D03*
G04 #@! TO.N,Net-(J2-Pad5)*
X42127100Y-120113800D03*
G04 #@! TO.N,Net-(J2-Pad7)*
X33836800Y-118761900D03*
G04 #@! TO.N,Net-(J2-Pad10)*
X66802000Y-120111100D03*
G04 #@! TO.N,Net-(D42-Pad2)*
X264762100Y-94549100D03*
X354251600Y-95733700D03*
X138357900Y-89820100D03*
G04 #@! TO.N,Net-(D39-Pad2)*
X127846200Y-103045800D03*
X79714600Y-110043200D03*
G04 #@! TO.N,/SERIALOUT*
X368554000Y-96012000D03*
X381000000Y-94996000D03*
X384556000Y-85852000D03*
G04 #@! TO.N,/SERIALIN*
X371856000Y-99314000D03*
X370222890Y-118073010D03*
G04 #@! TO.N,/LIGHTINT*
X293414000Y-92872100D03*
G04 #@! TO.N,Net-(J2-Pad15)*
X206425200Y-133996600D03*
G04 #@! TO.N,/ENOLED2*
X386738400Y-103355100D03*
X344982800Y-110773600D03*
G04 #@! TO.N,/ENOLED1*
X394070400Y-107206100D03*
G04 #@! TO.N,Net-(J3-Pad18)*
X127440847Y-107251947D03*
G04 #@! TO.N,Net-(J3-Pad6)*
X332593100Y-104945900D03*
G04 #@! TO.N,/ENOLED0*
X345008900Y-101303300D03*
G04 #@! TO.N,Net-(J12-Pad4)*
X337110800Y-113756600D03*
X139090100Y-117296200D03*
G04 #@! TO.N,Net-(J11-Pad4)*
X249117200Y-101788300D03*
G04 #@! TO.N,Net-(J16-Pad4)*
X262208100Y-106995700D03*
G04 #@! TO.N,Net-(J15-Pad4)*
X338362000Y-112817300D03*
X198052600Y-116812700D03*
G04 #@! TO.N,/A14*
X379619200Y-91905500D03*
G04 #@! TO.N,/SPIVCC*
X380875000Y-74077200D03*
X378582500Y-95286990D03*
G04 #@! TO.N,/TA3*
X386786300Y-86709300D03*
G04 #@! TO.N,/SSCK*
X381508000Y-107188000D03*
X395478000Y-121412000D03*
G04 #@! TO.N,Net-(J3-Pad8)*
X94308900Y-87607900D03*
X173736000Y-108458000D03*
G04 #@! TO.N,Net-(J3-Pad11)*
X73672300Y-109674000D03*
G04 #@! TD*
D27*
G04 #@! TO.N,Net-(D5-Pad2)*
X288417000Y-46863000D02*
X288417000Y-45837700D01*
X285750000Y-39370000D02*
X285750000Y-43170700D01*
X285750000Y-43170700D02*
X288417000Y-45837700D01*
G04 #@! TO.N,Net-(D25-Pad2)*
X216916000Y-46863000D02*
X216916000Y-45837700D01*
X222250000Y-21590000D02*
X216916000Y-26924000D01*
X216916000Y-26924000D02*
X216916000Y-45837700D01*
G04 #@! TO.N,Net-(D24-Pad2)*
X230632000Y-46863000D02*
X230632000Y-45837700D01*
X236220000Y-21590000D02*
X230632000Y-27178000D01*
X230632000Y-27178000D02*
X230632000Y-45837700D01*
G04 #@! TO.N,Net-(D23-Pad2)*
X245872000Y-45837700D02*
X245872000Y-27178000D01*
X245872000Y-27178000D02*
X251460000Y-21590000D01*
X245872000Y-46863000D02*
X245872000Y-45837700D01*
G04 #@! TO.N,Net-(D22-Pad2)*
X271780000Y-21590000D02*
X268754300Y-18564300D01*
X268754300Y-18564300D02*
X263359200Y-18564300D01*
X263359200Y-18564300D02*
X261373900Y-20549600D01*
X261373900Y-20549600D02*
X261373900Y-40190500D01*
X261373900Y-40190500D02*
X266319000Y-45135600D01*
X266319000Y-45135600D02*
X266319000Y-46863000D01*
G04 #@! TO.N,Net-(D21-Pad2)*
X280543000Y-46863000D02*
X280543000Y-26797000D01*
X280543000Y-26797000D02*
X285750000Y-21590000D01*
G04 #@! TO.N,Net-(D20-Pad2)*
X299720000Y-21590000D02*
X299720000Y-32266400D01*
X299720000Y-32266400D02*
X294259000Y-37727400D01*
X294259000Y-37727400D02*
X294259000Y-46863000D01*
G04 #@! TO.N,Net-(D19-Pad2)*
X321310000Y-21590000D02*
X315849000Y-27051000D01*
X315849000Y-27051000D02*
X315849000Y-45837700D01*
X315849000Y-46863000D02*
X315849000Y-45837700D01*
G04 #@! TO.N,Net-(D18-Pad2)*
X329819000Y-45837700D02*
X329819000Y-27051000D01*
X329819000Y-27051000D02*
X335280000Y-21590000D01*
X329819000Y-46863000D02*
X329819000Y-45837700D01*
G04 #@! TO.N,Net-(D16-Pad2)*
X95250000Y-37211000D02*
X96275300Y-37211000D01*
X102616000Y-39370000D02*
X101390600Y-40595400D01*
X101390600Y-40595400D02*
X99018900Y-40595400D01*
X99018900Y-40595400D02*
X96275300Y-37851800D01*
X96275300Y-37851800D02*
X96275300Y-37211000D01*
G04 #@! TO.N,Net-(D6-Pad2)*
X274320000Y-46863000D02*
X274320000Y-45837700D01*
X271780000Y-39370000D02*
X271780000Y-43297700D01*
X271780000Y-43297700D02*
X274320000Y-45837700D01*
G04 #@! TO.N,Net-(D3-Pad2)*
X321310000Y-39370000D02*
X321310000Y-43170700D01*
X321310000Y-43170700D02*
X323977000Y-45837700D01*
X323977000Y-46863000D02*
X323977000Y-45837700D01*
G04 #@! TO.N,Net-(D1-Pad2)*
X344043000Y-46863000D02*
X344043000Y-45837700D01*
X349250000Y-39370000D02*
X349250000Y-40630700D01*
X349250000Y-40630700D02*
X344043000Y-45837700D01*
G04 #@! TO.N,Net-(D27-Pad2)*
X180721000Y-45837700D02*
X185437500Y-41121200D01*
X185437500Y-41121200D02*
X185437500Y-38502300D01*
X185437500Y-38502300D02*
X186690000Y-37249800D01*
X186690000Y-37249800D02*
X186690000Y-21590000D01*
X180721000Y-46863000D02*
X180721000Y-45837700D01*
G04 #@! TO.N,Net-(D14-Pad2)*
X137160000Y-39370000D02*
X140081000Y-42291000D01*
X140081000Y-42291000D02*
X140081000Y-46863000D01*
G04 #@! TO.N,Net-(D15-Pad2)*
X124460000Y-46863000D02*
X124460000Y-45837700D01*
X121920000Y-39370000D02*
X121920000Y-43297700D01*
X121920000Y-43297700D02*
X124460000Y-45837700D01*
G04 #@! TO.N,Net-(D17-Pad2)*
X351790000Y-46863000D02*
X351790000Y-30852100D01*
X351790000Y-30852100D02*
X354084700Y-28557400D01*
X354084700Y-28557400D02*
X354814200Y-28557400D01*
X354814200Y-28557400D02*
X355463000Y-27908600D01*
X355463000Y-27908600D02*
X355463000Y-24392700D01*
X355463000Y-24392700D02*
X354692300Y-23622000D01*
X354692300Y-23622000D02*
X351282000Y-23622000D01*
X351282000Y-23622000D02*
X349250000Y-21590000D01*
G04 #@! TO.N,Net-(D36-Pad2)*
X382778000Y-46863000D02*
X382778000Y-45837700D01*
X388620000Y-39370000D02*
X388620000Y-39995700D01*
X388620000Y-39995700D02*
X382778000Y-45837700D01*
G04 #@! TO.N,Net-(D13-Pad2)*
X152146000Y-39370000D02*
X154686000Y-41910000D01*
X154686000Y-41910000D02*
X154686000Y-46863000D01*
G04 #@! TO.N,Net-(D7-Pad2)*
X253873000Y-46863000D02*
X253873000Y-45837700D01*
X251460000Y-39370000D02*
X251460000Y-43424700D01*
X251460000Y-43424700D02*
X253873000Y-45837700D01*
G04 #@! TO.N,Net-(D8-Pad2)*
X236220000Y-39370000D02*
X239014000Y-42164000D01*
X239014000Y-42164000D02*
X239014000Y-46863000D01*
G04 #@! TO.N,Net-(D9-Pad2)*
X224790000Y-46863000D02*
X224790000Y-45837700D01*
X222250000Y-39370000D02*
X222250000Y-43297700D01*
X222250000Y-43297700D02*
X224790000Y-45837700D01*
G04 #@! TO.N,Net-(D10-Pad2)*
X196088000Y-46863000D02*
X196088000Y-45837700D01*
X201930000Y-39370000D02*
X201930000Y-39995700D01*
X201930000Y-39995700D02*
X196088000Y-45837700D01*
G04 #@! TO.N,Net-(D11-Pad2)*
X186690000Y-39370000D02*
X189484000Y-42164000D01*
X189484000Y-42164000D02*
X189484000Y-46863000D01*
G04 #@! TO.N,Net-(D12-Pad2)*
X174371000Y-46863000D02*
X174371000Y-45837700D01*
X171450000Y-39370000D02*
X171450000Y-42916700D01*
X171450000Y-42916700D02*
X174371000Y-45837700D01*
G04 #@! TO.N,Net-(D28-Pad2)*
X166497000Y-46863000D02*
X166497000Y-45837700D01*
X171450000Y-21590000D02*
X170135400Y-22904600D01*
X170135400Y-22904600D02*
X170135400Y-42199300D01*
X170135400Y-42199300D02*
X166497000Y-45837700D01*
G04 #@! TO.N,Net-(D37-Pad2)*
X399678300Y-45212000D02*
X405130000Y-39760300D01*
X405130000Y-39760300D02*
X405130000Y-39370000D01*
X398653000Y-45212000D02*
X399678300Y-45212000D01*
G04 #@! TO.N,Net-(D4-Pad2)*
X302006000Y-46863000D02*
X302006000Y-45837700D01*
X299720000Y-39370000D02*
X299720000Y-43551700D01*
X299720000Y-43551700D02*
X302006000Y-45837700D01*
G04 #@! TO.N,Net-(D29-Pad2)*
X152146000Y-21590000D02*
X146177000Y-27559000D01*
X146177000Y-27559000D02*
X146177000Y-46863000D01*
G04 #@! TO.N,Net-(D30-Pad2)*
X132207000Y-45837700D02*
X132207000Y-26543000D01*
X132207000Y-26543000D02*
X137160000Y-21590000D01*
X132207000Y-46863000D02*
X132207000Y-45837700D01*
G04 #@! TO.N,Net-(D31-Pad2)*
X116713000Y-45837700D02*
X116713000Y-26797000D01*
X116713000Y-26797000D02*
X121920000Y-21590000D01*
X116713000Y-46863000D02*
X116713000Y-45837700D01*
G04 #@! TO.N,Net-(D33-Pad2)*
X388620000Y-21590000D02*
X392811000Y-25781000D01*
X392811000Y-25781000D02*
X392811000Y-45085000D01*
G04 #@! TO.N,Net-(D34-Pad2)*
X369570000Y-21590000D02*
X373380000Y-25400000D01*
X373380000Y-25400000D02*
X373380000Y-46863000D01*
G04 #@! TO.N,Net-(D26-Pad2)*
X201930000Y-21590000D02*
X201930000Y-21723800D01*
X201930000Y-21723800D02*
X206622200Y-26416000D01*
X206622200Y-26416000D02*
X207378900Y-26416000D01*
X207378900Y-26416000D02*
X208152100Y-27189200D01*
X208152100Y-27189200D02*
X208152100Y-33218800D01*
X208152100Y-33218800D02*
X207226300Y-34144600D01*
X207226300Y-34144600D02*
X206574900Y-34144600D01*
X206574900Y-34144600D02*
X204724000Y-35995500D01*
X204724000Y-35995500D02*
X204724000Y-46863000D01*
G04 #@! TO.N,/CONTDATA*
X155566200Y-20333000D02*
X148561200Y-20333000D01*
X148561200Y-20333000D02*
X135845400Y-33048800D01*
X135845400Y-33048800D02*
X135845400Y-44744900D01*
X135845400Y-44744900D02*
X123938800Y-56651500D01*
X123938800Y-56651500D02*
X112444700Y-56651500D01*
X112444700Y-56651500D02*
X104521000Y-64575200D01*
X155566200Y-20333000D02*
X155566200Y-20723800D01*
X155566200Y-20723800D02*
X156069100Y-21226700D01*
X156069100Y-21226700D02*
X156718000Y-21226700D01*
X155592700Y-19812000D02*
X155592700Y-20306500D01*
X155592700Y-20306500D02*
X155566200Y-20333000D01*
X31670000Y-86995000D02*
X44189000Y-74476000D01*
X44189000Y-74476000D02*
X58654700Y-74476000D01*
X58654700Y-74476000D02*
X58753400Y-74574700D01*
X156718000Y-19812000D02*
X155592700Y-19812000D01*
X156718000Y-22352000D02*
X156718000Y-21226700D01*
X207010000Y-22606000D02*
X207010000Y-20066000D01*
X354330000Y-19812000D02*
X354330000Y-22352000D01*
G04 #@! TO.N,/ND7*
X64770000Y-41765300D02*
X65051400Y-41765300D01*
X65051400Y-41765300D02*
X65895300Y-42609200D01*
X65895300Y-42609200D02*
X65895300Y-46187700D01*
X65895300Y-46187700D02*
X65226000Y-46857000D01*
X65226000Y-46857000D02*
X59108000Y-46857000D01*
X59108000Y-46857000D02*
X31670000Y-74295000D01*
X207010000Y-24020700D02*
X206121100Y-24020700D01*
X206121100Y-24020700D02*
X202442400Y-20342000D01*
X202442400Y-20342000D02*
X186203600Y-20342000D01*
X186203600Y-20342000D02*
X185437500Y-21108100D01*
X185437500Y-21108100D02*
X185437500Y-25842500D01*
X185437500Y-25842500D02*
X176628100Y-34651900D01*
X176628100Y-34651900D02*
X176628100Y-44547900D01*
X64770000Y-40640000D02*
X64770000Y-41765300D01*
X207010000Y-25146000D02*
X207010000Y-24020700D01*
X219477300Y-26279200D02*
X219710000Y-26511900D01*
X219710000Y-26511900D02*
X219710000Y-39370000D01*
G04 #@! TO.N,/D3*
X88392000Y-83058000D02*
X88392000Y-81932700D01*
X114046000Y-32766000D02*
X114046000Y-33891300D01*
X114046000Y-33891300D02*
X113624000Y-33891300D01*
X113624000Y-33891300D02*
X112820600Y-34694700D01*
X112820600Y-34694700D02*
X112820600Y-43629800D01*
X112820600Y-43629800D02*
X98091000Y-58359400D01*
X98091000Y-58359400D02*
X98091000Y-72515000D01*
X98091000Y-72515000D02*
X88673300Y-81932700D01*
X88673300Y-81932700D02*
X88392000Y-81932700D01*
X397510000Y-68326000D02*
X398635300Y-68326000D01*
X398635300Y-68326000D02*
X398635300Y-67341400D01*
X398635300Y-67341400D02*
X406222700Y-59754000D01*
X406222700Y-59754000D02*
X408036700Y-59754000D01*
G04 #@! TO.N,/ND6*
X182638100Y-40595300D02*
X179349800Y-43883600D01*
X179349800Y-43883600D02*
X179349800Y-44108200D01*
X199390000Y-39370000D02*
X199390000Y-36150000D01*
X199390000Y-36150000D02*
X206728700Y-28811300D01*
X206728700Y-28811300D02*
X207010000Y-28811300D01*
X207010000Y-27686000D02*
X207010000Y-28811300D01*
G04 #@! TO.N,/D2*
X88392000Y-80518000D02*
X88392000Y-79392700D01*
X114046000Y-30226000D02*
X114046000Y-31351300D01*
X114046000Y-31351300D02*
X113764700Y-31351300D01*
X113764700Y-31351300D02*
X112370200Y-32745800D01*
X112370200Y-32745800D02*
X112370200Y-43443300D01*
X112370200Y-43443300D02*
X97640600Y-58172900D01*
X97640600Y-58172900D02*
X97640600Y-70425400D01*
X97640600Y-70425400D02*
X88673300Y-79392700D01*
X88673300Y-79392700D02*
X88392000Y-79392700D01*
X359464900Y-71391900D02*
X361172400Y-73099400D01*
X361950000Y-31097300D02*
X362154500Y-31097300D01*
X362154500Y-31097300D02*
X363300100Y-32242900D01*
X363300100Y-32242900D02*
X363300100Y-51346900D01*
X363300100Y-51346900D02*
X359464900Y-55182100D01*
X359464900Y-55182100D02*
X359464900Y-71391900D01*
X400050000Y-68326000D02*
X400050000Y-67059800D01*
X400050000Y-67059800D02*
X403714700Y-63395100D01*
X361950000Y-29972000D02*
X361950000Y-31097300D01*
X358087100Y-81220500D02*
X358087100Y-90956000D01*
X358087100Y-90956000D02*
X362185091Y-95053991D01*
X362185091Y-95053991D02*
X370518401Y-95053991D01*
X370518401Y-95053991D02*
X371130990Y-95666580D01*
X371130990Y-104778969D02*
X371130990Y-105344654D01*
X371130990Y-95666580D02*
X371130990Y-104778969D01*
X356241600Y-79375000D02*
X358087100Y-81220500D01*
X355526500Y-79375000D02*
X356241600Y-79375000D01*
X354623800Y-78472300D02*
X355526500Y-79375000D01*
X354623800Y-75016900D02*
X354623800Y-78472300D01*
X358248800Y-71391900D02*
X354623800Y-75016900D01*
X359464900Y-71391900D02*
X358248800Y-71391900D01*
G04 #@! TO.N,/ND5*
X31670000Y-55245000D02*
X37542000Y-49373000D01*
X37542000Y-49373000D02*
X44230800Y-49373000D01*
X44230800Y-49373000D02*
X47417500Y-46186300D01*
X47417500Y-46186300D02*
X63178400Y-46186300D01*
X63178400Y-46186300D02*
X63644700Y-45720000D01*
X64770000Y-45720000D02*
X63644700Y-45720000D01*
X207010000Y-31351300D02*
X206728700Y-31351300D01*
X206728700Y-31351300D02*
X200615400Y-37464600D01*
X200615400Y-37464600D02*
X200615400Y-40467000D01*
X200615400Y-40467000D02*
X193153200Y-47929200D01*
X193153200Y-47929200D02*
X180307200Y-47929200D01*
X180307200Y-47929200D02*
X179663400Y-47285400D01*
X179663400Y-47285400D02*
X179663400Y-45399800D01*
X179663400Y-45399800D02*
X179971200Y-45092000D01*
X184150000Y-40595300D02*
X184150000Y-40913200D01*
X184150000Y-40913200D02*
X179971200Y-45092000D01*
X207010000Y-30226000D02*
X207010000Y-31351300D01*
X184150000Y-39370000D02*
X184150000Y-40595300D01*
G04 #@! TO.N,/D1*
X114046000Y-28811300D02*
X113764700Y-28811300D01*
X113764700Y-28811300D02*
X109756200Y-32819800D01*
X109756200Y-32819800D02*
X109756200Y-45420400D01*
X109756200Y-45420400D02*
X92511900Y-62664700D01*
X92511900Y-62664700D02*
X92511900Y-73014100D01*
X92511900Y-73014100D02*
X88673300Y-76852700D01*
X88673300Y-76852700D02*
X88392000Y-76852700D01*
X398780000Y-105664000D02*
X402734600Y-101709400D01*
X402734600Y-101709400D02*
X402734600Y-98144100D01*
X402734600Y-98144100D02*
X407670000Y-93208700D01*
X407670000Y-93208700D02*
X407670000Y-88760000D01*
X407670000Y-88760000D02*
X411361000Y-85069000D01*
X411361000Y-85069000D02*
X411361000Y-79513200D01*
X411361000Y-79513200D02*
X411309700Y-79461900D01*
X402590000Y-67200700D02*
X412529100Y-57261600D01*
X412529100Y-57261600D02*
X412529100Y-51834500D01*
X412529100Y-51834500D02*
X413722900Y-50640700D01*
X413722900Y-50640700D02*
X414830800Y-50640700D01*
X414830800Y-50640700D02*
X415638700Y-51448600D01*
X415638700Y-51448600D02*
X415638700Y-51816000D01*
X361950000Y-27432000D02*
X361950000Y-28557300D01*
X364189100Y-37426400D02*
X364189100Y-30515100D01*
X364189100Y-30515100D02*
X362231300Y-28557300D01*
X362231300Y-28557300D02*
X361950000Y-28557300D01*
X416814000Y-51816000D02*
X415638700Y-51816000D01*
X402590000Y-68326000D02*
X402590000Y-67200700D01*
X88392000Y-77978000D02*
X88392000Y-76852700D01*
X114046000Y-27686000D02*
X114046000Y-28811300D01*
G04 #@! TO.N,/ND4*
X63644700Y-48260000D02*
X58776600Y-48260000D01*
X58776600Y-48260000D02*
X50598400Y-56438200D01*
X64770000Y-48260000D02*
X63644700Y-48260000D01*
X168910000Y-39370000D02*
X168910000Y-40595300D01*
X162973800Y-46491600D02*
X168870100Y-40595300D01*
X168870100Y-40595300D02*
X168910000Y-40595300D01*
X255160700Y-32512000D02*
X253874000Y-33798700D01*
X253874000Y-33798700D02*
X253874000Y-34077000D01*
X256286000Y-32512000D02*
X255160700Y-32512000D01*
G04 #@! TO.N,/D0*
X396361200Y-102108000D02*
X396240000Y-102229200D01*
X396240000Y-102229200D02*
X396240000Y-105664000D01*
X114046000Y-26271300D02*
X113764700Y-26271300D01*
X113764700Y-26271300D02*
X109305900Y-30730100D01*
X109305900Y-30730100D02*
X109305900Y-45205000D01*
X109305900Y-45205000D02*
X90256900Y-64254000D01*
X90256900Y-64254000D02*
X90256900Y-72869800D01*
X90256900Y-72869800D02*
X88814000Y-74312700D01*
X88814000Y-74312700D02*
X88392000Y-74312700D01*
X372364900Y-38662800D02*
X372364900Y-36444900D01*
X372364900Y-36444900D02*
X366693600Y-30773600D01*
X414274000Y-51816000D02*
X414274000Y-52991300D01*
X405130000Y-68326000D02*
X405130000Y-67200700D01*
X405130000Y-67200700D02*
X413098700Y-59232000D01*
X413098700Y-59232000D02*
X413098700Y-53799200D01*
X413098700Y-53799200D02*
X413906600Y-52991300D01*
X413906600Y-52991300D02*
X414274000Y-52991300D01*
X88392000Y-75438000D02*
X88392000Y-74312700D01*
X114046000Y-25146000D02*
X114046000Y-26271300D01*
G04 #@! TO.N,/A0*
X400604700Y-82424700D02*
X401464600Y-81564800D01*
X401464600Y-81564800D02*
X401464600Y-67351900D01*
X401464600Y-67351900D02*
X408762000Y-60054500D01*
X408762000Y-60054500D02*
X408762000Y-54788000D01*
X408762000Y-54788000D02*
X414274000Y-49276000D01*
X400604700Y-82424700D02*
X399562800Y-82424700D01*
X399562800Y-82424700D02*
X398889800Y-83097700D01*
X398889800Y-83097700D02*
X398889800Y-90314200D01*
X398889800Y-90314200D02*
X398780000Y-90424000D01*
X401464700Y-83566000D02*
X401464700Y-83284700D01*
X401464700Y-83284700D02*
X400604700Y-82424700D01*
X402590000Y-83566000D02*
X401464700Y-83566000D01*
G04 #@! TO.N,/A1*
X405130000Y-83566000D02*
X405130000Y-84691300D01*
X405130000Y-84691300D02*
X400050000Y-89771300D01*
X400050000Y-89771300D02*
X400050000Y-90782100D01*
X400050000Y-90782100D02*
X399280700Y-91551400D01*
X399280700Y-91551400D02*
X397367400Y-91551400D01*
X397367400Y-91551400D02*
X396240000Y-90424000D01*
G04 #@! TO.N,/SEL5*
X263187300Y-45830200D02*
X263187300Y-45835400D01*
X263187300Y-45835400D02*
X273860900Y-56509000D01*
X273860900Y-56509000D02*
X289582700Y-56509000D01*
X289582700Y-56509000D02*
X292734100Y-53357600D01*
X292734100Y-53357600D02*
X302473400Y-53357600D01*
X302473400Y-53357600D02*
X306818000Y-57702200D01*
X306818000Y-57702200D02*
X306818000Y-59508600D01*
X306818000Y-59508600D02*
X319249200Y-71939800D01*
X319249200Y-71939800D02*
X330783500Y-71939800D01*
X330783500Y-71939800D02*
X347108700Y-88265000D01*
X106426000Y-36431300D02*
X106848000Y-36431300D01*
X106848000Y-36431300D02*
X107653000Y-37236300D01*
X107653000Y-37236300D02*
X107653000Y-44505500D01*
X107653000Y-44505500D02*
X104861700Y-47296800D01*
X348234000Y-88265000D02*
X347108700Y-88265000D01*
X106426000Y-35306000D02*
X106426000Y-36431300D01*
G04 #@! TO.N,/A2*
X407670000Y-84691300D02*
X402590000Y-89771300D01*
X402590000Y-89771300D02*
X402590000Y-90755600D01*
X402590000Y-90755600D02*
X401316900Y-92028700D01*
X401316900Y-92028700D02*
X395304700Y-92028700D01*
X395304700Y-92028700D02*
X393700000Y-90424000D01*
X407670000Y-83566000D02*
X407670000Y-84691300D01*
G04 #@! TO.N,/SEL4*
X256286000Y-36177300D02*
X256604300Y-36177300D01*
X256604300Y-36177300D02*
X264753900Y-44326900D01*
X264753900Y-44326900D02*
X264753900Y-46765100D01*
X264753900Y-46765100D02*
X274047500Y-56058700D01*
X274047500Y-56058700D02*
X281629900Y-56058700D01*
X281629900Y-56058700D02*
X284790900Y-52897700D01*
X284790900Y-52897700D02*
X302682600Y-52897700D01*
X302682600Y-52897700D02*
X317114600Y-67329700D01*
X317114600Y-67329700D02*
X317114600Y-69168300D01*
X317114600Y-69168300D02*
X318963000Y-71016700D01*
X318963000Y-71016700D02*
X330760200Y-71016700D01*
X330760200Y-71016700D02*
X345468500Y-85725000D01*
X345468500Y-85725000D02*
X348234000Y-85725000D01*
X256286000Y-35052000D02*
X256286000Y-36177300D01*
G04 #@! TO.N,/SEL1*
X305308000Y-35052000D02*
X305308000Y-36177300D01*
X348234000Y-78105000D02*
X340075300Y-78105000D01*
X340075300Y-78105000D02*
X323070300Y-61100000D01*
X323070300Y-61100000D02*
X318845300Y-61100000D01*
X318845300Y-61100000D02*
X310394900Y-52649600D01*
X310394900Y-52649600D02*
X310394900Y-40842200D01*
X310394900Y-40842200D02*
X305730000Y-36177300D01*
X305730000Y-36177300D02*
X305308000Y-36177300D01*
G04 #@! TO.N,/SEL3*
X156718000Y-36177300D02*
X157140000Y-36177300D01*
X157140000Y-36177300D02*
X158132500Y-37169800D01*
X158132500Y-37169800D02*
X158132500Y-59984600D01*
X158132500Y-59984600D02*
X173344700Y-75196800D01*
X156718000Y-35052000D02*
X156718000Y-36177300D01*
G04 #@! TO.N,/SEL2*
X207010000Y-36431300D02*
X207331200Y-36431300D01*
X207331200Y-36431300D02*
X212081600Y-41181700D01*
X212081600Y-41181700D02*
X212081600Y-51295200D01*
X212081600Y-51295200D02*
X218154700Y-57368300D01*
X218154700Y-57368300D02*
X218154700Y-59459600D01*
X218154700Y-59459600D02*
X219795100Y-61100000D01*
X219795100Y-61100000D02*
X222780200Y-61100000D01*
X222780200Y-61100000D02*
X236792800Y-75112600D01*
X207010000Y-35306000D02*
X207010000Y-36431300D01*
G04 #@! TO.N,/SEL0*
X354330000Y-35052000D02*
X353204700Y-35052000D01*
X348234000Y-75565000D02*
X348234000Y-74439700D01*
X348234000Y-74439700D02*
X345038100Y-71243800D01*
X345038100Y-71243800D02*
X345038100Y-57004900D01*
X345038100Y-57004900D02*
X353015300Y-49027700D01*
X353015300Y-49027700D02*
X353015300Y-35241400D01*
X353015300Y-35241400D02*
X353204700Y-35052000D01*
G04 #@! TO.N,/EXEC*
X389172200Y-46995900D02*
X389172200Y-49748800D01*
X389172200Y-49748800D02*
X377659800Y-61261200D01*
X377659800Y-61261200D02*
X376607200Y-61261200D01*
X376607200Y-61261200D02*
X369060000Y-68808400D01*
X369060000Y-68808400D02*
X369060000Y-69445300D01*
X369060000Y-69445300D02*
X364960400Y-73544900D01*
X364960400Y-73544900D02*
X364960400Y-85958500D01*
X274574000Y-128160700D02*
X273448700Y-127035400D01*
X273448700Y-127035400D02*
X273448700Y-109642600D01*
X273448700Y-109642600D02*
X260958800Y-97152700D01*
X274574000Y-129286000D02*
X274574000Y-128160700D01*
G04 #@! TO.N,/DEFER*
X277596200Y-100602100D02*
X290702500Y-87495800D01*
X290702500Y-87495800D02*
X293869300Y-87495800D01*
X293869300Y-87495800D02*
X294597100Y-88223600D01*
X294597100Y-88223600D02*
X294597100Y-88327700D01*
X294597100Y-88327700D02*
X296156500Y-89887100D01*
X296156500Y-89887100D02*
X297224200Y-89887100D01*
X297224200Y-89887100D02*
X302974500Y-84136800D01*
X302974500Y-84136800D02*
X302974500Y-83088800D01*
X302974500Y-83088800D02*
X303767300Y-82296000D01*
X303767300Y-82296000D02*
X304761300Y-82296000D01*
X304761300Y-82296000D02*
X306028100Y-81029200D01*
X306028100Y-81029200D02*
X306028100Y-80107700D01*
X306028100Y-80107700D02*
X314553500Y-71582300D01*
X381417600Y-50281400D02*
X381417600Y-45257700D01*
X381417600Y-45257700D02*
X386080000Y-40595300D01*
X386080000Y-39370000D02*
X386080000Y-40595300D01*
X272034000Y-129286000D02*
X272034000Y-128160700D01*
X262798600Y-100602100D02*
X270908700Y-108712200D01*
X270908700Y-108712200D02*
X270908700Y-127035400D01*
X270908700Y-127035400D02*
X272034000Y-128160700D01*
G04 #@! TO.N,/FETCH*
X293252300Y-74350700D02*
X289313600Y-74350700D01*
X289313600Y-74350700D02*
X281377300Y-82287000D01*
X281377300Y-82287000D02*
X274851400Y-82287000D01*
X274851400Y-82287000D02*
X264940600Y-92197800D01*
X264940600Y-92197800D02*
X252966800Y-92197800D01*
X252966800Y-92197800D02*
X251844100Y-93320500D01*
X269494000Y-129286000D02*
X269494000Y-128160700D01*
X269494000Y-128160700D02*
X268368700Y-127035400D01*
X268368700Y-127035400D02*
X268368700Y-109840200D01*
X268368700Y-109840200D02*
X260268500Y-101740000D01*
X260268500Y-101740000D02*
X257897200Y-101740000D01*
X257897200Y-101740000D02*
X252841600Y-96684400D01*
X252841600Y-96684400D02*
X252841600Y-95945500D01*
G04 #@! TO.N,/RUN*
X365804700Y-21590000D02*
X362745300Y-18530600D01*
X362745300Y-18530600D02*
X361431100Y-18530600D01*
X361431100Y-18530600D02*
X358936800Y-21024900D01*
X358936800Y-21024900D02*
X358936800Y-69495100D01*
X358936800Y-69495100D02*
X354173400Y-74258500D01*
X354173400Y-74258500D02*
X354173400Y-93835000D01*
X354173400Y-93835000D02*
X356575300Y-96236900D01*
X356575300Y-96236900D02*
X356575300Y-110155800D01*
X356575300Y-110155800D02*
X349614000Y-117117100D01*
X349614000Y-117117100D02*
X342236000Y-117117100D01*
X367030000Y-21590000D02*
X365804700Y-21590000D01*
X264414000Y-129286000D02*
X264414000Y-125710500D01*
X264414000Y-125710500D02*
X256401900Y-117698400D01*
G04 #@! TO.N,/ION*
X251118900Y-111388100D02*
X266954000Y-127223200D01*
X266954000Y-127223200D02*
X266954000Y-129286000D01*
X384854700Y-21590000D02*
X381344900Y-18080200D01*
X381344900Y-18080200D02*
X361244600Y-18080200D01*
X361244600Y-18080200D02*
X358119000Y-21205800D01*
X358119000Y-21205800D02*
X358119000Y-68620000D01*
X358119000Y-68620000D02*
X353501700Y-73237300D01*
X353501700Y-73237300D02*
X353501700Y-96433900D01*
X353501700Y-96433900D02*
X354052200Y-96984400D01*
X354052200Y-96984400D02*
X354052200Y-112042000D01*
X354052200Y-112042000D02*
X350157200Y-115937000D01*
X350157200Y-115937000D02*
X342312400Y-115937000D01*
X342312400Y-115937000D02*
X327402900Y-130846500D01*
X327402900Y-130846500D02*
X294216800Y-130846500D01*
X294216800Y-130846500D02*
X293879400Y-130509100D01*
X386080000Y-21590000D02*
X384854700Y-21590000D01*
G04 #@! TO.N,/MSTP*
X49784000Y-76817300D02*
X50065300Y-76817300D01*
X50065300Y-76817300D02*
X51360100Y-78112100D01*
X51360100Y-78112100D02*
X51360100Y-83355500D01*
X51360100Y-83355500D02*
X50133600Y-84582000D01*
X50133600Y-84582000D02*
X48181300Y-84582000D01*
X48181300Y-84582000D02*
X39418300Y-93345000D01*
X39418300Y-93345000D02*
X31670000Y-93345000D01*
X49784000Y-75692000D02*
X49784000Y-76817300D01*
G04 #@! TO.N,/CON+*
X49784000Y-79357300D02*
X50065400Y-79357300D01*
X50065400Y-79357300D02*
X50909300Y-80201200D01*
X50909300Y-80201200D02*
X50909300Y-81244900D01*
X50909300Y-81244900D02*
X50112200Y-82042000D01*
X50112200Y-82042000D02*
X49253800Y-82042000D01*
X49253800Y-82042000D02*
X41125800Y-90170000D01*
X41125800Y-90170000D02*
X31670000Y-90170000D01*
X49784000Y-78232000D02*
X49784000Y-79357300D01*
G04 #@! TO.N,/CONREQ*
X49784000Y-80772000D02*
X48658700Y-80772000D01*
X25400000Y-90170000D02*
X26987500Y-88582500D01*
X26987500Y-88582500D02*
X40848200Y-88582500D01*
X40848200Y-88582500D02*
X48658700Y-80772000D01*
G04 #@! TO.N,/PL*
X25400000Y-96520000D02*
X26987500Y-94932500D01*
X26987500Y-94932500D02*
X39763800Y-94932500D01*
X39763800Y-94932500D02*
X47645000Y-87051300D01*
X47645000Y-87051300D02*
X50276000Y-87051300D01*
X50276000Y-87051300D02*
X55285300Y-82042000D01*
X55285300Y-82042000D02*
X60232400Y-82042000D01*
X60232400Y-82042000D02*
X63182600Y-79091800D01*
G04 #@! TO.N,/ISTP*
X80772000Y-75438000D02*
X80772000Y-76563300D01*
X80772000Y-76563300D02*
X81053300Y-76563300D01*
X81053300Y-76563300D02*
X82341600Y-77851600D01*
X82341600Y-77851600D02*
X82341600Y-83102000D01*
X82341600Y-83102000D02*
X80971000Y-84472600D01*
X80971000Y-84472600D02*
X73979300Y-84472600D01*
X73979300Y-84472600D02*
X73840800Y-84611100D01*
G04 #@! TO.N,/CONINST*
X106426000Y-23731300D02*
X106692900Y-23731300D01*
X106692900Y-23731300D02*
X108855600Y-25894000D01*
X108855600Y-25894000D02*
X108855600Y-45016900D01*
X108855600Y-45016900D02*
X84739900Y-69132600D01*
X84739900Y-69132600D02*
X83940500Y-69132600D01*
X106426000Y-22606000D02*
X106426000Y-23731300D01*
X256286000Y-19812000D02*
X256286000Y-22352000D01*
X211167400Y-20168400D02*
X212510200Y-18825600D01*
X212510200Y-18825600D02*
X215397100Y-18825600D01*
X215397100Y-18825600D02*
X216583900Y-20012400D01*
X106426000Y-20066000D02*
X106426000Y-22606000D01*
G04 #@! TO.N,/ND3*
X105300700Y-25146000D02*
X102059300Y-28387400D01*
X102059300Y-28387400D02*
X97815100Y-28387400D01*
X97815100Y-28387400D02*
X89392800Y-36809700D01*
X89392800Y-36809700D02*
X89392800Y-37053100D01*
X89392800Y-37053100D02*
X79401500Y-47044400D01*
X79401500Y-47044400D02*
X69650900Y-47044400D01*
X69650900Y-47044400D02*
X65895300Y-50800000D01*
X63644700Y-50800000D02*
X36974700Y-77470000D01*
X36974700Y-77470000D02*
X31670000Y-77470000D01*
X156718000Y-24892000D02*
X156718000Y-26017300D01*
X156718000Y-26017300D02*
X156436700Y-26017300D01*
X156436700Y-26017300D02*
X149606000Y-32848000D01*
X149606000Y-32848000D02*
X149606000Y-39370000D01*
X64770000Y-50800000D02*
X65895300Y-50800000D01*
X106426000Y-25146000D02*
X105300700Y-25146000D01*
X64469900Y-50800000D02*
X64770000Y-50800000D01*
X64469900Y-50800000D02*
X63644700Y-50800000D01*
G04 #@! TO.N,/ND2*
X105300700Y-27686000D02*
X104149000Y-28837700D01*
X104149000Y-28837700D02*
X98001700Y-28837700D01*
X98001700Y-28837700D02*
X89843100Y-36996300D01*
X89843100Y-36996300D02*
X89843100Y-37239700D01*
X89843100Y-37239700D02*
X74868200Y-52214600D01*
X74868200Y-52214600D02*
X67628400Y-52214600D01*
X67628400Y-52214600D02*
X66503000Y-53340000D01*
X66503000Y-53340000D02*
X64770000Y-53340000D01*
X63644700Y-53340000D02*
X63644700Y-53352600D01*
X63644700Y-53352600D02*
X53814800Y-63182500D01*
X64770000Y-53340000D02*
X63644700Y-53340000D01*
X134620000Y-39370000D02*
X134620000Y-27649400D01*
X134620000Y-27649400D02*
X134837400Y-27432000D01*
X106426000Y-27686000D02*
X105300700Y-27686000D01*
G04 #@! TO.N,/ND1*
X105300700Y-30226000D02*
X104362700Y-29288000D01*
X104362700Y-29288000D02*
X98203300Y-29288000D01*
X98203300Y-29288000D02*
X91197800Y-36293500D01*
X91197800Y-36293500D02*
X91197800Y-39159400D01*
X91197800Y-39159400D02*
X75602500Y-54754700D01*
X75602500Y-54754700D02*
X67020600Y-54754700D01*
X67020600Y-54754700D02*
X65895300Y-55880000D01*
X64770000Y-55880000D02*
X63644700Y-55880000D01*
X44690500Y-71120000D02*
X51730800Y-64079700D01*
X51730800Y-64079700D02*
X55445000Y-64079700D01*
X55445000Y-64079700D02*
X63644700Y-55880000D01*
X106426000Y-30226000D02*
X105300700Y-30226000D01*
X119380000Y-39370000D02*
X119380000Y-29401400D01*
X119380000Y-29401400D02*
X119445800Y-29335600D01*
X64770000Y-55880000D02*
X65895300Y-55880000D01*
G04 #@! TO.N,/ND0*
X98850700Y-39370000D02*
X98850700Y-39140300D01*
X98850700Y-39140300D02*
X95896000Y-36185600D01*
X95896000Y-36185600D02*
X94825300Y-36185600D01*
X94825300Y-36185600D02*
X93901000Y-37109900D01*
X93901000Y-37109900D02*
X93901000Y-42550500D01*
X93901000Y-42550500D02*
X76906200Y-59545300D01*
X100076000Y-39370000D02*
X98850700Y-39370000D01*
X100076000Y-39370000D02*
X101301300Y-39370000D01*
X106426000Y-32766000D02*
X106426000Y-33891300D01*
X106426000Y-33891300D02*
X106208200Y-33891300D01*
X106208200Y-33891300D02*
X101301300Y-38798200D01*
X101301300Y-38798200D02*
X101301300Y-39370000D01*
G04 #@! TO.N,/ND11*
X70104000Y-29972000D02*
X68978700Y-29972000D01*
X31670000Y-39370000D02*
X48485900Y-39370000D01*
X48485900Y-39370000D02*
X59009200Y-28846700D01*
X59009200Y-28846700D02*
X68134800Y-28846700D01*
X68134800Y-28846700D02*
X68978700Y-29690600D01*
X68978700Y-29690600D02*
X68978700Y-29972000D01*
X283210000Y-39370000D02*
X283210000Y-38144700D01*
X305308000Y-24892000D02*
X304182700Y-24892000D01*
X304182700Y-24892000D02*
X304182700Y-24276600D01*
X304182700Y-24276600D02*
X300270700Y-20364600D01*
X300270700Y-20364600D02*
X299163800Y-20364600D01*
X299163800Y-20364600D02*
X298461600Y-21066800D01*
X298461600Y-21066800D02*
X298461600Y-22893100D01*
X298461600Y-22893100D02*
X283210000Y-38144700D01*
G04 #@! TO.N,/ND10*
X269240000Y-39370000D02*
X269240000Y-40595300D01*
X267502000Y-43100000D02*
X266523100Y-43100000D01*
X266523100Y-43100000D02*
X265922300Y-43700800D01*
X267502000Y-43100000D02*
X280010400Y-55608400D01*
X280010400Y-55608400D02*
X281218000Y-55608400D01*
X281218000Y-55608400D02*
X287747600Y-49078800D01*
X287747600Y-49078800D02*
X293538200Y-49078800D01*
X293538200Y-49078800D02*
X298405400Y-44211600D01*
X298405400Y-44211600D02*
X298405400Y-35178600D01*
X298405400Y-35178600D02*
X305026700Y-28557300D01*
X305026700Y-28557300D02*
X305308000Y-28557300D01*
X267502000Y-43100000D02*
X267502000Y-42333300D01*
X267502000Y-42333300D02*
X269240000Y-40595300D01*
X305308000Y-27432000D02*
X305308000Y-28557300D01*
X72644000Y-29972000D02*
X71518700Y-29972000D01*
X61902300Y-37883400D02*
X68688400Y-31097300D01*
X68688400Y-31097300D02*
X70674800Y-31097300D01*
X70674800Y-31097300D02*
X71518700Y-30253400D01*
X71518700Y-30253400D02*
X71518700Y-29972000D01*
X31670000Y-42545000D02*
X33113700Y-43988700D01*
X33113700Y-43988700D02*
X43744400Y-43988700D01*
X43744400Y-43988700D02*
X45982500Y-41750600D01*
X45982500Y-41750600D02*
X58035100Y-41750600D01*
X58035100Y-41750600D02*
X61902300Y-37883400D01*
G04 #@! TO.N,/ND9*
X25400000Y-45720000D02*
X26926500Y-47246500D01*
X26926500Y-47246500D02*
X39812700Y-47246500D01*
X39812700Y-47246500D02*
X42406000Y-44653200D01*
X42406000Y-44653200D02*
X56645500Y-44653200D01*
X56645500Y-44653200D02*
X63140400Y-38158300D01*
X63140400Y-38158300D02*
X63740000Y-38158300D01*
X250145300Y-39370000D02*
X250145300Y-38873100D01*
X250145300Y-38873100D02*
X255194700Y-33823700D01*
X255194700Y-33823700D02*
X257075400Y-33823700D01*
X257075400Y-33823700D02*
X259657100Y-31242000D01*
X248920000Y-39370000D02*
X250145300Y-39370000D01*
X248920000Y-39370000D02*
X248920000Y-42215300D01*
X248920000Y-42215300D02*
X246609400Y-44525900D01*
X74058700Y-29972000D02*
X74058700Y-30253400D01*
X74058700Y-30253400D02*
X66153800Y-38158300D01*
X66153800Y-38158300D02*
X63740000Y-38158300D01*
X75184000Y-29972000D02*
X74058700Y-29972000D01*
G04 #@! TO.N,/ND8*
X71796200Y-35055800D02*
X67968300Y-38883700D01*
X67968300Y-38883700D02*
X63688800Y-38883700D01*
X63688800Y-38883700D02*
X63598500Y-38974000D01*
X63598500Y-38974000D02*
X63043600Y-38974000D01*
X63043600Y-38974000D02*
X62389400Y-39628200D01*
X62389400Y-39628200D02*
X62307500Y-39628200D01*
X62307500Y-39628200D02*
X56832200Y-45103500D01*
X56832200Y-45103500D02*
X43427800Y-45103500D01*
X43427800Y-45103500D02*
X40566300Y-47965000D01*
X40566300Y-47965000D02*
X38513300Y-47965000D01*
X38513300Y-47965000D02*
X38441500Y-48036800D01*
X38441500Y-48036800D02*
X32528200Y-48036800D01*
X32528200Y-48036800D02*
X31670000Y-48895000D01*
X233680000Y-39370000D02*
X233680000Y-41921400D01*
X233680000Y-41921400D02*
X231560200Y-44041200D01*
X71796200Y-35055800D02*
X76479200Y-39738900D01*
X71796200Y-35055800D02*
X76598700Y-30253300D01*
X76598700Y-30253300D02*
X76598700Y-29972000D01*
X77724000Y-29972000D02*
X76598700Y-29972000D01*
G04 #@! TO.N,/ND12*
X25400000Y-39370000D02*
X26732900Y-40702900D01*
X26732900Y-40702900D02*
X55972700Y-40702900D01*
X55972700Y-40702900D02*
X66438700Y-30236900D01*
X66438700Y-30236900D02*
X66438700Y-29972000D01*
X67564000Y-29972000D02*
X66438700Y-29972000D01*
G04 #@! TO.N,/ND13*
X318770000Y-39370000D02*
X319995300Y-39370000D01*
X319995300Y-39370000D02*
X319995300Y-38742900D01*
X319995300Y-38742900D02*
X328710400Y-30027800D01*
G04 #@! TO.N,/ND14*
X62484000Y-31097300D02*
X58207900Y-35373400D01*
X58207900Y-35373400D02*
X58207900Y-36609600D01*
X332740000Y-39370000D02*
X333965300Y-39370000D01*
X333965300Y-39370000D02*
X333965300Y-39829500D01*
X333965300Y-39829500D02*
X334743400Y-40607600D01*
X334743400Y-40607600D02*
X347749700Y-40607600D01*
X347749700Y-40607600D02*
X347935400Y-40421900D01*
X347935400Y-40421900D02*
X347935400Y-33826600D01*
X347935400Y-33826600D02*
X354330000Y-27432000D01*
X62484000Y-29972000D02*
X62484000Y-31097300D01*
G04 #@! TO.N,/ND15*
X354330000Y-24892000D02*
X354330000Y-26017300D01*
X354330000Y-26017300D02*
X354048700Y-26017300D01*
X354048700Y-26017300D02*
X346710000Y-33356000D01*
X346710000Y-33356000D02*
X346710000Y-39370000D01*
G04 #@! TO.N,/NA7*
X219710000Y-21590000D02*
X219710000Y-22815300D01*
X219710000Y-22815300D02*
X215855400Y-26669900D01*
X215855400Y-26669900D02*
X215855400Y-48699000D01*
X215855400Y-48699000D02*
X214367200Y-50187200D01*
G04 #@! TO.N,/CARRY*
X277114000Y-128160700D02*
X275802100Y-126848800D01*
X275802100Y-126848800D02*
X275802100Y-104563300D01*
X275802100Y-104563300D02*
X264612200Y-93373400D01*
X264612200Y-93373400D02*
X253627200Y-93373400D01*
X80054700Y-39370000D02*
X74974700Y-44450000D01*
X74974700Y-44450000D02*
X71456800Y-44450000D01*
X71456800Y-44450000D02*
X70345300Y-45561500D01*
X31670000Y-96520000D02*
X30340700Y-97849300D01*
X30340700Y-97849300D02*
X24849000Y-97849300D01*
X24849000Y-97849300D02*
X24058600Y-97058900D01*
X24058600Y-97058900D02*
X24058600Y-89586000D01*
X24058600Y-89586000D02*
X25062100Y-88582500D01*
X25062100Y-88582500D02*
X25689900Y-88582500D01*
X25689900Y-88582500D02*
X29309200Y-84963200D01*
X29309200Y-84963200D02*
X29309200Y-77903400D01*
X29309200Y-77903400D02*
X31330100Y-75882500D01*
X31330100Y-75882500D02*
X35252100Y-75882500D01*
X35252100Y-75882500D02*
X60943700Y-50190900D01*
X81280000Y-39370000D02*
X80054700Y-39370000D01*
X277114000Y-129286000D02*
X277114000Y-128160700D01*
G04 #@! TO.N,/NA3*
X149606000Y-22815300D02*
X143744900Y-28676400D01*
X143744900Y-28676400D02*
X143744900Y-44683600D01*
X143744900Y-44683600D02*
X139347000Y-49081500D01*
X149606000Y-21590000D02*
X149606000Y-22815300D01*
X71264700Y-48260000D02*
X70627900Y-48260000D01*
X70627900Y-48260000D02*
X66673300Y-52214600D01*
X66673300Y-52214600D02*
X63360100Y-52214600D01*
X63360100Y-52214600D02*
X53979700Y-61595000D01*
X72390000Y-48260000D02*
X71264700Y-48260000D01*
G04 #@! TO.N,/NA4*
X25400000Y-74295000D02*
X26947000Y-72748000D01*
X26947000Y-72748000D02*
X26947000Y-67585300D01*
X26947000Y-67585300D02*
X31349800Y-63182500D01*
X31349800Y-63182500D02*
X31966900Y-63182500D01*
X31966900Y-63182500D02*
X40450300Y-54699100D01*
X40450300Y-54699100D02*
X40450300Y-53717300D01*
X167684700Y-21590000D02*
X167684700Y-21360300D01*
X167684700Y-21360300D02*
X164869200Y-18544800D01*
X164869200Y-18544800D02*
X163801000Y-18544800D01*
X163801000Y-18544800D02*
X158064600Y-24281200D01*
X158064600Y-24281200D02*
X158064600Y-30225200D01*
X158064600Y-30225200D02*
X157047800Y-31242000D01*
X157047800Y-31242000D02*
X156382900Y-31242000D01*
X156382900Y-31242000D02*
X150831400Y-36793500D01*
X150831400Y-36793500D02*
X150831400Y-43673200D01*
X150831400Y-43673200D02*
X144978900Y-49525700D01*
X168910000Y-21590000D02*
X167684700Y-21590000D01*
G04 #@! TO.N,/NA6*
X199390000Y-22815300D02*
X190822600Y-31382700D01*
X190822600Y-31382700D02*
X190822600Y-47017500D01*
X199390000Y-21590000D02*
X199390000Y-22815300D01*
G04 #@! TO.N,/NA1*
X72390000Y-43180000D02*
X74095200Y-43180000D01*
X74095200Y-43180000D02*
X78869800Y-38405400D01*
X78869800Y-38405400D02*
X78869800Y-28392800D01*
X78869800Y-28392800D02*
X84003300Y-23259300D01*
X84003300Y-23259300D02*
X84003300Y-21927100D01*
X84003300Y-21927100D02*
X87211000Y-18719400D01*
X87211000Y-18719400D02*
X99043500Y-18719400D01*
X71827400Y-43180000D02*
X72390000Y-43180000D01*
X71827400Y-43180000D02*
X71264700Y-43180000D01*
X25400000Y-67945000D02*
X29615100Y-63729900D01*
X29615100Y-63729900D02*
X29615100Y-55374300D01*
X29615100Y-55374300D02*
X31331900Y-53657500D01*
X31331900Y-53657500D02*
X31996800Y-53657500D01*
X31996800Y-53657500D02*
X36790100Y-48864200D01*
X36790100Y-48864200D02*
X41885000Y-48864200D01*
X41885000Y-48864200D02*
X45013300Y-45735900D01*
X45013300Y-45735900D02*
X57473500Y-45735900D01*
X57473500Y-45735900D02*
X63694800Y-39514600D01*
X63694800Y-39514600D02*
X67599300Y-39514600D01*
X67599300Y-39514600D02*
X71264700Y-43180000D01*
G04 #@! TO.N,/NA2*
X71264700Y-45720000D02*
X70695100Y-46289600D01*
X70695100Y-46289600D02*
X69586000Y-46289600D01*
X69586000Y-46289600D02*
X66417800Y-49457800D01*
X66417800Y-49457800D02*
X59256100Y-49457800D01*
X59256100Y-49457800D02*
X38972100Y-69741800D01*
X72390000Y-45720000D02*
X71264700Y-45720000D01*
X134620000Y-22815300D02*
X127164900Y-30270400D01*
X127164900Y-30270400D02*
X127164900Y-45853000D01*
X134620000Y-21590000D02*
X134620000Y-22815300D01*
G04 #@! TO.N,/NA5*
X72390000Y-53340000D02*
X67139900Y-53340000D01*
X67139900Y-53340000D02*
X65869900Y-54610000D01*
X65869900Y-54610000D02*
X63711700Y-54610000D01*
X63711700Y-54610000D02*
X58563900Y-59757800D01*
X184150000Y-22815300D02*
X175426300Y-31539000D01*
X175426300Y-31539000D02*
X175426300Y-47260200D01*
X175426300Y-47260200D02*
X174508800Y-48177700D01*
X184150000Y-21590000D02*
X184150000Y-22815300D01*
G04 #@! TO.N,/NA15*
X319143800Y-56395300D02*
X325601500Y-49937600D01*
X325601500Y-49937600D02*
X328195900Y-49937600D01*
X328195900Y-49937600D02*
X331514600Y-46618900D01*
X331514600Y-46618900D02*
X331514600Y-38010700D01*
X331514600Y-38010700D02*
X346710000Y-22815300D01*
X31670000Y-29845000D02*
X30057100Y-31457900D01*
X30057100Y-31457900D02*
X30057100Y-33671700D01*
X346710000Y-21590000D02*
X346710000Y-22815300D01*
G04 #@! TO.N,/NA11*
X283210000Y-21590000D02*
X283210000Y-22815300D01*
X279133800Y-37766500D02*
X279133800Y-26891500D01*
X279133800Y-26891500D02*
X283210000Y-22815300D01*
X80092400Y-20189900D02*
X84103500Y-16178800D01*
X84103500Y-16178800D02*
X205201100Y-16178800D01*
X205201100Y-16178800D02*
X210034200Y-21011900D01*
X210034200Y-21011900D02*
X210034200Y-37829800D01*
X210034200Y-37829800D02*
X211668300Y-39463900D01*
X67564000Y-22352000D02*
X66438700Y-22352000D01*
X25400000Y-42545000D02*
X24014800Y-41159800D01*
X24014800Y-41159800D02*
X24014800Y-35646100D01*
X24014800Y-35646100D02*
X24794900Y-34866000D01*
X24794900Y-34866000D02*
X40350100Y-34866000D01*
X40350100Y-34866000D02*
X51207200Y-24008900D01*
X51207200Y-24008900D02*
X65063100Y-24008900D01*
X65063100Y-24008900D02*
X66438700Y-22633300D01*
X66438700Y-22633300D02*
X66438700Y-22352000D01*
G04 #@! TO.N,/NA12*
X297180000Y-22815300D02*
X296796500Y-22815300D01*
X296796500Y-22815300D02*
X282030600Y-37581200D01*
X185181300Y-37732700D02*
X183563400Y-36114800D01*
X183563400Y-36114800D02*
X182554900Y-36114800D01*
X297180000Y-21590000D02*
X297180000Y-22815300D01*
X68978700Y-22352000D02*
X68978700Y-22556700D01*
X68978700Y-22556700D02*
X64435600Y-27099800D01*
X64435600Y-27099800D02*
X48753200Y-27099800D01*
X48753200Y-27099800D02*
X39658000Y-36195000D01*
X39658000Y-36195000D02*
X31670000Y-36195000D01*
X70104000Y-22352000D02*
X68978700Y-22352000D01*
G04 #@! TO.N,/NA14*
X75184000Y-21226700D02*
X80682300Y-15728400D01*
X80682300Y-15728400D02*
X225424000Y-15728400D01*
X225424000Y-15728400D02*
X226310700Y-16615100D01*
X75184000Y-21226700D02*
X49921500Y-21226700D01*
X49921500Y-21226700D02*
X36732700Y-34415500D01*
X36732700Y-34415500D02*
X24608500Y-34415500D01*
X24608500Y-34415500D02*
X23564400Y-35459600D01*
X23564400Y-35459600D02*
X23564400Y-59759400D01*
X23564400Y-59759400D02*
X25400000Y-61595000D01*
X75184000Y-22352000D02*
X75184000Y-21226700D01*
G04 #@! TO.N,/NA9*
X62484000Y-22352000D02*
X61358700Y-22352000D01*
X39596200Y-34133100D02*
X50252000Y-23477300D01*
X50252000Y-23477300D02*
X60514800Y-23477300D01*
X60514800Y-23477300D02*
X61358700Y-22633400D01*
X61358700Y-22633400D02*
X61358700Y-22352000D01*
G04 #@! TO.N,/NA10*
X76103500Y-55595800D02*
X91648100Y-40051200D01*
X91648100Y-40051200D02*
X91648100Y-36480100D01*
X91648100Y-36480100D02*
X98088600Y-30039600D01*
X98088600Y-30039600D02*
X100143400Y-30039600D01*
X31670000Y-80645000D02*
X36202600Y-80645000D01*
X36202600Y-80645000D02*
X48988300Y-67859300D01*
X48988300Y-67859300D02*
X52377200Y-67859300D01*
X52377200Y-67859300D02*
X63086500Y-57150000D01*
X63086500Y-57150000D02*
X74549300Y-57150000D01*
X74549300Y-57150000D02*
X76103500Y-55595800D01*
X270465300Y-21590000D02*
X270465300Y-22049600D01*
X270465300Y-22049600D02*
X271231000Y-22815300D01*
X271231000Y-22815300D02*
X272306700Y-22815300D01*
X272306700Y-22815300D02*
X273023000Y-22099000D01*
X273023000Y-22099000D02*
X273023000Y-21094900D01*
X273023000Y-21094900D02*
X270042000Y-18113900D01*
X270042000Y-18113900D02*
X250133600Y-18113900D01*
X250133600Y-18113900D02*
X234905400Y-33342100D01*
X234905400Y-33342100D02*
X234905400Y-44721300D01*
X234905400Y-44721300D02*
X231721900Y-47904800D01*
X269240000Y-21590000D02*
X270465300Y-21590000D01*
G04 #@! TO.N,/NA13*
X101308400Y-51512900D02*
X101697900Y-51512900D01*
X101697900Y-51512900D02*
X108127200Y-45083600D01*
X108127200Y-45083600D02*
X108127200Y-31593600D01*
X317544700Y-21590000D02*
X314541300Y-18586600D01*
X314541300Y-18586600D02*
X297909500Y-18586600D01*
X297909500Y-18586600D02*
X281290700Y-35205400D01*
X281290700Y-35205400D02*
X281290700Y-44326100D01*
X71518700Y-22352000D02*
X71518700Y-22556500D01*
X71518700Y-22556500D02*
X65678900Y-28396300D01*
X65678900Y-28396300D02*
X56871400Y-28396300D01*
X56871400Y-28396300D02*
X47740700Y-37527000D01*
X47740700Y-37527000D02*
X26732000Y-37527000D01*
X26732000Y-37527000D02*
X25400000Y-36195000D01*
X318770000Y-21590000D02*
X317544700Y-21590000D01*
X72644000Y-22352000D02*
X71518700Y-22352000D01*
G04 #@! TO.N,Net-(A1-Pad27)*
X388874000Y-63754000D02*
X387698700Y-63754000D01*
X384810000Y-68326000D02*
X384810000Y-67200700D01*
X384810000Y-67200700D02*
X387698700Y-64312000D01*
X387698700Y-64312000D02*
X387698700Y-63754000D01*
G04 #@! TO.N,Net-(A1-Pad30)*
X376936000Y-63754000D02*
X376936000Y-64929300D01*
X377190000Y-68326000D02*
X377190000Y-65183300D01*
X377190000Y-65183300D02*
X376936000Y-64929300D01*
G04 #@! TO.N,/ENLCD1*
X397510000Y-83566000D02*
X397510000Y-84691300D01*
X397510000Y-84691300D02*
X398370600Y-85551900D01*
X398370600Y-85551900D02*
X398370600Y-86402000D01*
X398370600Y-86402000D02*
X396513600Y-88259000D01*
X396513600Y-88259000D02*
X394263900Y-88259000D01*
X394263900Y-88259000D02*
X392535700Y-89987200D01*
X392535700Y-89987200D02*
X392535700Y-90877100D01*
X392535700Y-90877100D02*
X394137700Y-92479100D01*
X394137700Y-92479100D02*
X401804900Y-92479100D01*
X401804900Y-92479100D02*
X403860000Y-90424000D01*
X416814000Y-50451300D02*
X417181300Y-50451300D01*
X417181300Y-50451300D02*
X418006400Y-51276400D01*
X418006400Y-51276400D02*
X418006400Y-71496000D01*
X418006400Y-71496000D02*
X408866100Y-80636300D01*
X408866100Y-80636300D02*
X408866100Y-84985200D01*
X408866100Y-84985200D02*
X403860000Y-89991300D01*
X403860000Y-89991300D02*
X403860000Y-90424000D01*
X416814000Y-49276000D02*
X416814000Y-50451300D01*
G04 #@! TO.N,/ENLCD2*
X416814000Y-58071300D02*
X416814000Y-71852900D01*
X416814000Y-71852900D02*
X406271000Y-82395900D01*
X400050000Y-83566000D02*
X401196500Y-84712500D01*
X401196500Y-84712500D02*
X403109400Y-84712500D01*
X403109400Y-84712500D02*
X403860000Y-83961900D01*
X403860000Y-83961900D02*
X403860000Y-83243000D01*
X403860000Y-83243000D02*
X404707100Y-82395900D01*
X404707100Y-82395900D02*
X406271000Y-82395900D01*
X406271000Y-82395900D02*
X406271000Y-84595000D01*
X406271000Y-84595000D02*
X401320000Y-89546000D01*
X401320000Y-89546000D02*
X401320000Y-90424000D01*
X416814000Y-56896000D02*
X416814000Y-58071300D01*
D28*
G04 #@! TO.N,/VCC*
X95377000Y-41148000D02*
X95377000Y-43053000D01*
X95377000Y-43053000D02*
X72390000Y-66040000D01*
X315849000Y-54483000D02*
X311327600Y-49961600D01*
X311327600Y-49961600D02*
X311327600Y-21412400D01*
X311327600Y-21412400D02*
X312928000Y-19812000D01*
X97286800Y-124477200D02*
X66742900Y-124477200D01*
X66742900Y-124477200D02*
X65405000Y-123139300D01*
X111379000Y-121793000D02*
X109397700Y-119811700D01*
X109397700Y-119811700D02*
X101824000Y-119811700D01*
X101824000Y-119811700D02*
X99136400Y-122499300D01*
X99136400Y-122499300D02*
X99136400Y-122627600D01*
X99136400Y-122627600D02*
X97286800Y-124477200D01*
X97286800Y-124477200D02*
X97286800Y-127894500D01*
X97286800Y-127894500D02*
X99822000Y-130429700D01*
X72390000Y-71120000D02*
X70779100Y-69509100D01*
X70779100Y-69509100D02*
X70779100Y-67650900D01*
X70779100Y-67650900D02*
X72390000Y-66040000D01*
X72390000Y-71120000D02*
X72390000Y-73660000D01*
X65405000Y-123139300D02*
X62661000Y-123139300D01*
X62661000Y-123139300D02*
X58800300Y-127000000D01*
X65405000Y-121539000D02*
X65405000Y-123139300D01*
X57150000Y-127000000D02*
X58800300Y-127000000D01*
X301752000Y-125984000D02*
X296672000Y-125984000D01*
X296672000Y-125984000D02*
X292354000Y-121666000D01*
X152654000Y-81026000D02*
X154482700Y-81026000D01*
X154482700Y-81026000D02*
X157784700Y-84328000D01*
X31670000Y-26670000D02*
X36531700Y-31531700D01*
X36531700Y-31531700D02*
X36531700Y-32932800D01*
X360438800Y-75565000D02*
X364667700Y-71336100D01*
X364667700Y-71336100D02*
X364667700Y-69596000D01*
X406830400Y-27900000D02*
X406830400Y-26464700D01*
X406830400Y-26464700D02*
X399542000Y-19176300D01*
X406830400Y-44654600D02*
X406830400Y-27900000D01*
X412954700Y-27900000D02*
X406830400Y-27900000D01*
X399542000Y-17526000D02*
X399542000Y-19176300D01*
X398653000Y-52832000D02*
X406830400Y-44654600D01*
X406830400Y-44654600D02*
X416382900Y-44654600D01*
X416382900Y-44654600D02*
X416814000Y-45085700D01*
X375174200Y-90077500D02*
X375335700Y-89916000D01*
X360438800Y-75565000D02*
X360438800Y-83156000D01*
X360438800Y-83156000D02*
X367360300Y-90077500D01*
X367360300Y-90077500D02*
X375174200Y-90077500D01*
X376936000Y-89916000D02*
X375335700Y-89916000D01*
X360438800Y-75565000D02*
X357454300Y-75565000D01*
X362204000Y-54356000D02*
X364667700Y-56819700D01*
X364667700Y-56819700D02*
X364667700Y-69596000D01*
X355854000Y-75565000D02*
X357454300Y-75565000D01*
X367728500Y-48831500D02*
X365329600Y-46432600D01*
X365329600Y-46432600D02*
X365329600Y-37983400D01*
X365329600Y-37983400D02*
X365389400Y-37923600D01*
X365389400Y-37923600D02*
X365389400Y-23251400D01*
X365389400Y-23251400D02*
X361950000Y-19812000D01*
X318008000Y-81026000D02*
X324027700Y-81026000D01*
X325628000Y-81026000D02*
X324027700Y-81026000D01*
X280543000Y-54483000D02*
X277766100Y-51706100D01*
X277766100Y-51706100D02*
X277766100Y-33672100D01*
X277766100Y-33672100D02*
X263906000Y-19812000D01*
X180086000Y-126230000D02*
X125610300Y-126230000D01*
X125610300Y-126230000D02*
X124840300Y-127000000D01*
X191770000Y-127000000D02*
X180856000Y-127000000D01*
X180856000Y-127000000D02*
X180086000Y-126230000D01*
X180086000Y-126230000D02*
X180086000Y-121920000D01*
X123190000Y-127000000D02*
X124840300Y-127000000D01*
X139954000Y-88646000D02*
X139954000Y-87045700D01*
X145034000Y-81026000D02*
X145034000Y-82626300D01*
X145034000Y-82626300D02*
X140614600Y-87045700D01*
X140614600Y-87045700D02*
X139954000Y-87045700D01*
X114046000Y-20066000D02*
X115646300Y-20066000D01*
X124460000Y-54483000D02*
X125960300Y-52982700D01*
X125960300Y-52982700D02*
X125960300Y-23210700D01*
X125960300Y-23210700D02*
X122639200Y-19889600D01*
X122639200Y-19889600D02*
X115822700Y-19889600D01*
X115822700Y-19889600D02*
X115646300Y-20066000D01*
X416814000Y-46736000D02*
X416814000Y-45085700D01*
X345948000Y-113411000D02*
X345948000Y-111810700D01*
X345948000Y-111810700D02*
X346230100Y-111528600D01*
X346230100Y-111528600D02*
X346230100Y-97429800D01*
X346230100Y-97429800D02*
X344355300Y-95555000D01*
X314960000Y-81026000D02*
X313359700Y-81026000D01*
X307340000Y-83566000D02*
X310819700Y-83566000D01*
X310819700Y-83566000D02*
X313359700Y-81026000D01*
X293370000Y-81026000D02*
X291769700Y-81026000D01*
X285750000Y-86106000D02*
X287350300Y-86106000D01*
X291769700Y-81026000D02*
X291769700Y-81686600D01*
X291769700Y-81686600D02*
X287350300Y-86106000D01*
X159385000Y-84328000D02*
X157784700Y-84328000D01*
X100203000Y-20747600D02*
X100203000Y-22051000D01*
X112445700Y-20066000D02*
X109523600Y-17143900D01*
X109523600Y-17143900D02*
X103806700Y-17143900D01*
X103806700Y-17143900D02*
X100203000Y-20747600D01*
X100203000Y-20747600D02*
X92028400Y-20747600D01*
X92028400Y-20747600D02*
X90424000Y-22352000D01*
X90424000Y-22352000D02*
X88809600Y-20737600D01*
X88809600Y-20737600D02*
X86958400Y-20737600D01*
X86958400Y-20737600D02*
X85344000Y-22352000D01*
X85344000Y-22352000D02*
X85344000Y-23952300D01*
X85344000Y-23952300D02*
X84683400Y-23952300D01*
X84683400Y-23952300D02*
X80264000Y-28371700D01*
X80264000Y-29972000D02*
X80264000Y-28371700D01*
X216916000Y-54483000D02*
X213024600Y-50591600D01*
X213024600Y-50591600D02*
X213024600Y-35555200D01*
X213024600Y-35555200D02*
X211724300Y-34254900D01*
X211724300Y-34254900D02*
X211724300Y-22971700D01*
X211724300Y-22971700D02*
X214630000Y-20066000D01*
X64770000Y-60960000D02*
X57404000Y-68326000D01*
X57404000Y-68326000D02*
X57404000Y-70612000D01*
X111379000Y-125984000D02*
X112908000Y-127513000D01*
X112908000Y-127513000D02*
X121026700Y-127513000D01*
X121026700Y-127513000D02*
X121539700Y-127000000D01*
X289814000Y-123266300D02*
X289153400Y-123266300D01*
X289153400Y-123266300D02*
X284734000Y-127685700D01*
X342755000Y-95555000D02*
X344355300Y-95555000D01*
X304292000Y-81026000D02*
X304292000Y-56769000D01*
X304292000Y-56769000D02*
X302006000Y-54483000D01*
X367728500Y-48831500D02*
X362204000Y-54356000D01*
X30734000Y-19304000D02*
X30734000Y-25734000D01*
X30734000Y-25734000D02*
X31670000Y-26670000D01*
X113447900Y-20066000D02*
X114046000Y-20066000D01*
X113447900Y-20066000D02*
X112445700Y-20066000D01*
X111379000Y-121793000D02*
X111379000Y-125984000D01*
X339090000Y-83820000D02*
X336296000Y-81026000D01*
X336296000Y-81026000D02*
X325628000Y-81026000D01*
X339090000Y-87630000D02*
X339090000Y-83820000D01*
X367728500Y-48831500D02*
X373380000Y-54483000D01*
X260476300Y-130789400D02*
X260611100Y-130924200D01*
X260611100Y-130924200D02*
X283095800Y-130924200D01*
X283095800Y-130924200D02*
X284734000Y-129286000D01*
X260476300Y-127000000D02*
X260476300Y-130789400D01*
X260476300Y-130789400D02*
X260047100Y-131218600D01*
X260047100Y-131218600D02*
X255297600Y-131218600D01*
X255297600Y-131218600D02*
X245999000Y-121920000D01*
X342755000Y-93954700D02*
X339090000Y-90289700D01*
X339090000Y-90289700D02*
X339090000Y-87630000D01*
X382778000Y-54483000D02*
X373380000Y-54483000D01*
X342755000Y-95555000D02*
X342755000Y-93954700D01*
X326390000Y-127000000D02*
X324739700Y-127000000D01*
X324739700Y-127000000D02*
X324739700Y-125857700D01*
X324739700Y-125857700D02*
X320802000Y-121920000D01*
X258826000Y-127000000D02*
X260476300Y-127000000D01*
X123190000Y-127000000D02*
X121539700Y-127000000D01*
X99822000Y-132080000D02*
X99822000Y-130429700D01*
X241554000Y-88646000D02*
X241554000Y-87045700D01*
X246634000Y-81026000D02*
X246634000Y-82626300D01*
X241554000Y-87045700D02*
X242214600Y-87045700D01*
X242214600Y-87045700D02*
X246634000Y-82626300D01*
X72390000Y-73660000D02*
X72390000Y-75260300D01*
X72390000Y-75260300D02*
X70866000Y-76784300D01*
X70866000Y-76784300D02*
X70866000Y-80772000D01*
X289814000Y-121666000D02*
X289814000Y-123266300D01*
X284734000Y-129286000D02*
X284734000Y-127685700D01*
X80264000Y-29972000D02*
X87503000Y-37211000D01*
X87503000Y-37211000D02*
X87630000Y-37211000D01*
X366268000Y-69596000D02*
X364667700Y-69596000D01*
X160782000Y-54403000D02*
X160782000Y-52802700D01*
X164338000Y-19812000D02*
X159181700Y-24968300D01*
X159181700Y-24968300D02*
X159181700Y-51202400D01*
X159181700Y-51202400D02*
X160782000Y-52802700D01*
X97920800Y-121412000D02*
X99136400Y-122627600D01*
X97536000Y-121412000D02*
X97920800Y-121412000D01*
X387604000Y-130877919D02*
X387604000Y-132080000D01*
X387604000Y-125732002D02*
X387604000Y-130877919D01*
X375321011Y-113449013D02*
X387604000Y-125732002D01*
X375321011Y-102740848D02*
X375321011Y-113449013D01*
X375174200Y-102594037D02*
X375321011Y-102740848D01*
X375174200Y-90077500D02*
X375174200Y-102594037D01*
G04 #@! TO.N,/GND*
X87884000Y-23952300D02*
X83464600Y-28371700D01*
X83464600Y-28371700D02*
X82804000Y-28371700D01*
X92964000Y-22352000D02*
X91363700Y-23952300D01*
X91363700Y-23952300D02*
X87884000Y-23952300D01*
X82804000Y-29972000D02*
X82804000Y-28371700D01*
X87884000Y-22352000D02*
X87884000Y-23952300D01*
X43307000Y-53679700D02*
X42178800Y-53679700D01*
X42178800Y-53679700D02*
X39473100Y-50974000D01*
X39473100Y-50974000D02*
X37846000Y-50974000D01*
X25400000Y-26670000D02*
X25734000Y-26336000D01*
X25734000Y-26336000D02*
X25734000Y-19304000D01*
X25409300Y-76850400D02*
X22633000Y-74074200D01*
X22633000Y-74074200D02*
X22633000Y-29437000D01*
X22633000Y-29437000D02*
X25400000Y-26670000D01*
X348399900Y-113411000D02*
X348399900Y-110862900D01*
X348399900Y-110862900D02*
X347719800Y-110182800D01*
X347719800Y-110182800D02*
X347719800Y-95459500D01*
X347719800Y-95459500D02*
X348234000Y-94945300D01*
X335211000Y-115011600D02*
X347149900Y-115011600D01*
X347149900Y-115011600D02*
X348399900Y-113761600D01*
X348399900Y-113761600D02*
X348399900Y-113411000D01*
X348399900Y-113411000D02*
X350948000Y-113411000D01*
X335211000Y-115011600D02*
X335211000Y-115011300D01*
X335211000Y-115011300D02*
X335135000Y-114935300D01*
X326390000Y-129540000D02*
X335211000Y-120719000D01*
X335211000Y-120719000D02*
X335211000Y-115011600D01*
X348234000Y-93345000D02*
X348234000Y-94945300D01*
X347980000Y-70600300D02*
X349848600Y-72468900D01*
X349848600Y-72468900D02*
X349848600Y-91730400D01*
X349848600Y-91730400D02*
X348234000Y-93345000D01*
X282242900Y-85472800D02*
X281606000Y-84836000D01*
X284149700Y-88646000D02*
X284149700Y-87379700D01*
X284149700Y-87379700D02*
X282242900Y-85472800D01*
X282242900Y-85472800D02*
X284149700Y-83566000D01*
X285750000Y-83566000D02*
X284149700Y-83566000D01*
X285750000Y-83566000D02*
X285750000Y-81026000D01*
X97282000Y-132080000D02*
X95631700Y-132080000D01*
X80645000Y-129159000D02*
X92710700Y-129159000D01*
X92710700Y-129159000D02*
X95631700Y-132080000D01*
X416560000Y-90424000D02*
X416560000Y-92024300D01*
X415290000Y-113030000D02*
X418160300Y-110159700D01*
X418160300Y-110159700D02*
X418160300Y-93624600D01*
X418160300Y-93624600D02*
X416560000Y-92024300D01*
X376936000Y-94916000D02*
X376936000Y-112696000D01*
X376936000Y-112696000D02*
X386334000Y-122094000D01*
X306752000Y-125984000D02*
X310308000Y-129540000D01*
X310308000Y-129540000D02*
X326390000Y-129540000D01*
X335135000Y-113335000D02*
X335135000Y-114935300D01*
X107773800Y-129540000D02*
X107773800Y-126649800D01*
X107773800Y-126649800D02*
X102536000Y-121412000D01*
X97282000Y-132080000D02*
X98972000Y-133770000D01*
X98972000Y-133770000D02*
X105592100Y-133770000D01*
X105592100Y-133770000D02*
X107773800Y-131588300D01*
X107773800Y-131588300D02*
X107773800Y-129540000D01*
X121539700Y-129540000D02*
X107773800Y-129540000D01*
X123190000Y-129540000D02*
X121539700Y-129540000D01*
X64975200Y-79881100D02*
X64382900Y-79288900D01*
X64382900Y-79288900D02*
X64382900Y-78594600D01*
X64382900Y-78594600D02*
X60082100Y-74293800D01*
X60082100Y-74293800D02*
X60082100Y-74205900D01*
X60082100Y-74205900D02*
X59250600Y-73374400D01*
X59250600Y-73374400D02*
X59226700Y-73374400D01*
X59226700Y-73374400D02*
X59004300Y-73152000D01*
X79971900Y-70358000D02*
X80772000Y-71158100D01*
X80772000Y-71158100D02*
X80772000Y-72898000D01*
X79971900Y-70358000D02*
X79171700Y-70358000D01*
X80772000Y-70358000D02*
X79971900Y-70358000D01*
X86130800Y-73558900D02*
X86791700Y-72898000D01*
X88392000Y-85598000D02*
X86130800Y-83336800D01*
X86130800Y-83336800D02*
X86130800Y-73558900D01*
X86130800Y-73558900D02*
X83033200Y-73558900D01*
X83033200Y-73558900D02*
X82372300Y-72898000D01*
X80772000Y-72898000D02*
X82372300Y-72898000D01*
X354330000Y-39192300D02*
X356489000Y-41351300D01*
X356489000Y-41351300D02*
X356489000Y-49356000D01*
X304292000Y-83566000D02*
X304800000Y-83566000D01*
X304800000Y-83566000D02*
X307340000Y-81026000D01*
X82372300Y-88138000D02*
X88392000Y-88138000D01*
X25400000Y-77470000D02*
X25409300Y-77460700D01*
X25409300Y-77460700D02*
X25409300Y-76850500D01*
X25409300Y-76850500D02*
X25409300Y-76850400D01*
X31670000Y-67945000D02*
X28039400Y-71575600D01*
X28039400Y-71575600D02*
X28039400Y-74220300D01*
X28039400Y-74220300D02*
X25409300Y-76850400D01*
X414274000Y-46736000D02*
X412623700Y-46736000D01*
X395224000Y-63754000D02*
X396874300Y-63754000D01*
X396874300Y-63754000D02*
X396874300Y-62485400D01*
X396874300Y-62485400D02*
X412623700Y-46736000D01*
X368046000Y-78232000D02*
X368046000Y-72818000D01*
X368046000Y-72818000D02*
X371268000Y-69596000D01*
X347980000Y-68300000D02*
X347980000Y-70600300D01*
X347980000Y-67149800D02*
X347980000Y-68300000D01*
X307340000Y-88646000D02*
X308940300Y-88646000D01*
X308940300Y-88646000D02*
X310550500Y-90256200D01*
X310550500Y-90256200D02*
X316397800Y-90256200D01*
X316397800Y-90256200D02*
X318008000Y-88646000D01*
X258826000Y-129540000D02*
X257175700Y-129540000D01*
X257175700Y-129540000D02*
X257175700Y-127889700D01*
X257175700Y-127889700D02*
X242316000Y-113030000D01*
X214630000Y-22606000D02*
X216230300Y-22606000D01*
X216230300Y-22606000D02*
X216230300Y-22105900D01*
X216230300Y-22105900D02*
X219286200Y-19050000D01*
X219286200Y-19050000D02*
X242316000Y-19050000D01*
X214630000Y-35306000D02*
X213027200Y-33703200D01*
X213027200Y-33703200D02*
X213027200Y-24208800D01*
X213027200Y-24208800D02*
X214630000Y-22606000D01*
X214630000Y-37846000D02*
X214630000Y-35306000D01*
X150114000Y-81026000D02*
X149174300Y-81026000D01*
X164385000Y-84328000D02*
X162776200Y-85936800D01*
X162776200Y-85936800D02*
X155024800Y-85936800D01*
X155024800Y-85936800D02*
X150114000Y-81026000D01*
X147574000Y-81026000D02*
X149174300Y-81026000D01*
X88392000Y-72898000D02*
X86791700Y-72898000D01*
X77712800Y-68580000D02*
X77712800Y-67067200D01*
X77712800Y-67067200D02*
X95250000Y-49530000D01*
X79171700Y-70358000D02*
X77712800Y-68899100D01*
X77712800Y-68899100D02*
X77712800Y-68580000D01*
X77712800Y-68580000D02*
X72390000Y-68580000D01*
X49022000Y-49530000D02*
X44872300Y-53679700D01*
X44872300Y-53679700D02*
X43307000Y-53679700D01*
X43307000Y-53679700D02*
X43307000Y-57070000D01*
X31670000Y-67945000D02*
X32432000Y-67945000D01*
X32432000Y-67945000D02*
X43307000Y-57070000D01*
X335135000Y-113335000D02*
X335135000Y-110795000D01*
X100203000Y-27051000D02*
X103602600Y-23651400D01*
X103602600Y-23651400D02*
X103602600Y-20100300D01*
X103602600Y-20100300D02*
X105237300Y-18465600D01*
X105237300Y-18465600D02*
X108305300Y-18465600D01*
X108305300Y-18465600D02*
X112445700Y-22606000D01*
X295071700Y-83566000D02*
X295071700Y-87045700D01*
X295071700Y-87045700D02*
X296672000Y-88646000D01*
X305308000Y-37592000D02*
X305308000Y-45546000D01*
X305308000Y-45546000D02*
X309118000Y-49356000D01*
X320040000Y-68300000D02*
X320040000Y-65999700D01*
X320040000Y-65999700D02*
X318027200Y-65999700D01*
X318027200Y-65999700D02*
X307517600Y-55490100D01*
X307517600Y-55490100D02*
X307517600Y-50956400D01*
X307517600Y-50956400D02*
X309118000Y-49356000D01*
X295071700Y-83566000D02*
X294970300Y-83566000D01*
X298450000Y-70600300D02*
X295071700Y-73978600D01*
X295071700Y-73978600D02*
X295071700Y-83566000D01*
X293370000Y-83566000D02*
X294970300Y-83566000D01*
X298450000Y-68300000D02*
X298450000Y-70600300D01*
X270510000Y-68300000D02*
X270510000Y-65999700D01*
X270510000Y-65999700D02*
X268712900Y-65999700D01*
X268712900Y-65999700D02*
X263997600Y-61284400D01*
X263997600Y-61284400D02*
X263997600Y-53257600D01*
X263997600Y-53257600D02*
X260223000Y-49483000D01*
X207010000Y-37846000D02*
X207010000Y-39446300D01*
X210820000Y-49483000D02*
X210820000Y-43256300D01*
X210820000Y-43256300D02*
X207010000Y-39446300D01*
X220980000Y-68300000D02*
X217182300Y-64502300D01*
X217182300Y-64502300D02*
X217182300Y-57704600D01*
X217182300Y-57704600D02*
X210820000Y-51342300D01*
X210820000Y-51342300D02*
X210820000Y-49483000D01*
X147574000Y-81026000D02*
X147574000Y-82626300D01*
X142494000Y-88646000D02*
X142494000Y-87045700D01*
X142494000Y-87045700D02*
X146913400Y-82626300D01*
X146913400Y-82626300D02*
X147574000Y-82626300D01*
X114046000Y-22606000D02*
X112445700Y-22606000D01*
X114046000Y-35306000D02*
X115664800Y-33687200D01*
X115664800Y-33687200D02*
X115664800Y-24224800D01*
X115664800Y-24224800D02*
X114046000Y-22606000D01*
X64975200Y-79881100D02*
X65866000Y-80772000D01*
X64975200Y-79881100D02*
X59004300Y-85852000D01*
X57404000Y-85852000D02*
X59004300Y-85852000D01*
X55499600Y-116856600D02*
X51673000Y-113030000D01*
X51673000Y-113030000D02*
X43180000Y-113030000D01*
X57150000Y-129540000D02*
X55499600Y-127889600D01*
X55499600Y-127889600D02*
X55499600Y-116856600D01*
X59817700Y-114300000D02*
X57261100Y-116856600D01*
X57261100Y-116856600D02*
X55499600Y-116856600D01*
X61468000Y-114300000D02*
X59817700Y-114300000D01*
X41654700Y-111504700D02*
X43180000Y-113030000D01*
X57404000Y-85852000D02*
X57404000Y-86791700D01*
X57404000Y-88392000D02*
X57404000Y-86791700D01*
X80772000Y-88138000D02*
X82372300Y-88138000D01*
X287274000Y-129286000D02*
X288950600Y-127609400D01*
X288950600Y-127609400D02*
X289666400Y-127609400D01*
X289666400Y-127609400D02*
X289691400Y-127584400D01*
X289691400Y-127584400D02*
X302925700Y-127584400D01*
X302925700Y-127584400D02*
X304506300Y-126003800D01*
X384810000Y-83566000D02*
X384810000Y-81965700D01*
X379730000Y-69926300D02*
X384810000Y-75006300D01*
X384810000Y-75006300D02*
X384810000Y-81965700D01*
X379730000Y-69926300D02*
X371598300Y-69926300D01*
X371598300Y-69926300D02*
X371268000Y-69596000D01*
X347980000Y-67149800D02*
X347980000Y-65999700D01*
X356489000Y-49356000D02*
X354319400Y-51525600D01*
X354319400Y-51525600D02*
X354319400Y-61491200D01*
X354319400Y-61491200D02*
X349810900Y-65999700D01*
X349810900Y-65999700D02*
X347980000Y-65999700D01*
X256286000Y-39192300D02*
X260223000Y-43129300D01*
X260223000Y-43129300D02*
X260223000Y-49483000D01*
X170180000Y-68300000D02*
X162382400Y-60502400D01*
X162382400Y-60502400D02*
X162382400Y-51003400D01*
X162382400Y-51003400D02*
X160782000Y-49403000D01*
X304506300Y-126003800D02*
X304506300Y-126003900D01*
X304506300Y-126003900D02*
X304932900Y-126003900D01*
X304932900Y-126003900D02*
X304952800Y-125984000D01*
X304952800Y-125984000D02*
X306752000Y-125984000D01*
X397256000Y-132080000D02*
X397256000Y-130429700D01*
X397256000Y-130429700D02*
X392557000Y-125730700D01*
X392557000Y-125730700D02*
X392557000Y-121920000D01*
X285750000Y-88646000D02*
X284149700Y-88646000D01*
X335135000Y-110795000D02*
X335135000Y-108255000D01*
X312928000Y-35052000D02*
X312928000Y-37592000D01*
X312928000Y-22352000D02*
X314529000Y-23953000D01*
X314529000Y-23953000D02*
X314529000Y-33451000D01*
X314529000Y-33451000D02*
X312928000Y-35052000D01*
X88392000Y-85598000D02*
X88392000Y-88138000D01*
X25654000Y-112014700D02*
X26164000Y-111504700D01*
X26164000Y-111504700D02*
X41654700Y-111504700D01*
X41654700Y-111504700D02*
X41654700Y-98121600D01*
X41654700Y-98121600D02*
X49784000Y-89992300D01*
X49784000Y-88392000D02*
X49784000Y-89992300D01*
X25654000Y-113665000D02*
X25654000Y-112014700D01*
X106426000Y-39446300D02*
X105333700Y-39446300D01*
X105333700Y-39446300D02*
X95250000Y-49530000D01*
X43180000Y-19050000D02*
X41833600Y-17703600D01*
X41833600Y-17703600D02*
X27334400Y-17703600D01*
X27334400Y-17703600D02*
X25734000Y-19304000D01*
X415290000Y-19050000D02*
X415163600Y-19176400D01*
X415163600Y-19176400D02*
X415163600Y-35179600D01*
X415163600Y-35179600D02*
X416814000Y-36830000D01*
X296672000Y-83566000D02*
X295071700Y-83566000D01*
X244094000Y-88646000D02*
X244094000Y-87045700D01*
X249174000Y-81026000D02*
X249174000Y-82626300D01*
X244094000Y-87045700D02*
X244754600Y-87045700D01*
X244754600Y-87045700D02*
X249174000Y-82626300D01*
X64770000Y-63500000D02*
X59004300Y-69265700D01*
X59004300Y-69265700D02*
X59004300Y-73152000D01*
X297434000Y-121666000D02*
X300168400Y-121666000D01*
X300168400Y-121666000D02*
X304506300Y-126003800D01*
X354330000Y-37592000D02*
X354330000Y-39192300D01*
X361950000Y-22352000D02*
X360324900Y-23977100D01*
X360324900Y-23977100D02*
X360324900Y-33426900D01*
X360324900Y-33426900D02*
X361950000Y-35052000D01*
X361950000Y-37592000D02*
X361950000Y-35052000D01*
X256286000Y-37592000D02*
X256286000Y-39192300D01*
X263906000Y-22352000D02*
X262300500Y-23957500D01*
X262300500Y-23957500D02*
X262300500Y-33446500D01*
X262300500Y-33446500D02*
X263906000Y-35052000D01*
X263906000Y-37592000D02*
X263906000Y-35052000D01*
X106426000Y-37846000D02*
X106426000Y-39446300D01*
X114046000Y-37846000D02*
X114046000Y-35306000D01*
X57404000Y-73152000D02*
X59004300Y-73152000D01*
X57404000Y-88392000D02*
X51384300Y-88392000D01*
X49784000Y-88392000D02*
X51384300Y-88392000D01*
X160782000Y-49403000D02*
X160782000Y-42748300D01*
X160782000Y-42748300D02*
X164338000Y-39192300D01*
X164338000Y-37592000D02*
X164338000Y-39192300D01*
X164338000Y-37592000D02*
X164338000Y-35052000D01*
X164338000Y-22352000D02*
X165953700Y-23967700D01*
X165953700Y-23967700D02*
X165953700Y-33436300D01*
X165953700Y-33436300D02*
X164338000Y-35052000D01*
X250190000Y-68300000D02*
X250190000Y-70600300D01*
X250190000Y-70600300D02*
X249174000Y-71616300D01*
X249174000Y-71616300D02*
X249174000Y-81026000D01*
X379730000Y-69601200D02*
X379730000Y-69926300D01*
X379730000Y-68326000D02*
X379730000Y-69601200D01*
X380474988Y-89352312D02*
X376936000Y-92891300D01*
X376936000Y-93784630D02*
X376936000Y-94916000D01*
X380474988Y-87901012D02*
X380474988Y-89352312D01*
X384810000Y-83566000D02*
X380474988Y-87901012D01*
X376936000Y-92891300D02*
X376936000Y-93784630D01*
D27*
G04 #@! TO.N,Net-(R54-Pad1)*
X74676000Y-100076000D02*
X76366400Y-98385600D01*
X76366400Y-98385600D02*
X82382600Y-98385600D01*
X82382600Y-98385600D02*
X100882700Y-79885500D01*
X100882700Y-79885500D02*
X120189500Y-79885500D01*
X120189500Y-79885500D02*
X121048700Y-80744700D01*
X121048700Y-80744700D02*
X121048700Y-81026000D01*
X122174000Y-81026000D02*
X121048700Y-81026000D01*
G04 #@! TO.N,Net-(R52-Pad1)*
X126128700Y-81026000D02*
X126128700Y-80744700D01*
X126128700Y-80744700D02*
X124368600Y-78984600D01*
X124368600Y-78984600D02*
X100433000Y-78984600D01*
X100433000Y-78984600D02*
X85383500Y-94034100D01*
X85383500Y-94034100D02*
X70557900Y-94034100D01*
X70557900Y-94034100D02*
X64516000Y-100076000D01*
X127254000Y-81026000D02*
X126128700Y-81026000D01*
G04 #@! TO.N,Net-(R48-Pad1)*
X138539300Y-81026000D02*
X138539300Y-80744700D01*
X138539300Y-80744700D02*
X140427800Y-78856200D01*
X140427800Y-78856200D02*
X156732500Y-78856200D01*
X156732500Y-78856200D02*
X159247600Y-81371300D01*
X159247600Y-81371300D02*
X178380900Y-81371300D01*
X178380900Y-81371300D02*
X195840800Y-98831200D01*
X195840800Y-98831200D02*
X195840800Y-99548000D01*
X195840800Y-99548000D02*
X198202400Y-101909600D01*
X198202400Y-101909600D02*
X205301600Y-101909600D01*
X205301600Y-101909600D02*
X209675200Y-97536000D01*
X209675200Y-97536000D02*
X210312000Y-97536000D01*
X137414000Y-81026000D02*
X138539300Y-81026000D01*
G04 #@! TO.N,Net-(R53-Pad1)*
X124714000Y-81026000D02*
X123588700Y-81026000D01*
X123588700Y-81026000D02*
X123588700Y-80744700D01*
X123588700Y-80744700D02*
X122279100Y-79435100D01*
X122279100Y-79435100D02*
X100696200Y-79435100D01*
X100696200Y-79435100D02*
X82589900Y-97541400D01*
X82589900Y-97541400D02*
X72130600Y-97541400D01*
X72130600Y-97541400D02*
X69596000Y-100076000D01*
G04 #@! TO.N,Net-(SW16-Pad2)*
X220108700Y-81026000D02*
X217038300Y-77955600D01*
X217038300Y-77955600D02*
X162811100Y-77955600D01*
X162811100Y-77955600D02*
X161910500Y-77055000D01*
X161910500Y-77055000D02*
X124162800Y-77055000D01*
X124162800Y-77055000D02*
X112433100Y-65325300D01*
X112433100Y-65325300D02*
X101346000Y-65325300D01*
X221234000Y-81026000D02*
X220108700Y-81026000D01*
X101346000Y-63500000D02*
X101346000Y-65325300D01*
G04 #@! TO.N,Net-(SW13-Pad2)*
X228854000Y-81026000D02*
X227728700Y-81026000D01*
X150876000Y-63474000D02*
X159501300Y-63474000D01*
X159501300Y-63474000D02*
X171956500Y-75929200D01*
X171956500Y-75929200D02*
X220781500Y-75929200D01*
X220781500Y-75929200D02*
X224183000Y-79330700D01*
X224183000Y-79330700D02*
X226314700Y-79330700D01*
X226314700Y-79330700D02*
X227728700Y-80744700D01*
X227728700Y-80744700D02*
X227728700Y-81026000D01*
G04 #@! TO.N,Net-(SW14-Pad2)*
X135890000Y-65325300D02*
X152409000Y-65325300D01*
X152409000Y-65325300D02*
X163913600Y-76829900D01*
X163913600Y-76829900D02*
X219370800Y-76829900D01*
X219370800Y-76829900D02*
X222436400Y-79895500D01*
X222436400Y-79895500D02*
X224272800Y-79895500D01*
X224272800Y-79895500D02*
X225188700Y-80811400D01*
X225188700Y-80811400D02*
X225188700Y-81026000D01*
X226314000Y-81026000D02*
X225188700Y-81026000D01*
X135890000Y-63500000D02*
X135890000Y-65325300D01*
G04 #@! TO.N,Net-(SW15-Pad2)*
X222648700Y-81026000D02*
X222648700Y-80821700D01*
X222648700Y-80821700D02*
X219107200Y-77280200D01*
X219107200Y-77280200D02*
X162772600Y-77280200D01*
X162772600Y-77280200D02*
X161421600Y-75929200D01*
X161421600Y-75929200D02*
X133079200Y-75929200D01*
X133079200Y-75929200D02*
X122475300Y-65325300D01*
X122475300Y-65325300D02*
X120650000Y-65325300D01*
X223774000Y-81026000D02*
X222648700Y-81026000D01*
X120650000Y-63500000D02*
X120650000Y-65325300D01*
G04 #@! TO.N,Net-(SW9-Pad2)*
X239014000Y-81026000D02*
X237888700Y-81026000D01*
X220980000Y-63500000D02*
X220980000Y-65325300D01*
X220980000Y-65325300D02*
X222469300Y-65325300D01*
X222469300Y-65325300D02*
X237888700Y-80744700D01*
X237888700Y-80744700D02*
X237888700Y-81026000D01*
G04 #@! TO.N,Net-(SW12-Pad2)*
X230268700Y-81026000D02*
X230268700Y-80744700D01*
X230268700Y-80744700D02*
X227085300Y-77561300D01*
X227085300Y-77561300D02*
X223202100Y-77561300D01*
X223202100Y-77561300D02*
X216566500Y-70925700D01*
X216566500Y-70925700D02*
X178242200Y-70925700D01*
X178242200Y-70925700D02*
X172641800Y-65325300D01*
X172641800Y-65325300D02*
X170180000Y-65325300D01*
X231394000Y-81026000D02*
X230268700Y-81026000D01*
X170180000Y-63500000D02*
X170180000Y-65325300D01*
G04 #@! TO.N,Net-(SW8-Pad2)*
X234950000Y-63500000D02*
X234950000Y-65325300D01*
X234950000Y-65325300D02*
X235748600Y-65325300D01*
X235748600Y-65325300D02*
X240186700Y-69763400D01*
X240186700Y-69763400D02*
X240186700Y-83892100D01*
X240186700Y-83892100D02*
X237431000Y-86647800D01*
G04 #@! TO.N,Net-(SW11-Pad2)*
X232808700Y-81026000D02*
X232808700Y-80833200D01*
X232808700Y-80833200D02*
X229086500Y-77111000D01*
X229086500Y-77111000D02*
X223398500Y-77111000D01*
X223398500Y-77111000D02*
X211612800Y-65325300D01*
X211612800Y-65325300D02*
X185420000Y-65325300D01*
X185420000Y-63500000D02*
X185420000Y-65325300D01*
X233934000Y-81026000D02*
X232808700Y-81026000D01*
G04 #@! TO.N,Net-(SW7-Pad2)*
X236474000Y-88646000D02*
X236474000Y-87520700D01*
X250190000Y-63500000D02*
X250190000Y-65325300D01*
X250190000Y-65325300D02*
X249355800Y-65325300D01*
X249355800Y-65325300D02*
X242968600Y-71712500D01*
X242968600Y-71712500D02*
X242968600Y-82151400D01*
X242968600Y-82151400D02*
X237599300Y-87520700D01*
X237599300Y-87520700D02*
X236474000Y-87520700D01*
G04 #@! TO.N,Net-(SW10-Pad2)*
X236474000Y-81026000D02*
X235348700Y-81026000D01*
X200660000Y-63500000D02*
X211215500Y-63500000D01*
X211215500Y-63500000D02*
X222244900Y-74529400D01*
X222244900Y-74529400D02*
X229133400Y-74529400D01*
X229133400Y-74529400D02*
X235348700Y-80744700D01*
X235348700Y-80744700D02*
X235348700Y-81026000D01*
G04 #@! TO.N,Net-(SW4-Pad2)*
X298450000Y-63500000D02*
X293328300Y-63500000D01*
X293328300Y-63500000D02*
X286165200Y-70663100D01*
X286165200Y-70663100D02*
X279804600Y-70663100D01*
X279804600Y-70663100D02*
X260071100Y-90396600D01*
X260071100Y-90396600D02*
X252179500Y-90396600D01*
X252179500Y-90396600D02*
X251736300Y-90839800D01*
X251736300Y-90839800D02*
X231891800Y-90839800D01*
X231891800Y-90839800D02*
X229979300Y-88927300D01*
X229979300Y-88927300D02*
X229979300Y-88646000D01*
X228854000Y-88646000D02*
X229979300Y-88646000D01*
G04 #@! TO.N,Net-(SW1-Pad2)*
X300767000Y-66263100D02*
X293253600Y-66263100D01*
X293253600Y-66263100D02*
X279454100Y-80062600D01*
X279454100Y-80062600D02*
X275802100Y-80062600D01*
X275802100Y-80062600D02*
X264117200Y-91747500D01*
X264117200Y-91747500D02*
X252739300Y-91747500D01*
X252739300Y-91747500D02*
X252296100Y-92190700D01*
X252296100Y-92190700D02*
X225622700Y-92190700D01*
X225622700Y-92190700D02*
X222359300Y-88927300D01*
X222359300Y-88927300D02*
X222359300Y-88646000D01*
X221234000Y-88646000D02*
X222359300Y-88646000D01*
G04 #@! TO.N,Net-(SW5-Pad2)*
X284480000Y-65325300D02*
X279862900Y-65325300D01*
X279862900Y-65325300D02*
X255241900Y-89946300D01*
X255241900Y-89946300D02*
X246346300Y-89946300D01*
X246346300Y-89946300D02*
X245919000Y-90373600D01*
X245919000Y-90373600D02*
X233965600Y-90373600D01*
X233965600Y-90373600D02*
X232519300Y-88927300D01*
X232519300Y-88927300D02*
X232519300Y-88646000D01*
X231394000Y-88646000D02*
X232519300Y-88646000D01*
X284480000Y-63500000D02*
X284480000Y-65325300D01*
G04 #@! TO.N,Net-(SW2-Pad2)*
X292070300Y-66420600D02*
X279328800Y-79162100D01*
X279328800Y-79162100D02*
X276065600Y-79162100D01*
X276065600Y-79162100D02*
X263930500Y-91297200D01*
X263930500Y-91297200D02*
X252552700Y-91297200D01*
X252552700Y-91297200D02*
X252109500Y-91740400D01*
X252109500Y-91740400D02*
X227712300Y-91740400D01*
X227712300Y-91740400D02*
X224899300Y-88927400D01*
X224899300Y-88927400D02*
X224899300Y-88646000D01*
X223774000Y-88646000D02*
X224899300Y-88646000D01*
G04 #@! TO.N,Net-(SW6-Pad2)*
X233934000Y-88646000D02*
X235059300Y-88646000D01*
X270510000Y-63500000D02*
X273452300Y-66442300D01*
X273452300Y-66442300D02*
X273452300Y-69085600D01*
X273452300Y-69085600D02*
X260171200Y-82366700D01*
X260171200Y-82366700D02*
X251258700Y-82366700D01*
X251258700Y-82366700D02*
X245388100Y-88237300D01*
X245388100Y-88237300D02*
X245388100Y-89117100D01*
X245388100Y-89117100D02*
X244594800Y-89910400D01*
X244594800Y-89910400D02*
X236042300Y-89910400D01*
X236042300Y-89910400D02*
X235059300Y-88927400D01*
X235059300Y-88927400D02*
X235059300Y-88646000D01*
G04 #@! TO.N,Net-(SW3-Pad2)*
X302474400Y-63500000D02*
X300279100Y-65695300D01*
X300279100Y-65695300D02*
X291769900Y-65695300D01*
X291769900Y-65695300D02*
X278808000Y-78657200D01*
X278808000Y-78657200D02*
X275933600Y-78657200D01*
X275933600Y-78657200D02*
X263743900Y-90846900D01*
X263743900Y-90846900D02*
X252366100Y-90846900D01*
X252366100Y-90846900D02*
X251922900Y-91290100D01*
X251922900Y-91290100D02*
X229802000Y-91290100D01*
X229802000Y-91290100D02*
X227439300Y-88927400D01*
X227439300Y-88927400D02*
X227439300Y-88646000D01*
X226314000Y-88646000D02*
X227439300Y-88646000D01*
G04 #@! TO.N,/SELR1*
X394970000Y-83566000D02*
X396095300Y-83566000D01*
X396095300Y-83566000D02*
X396095300Y-84532900D01*
X396095300Y-84532900D02*
X397639700Y-86077300D01*
G04 #@! TO.N,Net-(D41-Pad1)*
X145796000Y-101092000D02*
X145796000Y-102117300D01*
X149606000Y-104394000D02*
X148380700Y-104394000D01*
X148380700Y-104394000D02*
X146104000Y-102117300D01*
X146104000Y-102117300D02*
X145796000Y-102117300D01*
G04 #@! TO.N,Net-(D42-Pad1)*
X180086000Y-100838000D02*
X179060700Y-100838000D01*
X180086000Y-100838000D02*
X180086000Y-101863300D01*
X183896000Y-104394000D02*
X182670700Y-104394000D01*
X182670700Y-104394000D02*
X180140000Y-101863300D01*
X180140000Y-101863300D02*
X180086000Y-101863300D01*
G04 #@! TO.N,Net-(J3-Pad4)*
X64008000Y-111760000D02*
X62832700Y-111760000D01*
X56388000Y-109220000D02*
X60660000Y-109220000D01*
X60660000Y-109220000D02*
X62832700Y-111392700D01*
X62832700Y-111392700D02*
X62832700Y-111760000D01*
X189020000Y-109220000D02*
X191770000Y-109220000D01*
X188944700Y-109220000D02*
X189020000Y-109220000D01*
X188631900Y-109532800D02*
X188944700Y-109220000D01*
X176279848Y-109532800D02*
X188631900Y-109532800D01*
X174829602Y-110983046D02*
X176279848Y-109532800D01*
X172642398Y-110983046D02*
X174829602Y-110983046D01*
X170879352Y-109220000D02*
X172642398Y-110983046D01*
X157480000Y-109220000D02*
X170879352Y-109220000D01*
G04 #@! TO.N,Net-(J3-Pad2)*
X216906700Y-97536000D02*
X197776600Y-78405900D01*
X197776600Y-78405900D02*
X162624500Y-78405900D01*
X162624500Y-78405900D02*
X161723900Y-77505300D01*
X161723900Y-77505300D02*
X100847200Y-77505300D01*
X100847200Y-77505300D02*
X84994000Y-93358500D01*
X84994000Y-93358500D02*
X69358800Y-93358500D01*
X69358800Y-93358500D02*
X60697300Y-102020000D01*
X60697300Y-102020000D02*
X55206500Y-102020000D01*
X55206500Y-102020000D02*
X53531400Y-103695100D01*
X53531400Y-103695100D02*
X53531400Y-109946000D01*
X53531400Y-109946000D02*
X55345400Y-111760000D01*
X55345400Y-111760000D02*
X60292700Y-111760000D01*
X217932000Y-97536000D02*
X218957300Y-97536000D01*
X226060000Y-99340000D02*
X226060000Y-97514700D01*
X226060000Y-97514700D02*
X218978600Y-97514700D01*
X218978600Y-97514700D02*
X218957300Y-97536000D01*
X217932000Y-97536000D02*
X216906700Y-97536000D01*
X61468000Y-111760000D02*
X60292700Y-111760000D01*
G04 #@! TO.N,Net-(R51-Pad1)*
X204216000Y-100838000D02*
X182234200Y-78856200D01*
X182234200Y-78856200D02*
X162437900Y-78856200D01*
X162437900Y-78856200D02*
X161537300Y-77955600D01*
X161537300Y-77955600D02*
X133708300Y-77955600D01*
X133708300Y-77955600D02*
X130919300Y-80744600D01*
X130919300Y-80744600D02*
X130919300Y-81026000D01*
X129794000Y-81026000D02*
X130919300Y-81026000D01*
G04 #@! TO.N,Net-(R50-Pad1)*
X132334000Y-81026000D02*
X133459300Y-81026000D01*
X133459300Y-81026000D02*
X133459300Y-80744600D01*
X133459300Y-80744600D02*
X135798000Y-78405900D01*
X135798000Y-78405900D02*
X161032400Y-78405900D01*
X161032400Y-78405900D02*
X161933100Y-79306600D01*
X161933100Y-79306600D02*
X177096600Y-79306600D01*
X177096600Y-79306600D02*
X198628000Y-100838000D01*
G04 #@! TO.N,Net-(R49-Pad1)*
X135999300Y-81026000D02*
X135999300Y-81307300D01*
X135999300Y-81307300D02*
X136877200Y-82185200D01*
X136877200Y-82185200D02*
X142960000Y-82185200D01*
X142960000Y-82185200D02*
X143693300Y-81451900D01*
X143693300Y-81451900D02*
X143693300Y-80626200D01*
X143693300Y-80626200D02*
X144550100Y-79769400D01*
X144550100Y-79769400D02*
X154701200Y-79769400D01*
X154701200Y-79769400D02*
X157654000Y-82722200D01*
X157654000Y-82722200D02*
X178457900Y-82722200D01*
X178457900Y-82722200D02*
X194715100Y-98979400D01*
X194715100Y-98979400D02*
X194715100Y-99729600D01*
X194715100Y-99729600D02*
X197799800Y-102814300D01*
X197799800Y-102814300D02*
X207573700Y-102814300D01*
X207573700Y-102814300D02*
X209550000Y-100838000D01*
X134874000Y-81026000D02*
X135999300Y-81026000D01*
G04 #@! TO.N,Net-(D47-Pad1)*
X349250000Y-100330000D02*
X350275300Y-100330000D01*
X352806000Y-104140000D02*
X352806000Y-102914700D01*
X352806000Y-102914700D02*
X350275300Y-100384000D01*
X350275300Y-100384000D02*
X350275300Y-100330000D01*
G04 #@! TO.N,Net-(D46-Pad1)*
X315214000Y-100330000D02*
X316239300Y-100330000D01*
X318516000Y-104140000D02*
X318516000Y-102914700D01*
X318516000Y-102914700D02*
X316239300Y-100638000D01*
X316239300Y-100638000D02*
X316239300Y-100330000D01*
G04 #@! TO.N,Net-(D45-Pad1)*
X279654000Y-100584000D02*
X280679300Y-100584000D01*
X282956000Y-104140000D02*
X282956000Y-102914700D01*
X282956000Y-102914700D02*
X280679300Y-100638000D01*
X280679300Y-100638000D02*
X280679300Y-100584000D01*
G04 #@! TO.N,Net-(D44-Pad1)*
X251206000Y-102914700D02*
X251206000Y-102606700D01*
X251206000Y-102606700D02*
X248929300Y-100330000D01*
X247904000Y-100330000D02*
X248929300Y-100330000D01*
X251206000Y-104140000D02*
X251206000Y-102914700D01*
G04 #@! TO.N,Net-(D43-Pad1)*
X214884000Y-100584000D02*
X214884000Y-101609300D01*
X218186000Y-103886000D02*
X216960700Y-103886000D01*
X216960700Y-103886000D02*
X216960700Y-103686000D01*
X216960700Y-103686000D02*
X214884000Y-101609300D01*
G04 #@! TO.N,Net-(D40-Pad1)*
X111506000Y-100330000D02*
X111506000Y-101355300D01*
X115316000Y-104140000D02*
X114090700Y-104140000D01*
X114090700Y-104140000D02*
X114090700Y-103940000D01*
X114090700Y-103940000D02*
X111506000Y-101355300D01*
G04 #@! TO.N,Net-(D38-Pad1)*
X44577000Y-98298000D02*
X44577000Y-99323300D01*
X48514000Y-104394000D02*
X48514000Y-103168700D01*
X48514000Y-103168700D02*
X44668600Y-99323300D01*
X44668600Y-99323300D02*
X44577000Y-99323300D01*
G04 #@! TO.N,/SDA*
X294894000Y-129286000D02*
X293768700Y-129286000D01*
X293370000Y-88646000D02*
X293370000Y-89771300D01*
X293370000Y-89771300D02*
X294147400Y-90548700D01*
X294147400Y-90548700D02*
X294147400Y-115886300D01*
X294147400Y-115886300D02*
X291118500Y-118915200D01*
X291118500Y-118915200D02*
X291118500Y-123441300D01*
X291118500Y-123441300D02*
X286004000Y-128555800D01*
X286004000Y-128555800D02*
X286004000Y-129778000D01*
X286004000Y-129778000D02*
X286778200Y-130552200D01*
X286778200Y-130552200D02*
X292710900Y-130552200D01*
X292710900Y-130552200D02*
X293768700Y-129494400D01*
X293768700Y-129494400D02*
X293768700Y-129286000D01*
X331470000Y-87630000D02*
X330444700Y-87630000D01*
X329619700Y-88646000D02*
X329619700Y-94275700D01*
X329619700Y-94275700D02*
X334853700Y-99509700D01*
X334853700Y-99509700D02*
X335135000Y-99509700D01*
X330444700Y-87630000D02*
X330444700Y-87821000D01*
X330444700Y-87821000D02*
X329619700Y-88646000D01*
X329619700Y-88646000D02*
X326753300Y-88646000D01*
X335135000Y-100635000D02*
X335135000Y-99509700D01*
X325628000Y-88646000D02*
X326753300Y-88646000D01*
X314960000Y-88646000D02*
X316085300Y-88646000D01*
X325628000Y-88646000D02*
X324502700Y-88646000D01*
X324502700Y-88646000D02*
X323232700Y-87376000D01*
X323232700Y-87376000D02*
X317355300Y-87376000D01*
X317355300Y-87376000D02*
X316085300Y-88646000D01*
X97677100Y-32353800D02*
X97677100Y-32621500D01*
X97677100Y-32621500D02*
X93445600Y-36853000D01*
X93445600Y-36853000D02*
X93445600Y-41565600D01*
X93445600Y-41565600D02*
X72781200Y-62230000D01*
X72781200Y-62230000D02*
X72001700Y-62230000D01*
X72001700Y-62230000D02*
X70887400Y-63344300D01*
X70887400Y-63344300D02*
X70887400Y-65565200D01*
X70887400Y-65565200D02*
X64770000Y-71682600D01*
X403446700Y-17526000D02*
X403446700Y-17158700D01*
X403446700Y-17158700D02*
X402021600Y-15733600D01*
X402021600Y-15733600D02*
X392718000Y-15733600D01*
X392718000Y-15733600D02*
X387362300Y-21089300D01*
X387362300Y-21089300D02*
X387362300Y-36272100D01*
X387362300Y-36272100D02*
X391086100Y-39995900D01*
X391086100Y-39995900D02*
X391086100Y-68621500D01*
X391086100Y-68621500D02*
X392443500Y-69978900D01*
X392443500Y-69978900D02*
X393844700Y-68577700D01*
X393844700Y-68577700D02*
X393844700Y-68326000D01*
X404622000Y-17526000D02*
X403446700Y-17526000D01*
X394970000Y-68326000D02*
X393844700Y-68326000D01*
X314960000Y-88646000D02*
X313834700Y-88646000D01*
X304292000Y-88646000D02*
X305417300Y-88646000D01*
X305417300Y-88646000D02*
X306687300Y-87376000D01*
X306687300Y-87376000D02*
X312564700Y-87376000D01*
X312564700Y-87376000D02*
X313834700Y-88646000D01*
X64770000Y-71682600D02*
X68599800Y-75512400D01*
X68599800Y-75512400D02*
X68599800Y-80772600D01*
X68599800Y-80772600D02*
X69861600Y-82034400D01*
X69861600Y-82034400D02*
X78301200Y-82034400D01*
X78301200Y-82034400D02*
X78447600Y-81888000D01*
X78447600Y-81888000D02*
X81603500Y-81888000D01*
X64770000Y-71120000D02*
X64770000Y-71682600D01*
X405236800Y-106827200D02*
X398348700Y-106827200D01*
X406400000Y-105664000D02*
X405236800Y-106827200D01*
X389995700Y-90924300D02*
X389995700Y-87581304D01*
X389995700Y-87581304D02*
X391631002Y-85946002D01*
X391631002Y-85946002D02*
X391631002Y-85249998D01*
X391631002Y-85249998D02*
X391271600Y-84890596D01*
X391271600Y-71150800D02*
X392443500Y-69978900D01*
X391271600Y-84890596D02*
X391271600Y-71150800D01*
X395179200Y-96107800D02*
X389995700Y-90924300D01*
X395907700Y-96107800D02*
X395179200Y-96107800D01*
X397510000Y-97710100D02*
X395907700Y-96107800D01*
X397510000Y-105988500D02*
X397510000Y-97710100D01*
X398348700Y-106827200D02*
X397510000Y-105988500D01*
G04 #@! TO.N,/SCK*
X338916900Y-102046100D02*
X339097100Y-102046100D01*
X338916900Y-102046100D02*
X338916900Y-93015500D01*
X338916900Y-93015500D02*
X331470000Y-85568600D01*
X326390000Y-123284700D02*
X326757300Y-123284700D01*
X326757300Y-123284700D02*
X333832500Y-116209500D01*
X333832500Y-116209500D02*
X333832500Y-107824500D01*
X333832500Y-107824500D02*
X334692600Y-106964400D01*
X334692600Y-106964400D02*
X335574000Y-106964400D01*
X335574000Y-106964400D02*
X338916900Y-103621500D01*
X338916900Y-103621500D02*
X338916900Y-102046100D01*
X106410400Y-127091100D02*
X104902000Y-128599500D01*
X104902000Y-128599500D02*
X104902000Y-132080000D01*
X414583000Y-80243100D02*
X414583000Y-87957900D01*
X67106500Y-86818000D02*
X67106500Y-80009600D01*
X67106500Y-80009600D02*
X63644700Y-76547800D01*
X63644700Y-76547800D02*
X63644700Y-70549200D01*
X63644700Y-70549200D02*
X64488600Y-69705300D01*
X64488600Y-69705300D02*
X64770000Y-69705300D01*
X326390000Y-124460000D02*
X326390000Y-123284700D01*
X331470000Y-85568600D02*
X327290700Y-85568600D01*
X327290700Y-85568600D02*
X326753300Y-86106000D01*
X331470000Y-84845300D02*
X331470000Y-85568600D01*
X67106500Y-86818000D02*
X84560400Y-86818000D01*
X84560400Y-86818000D02*
X84624600Y-86882200D01*
X57150000Y-123284700D02*
X57517300Y-123284700D01*
X57517300Y-123284700D02*
X62743400Y-118058600D01*
X62743400Y-118058600D02*
X62743400Y-113209500D01*
X62743400Y-113209500D02*
X62558500Y-113024600D01*
X62558500Y-113024600D02*
X55889000Y-113024600D01*
X55889000Y-113024600D02*
X53070600Y-110206200D01*
X53070600Y-110206200D02*
X53070600Y-99323300D01*
X53070600Y-99323300D02*
X65575900Y-86818000D01*
X65575900Y-86818000D02*
X67106500Y-86818000D01*
X64770000Y-68580000D02*
X64770000Y-69705300D01*
X57150000Y-124460000D02*
X57150000Y-123284700D01*
X325628000Y-86106000D02*
X326753300Y-86106000D01*
X314960000Y-86106000D02*
X316085300Y-86106000D01*
X325628000Y-86106000D02*
X324502700Y-86106000D01*
X324502700Y-86106000D02*
X323232700Y-84836000D01*
X323232700Y-84836000D02*
X317355300Y-84836000D01*
X317355300Y-84836000D02*
X316085300Y-86106000D01*
X64770000Y-67454700D02*
X65051400Y-67454700D01*
X65051400Y-67454700D02*
X65895300Y-66610800D01*
X65895300Y-66610800D02*
X65895300Y-65860700D01*
X65895300Y-65860700D02*
X72066000Y-59690000D01*
X72066000Y-59690000D02*
X73035100Y-59690000D01*
X73035100Y-59690000D02*
X92545100Y-40180000D01*
X92545100Y-40180000D02*
X92545100Y-36608800D01*
X92545100Y-36608800D02*
X93625400Y-35528500D01*
X191770000Y-124460000D02*
X190594700Y-124460000D01*
X190594700Y-124460000D02*
X190594700Y-123358200D01*
X190594700Y-123358200D02*
X188010100Y-120773600D01*
X188010100Y-120773600D02*
X178184300Y-120773600D01*
X178184300Y-120773600D02*
X174497900Y-124460000D01*
X174497900Y-124460000D02*
X123190000Y-124460000D01*
X64770000Y-68580000D02*
X64770000Y-67454700D01*
X402082000Y-17526000D02*
X400906700Y-17526000D01*
X392430000Y-68326000D02*
X392430000Y-67200700D01*
X392430000Y-67200700D02*
X393936400Y-65694300D01*
X393936400Y-65694300D02*
X393936400Y-18233200D01*
X393936400Y-18233200D02*
X395950000Y-16219600D01*
X395950000Y-16219600D02*
X400041000Y-16219600D01*
X400041000Y-16219600D02*
X400906700Y-17085300D01*
X400906700Y-17085300D02*
X400906700Y-17526000D01*
X314960000Y-86106000D02*
X313834700Y-86106000D01*
X304292000Y-86106000D02*
X305417300Y-86106000D01*
X305417300Y-86106000D02*
X306649700Y-84873600D01*
X306649700Y-84873600D02*
X312602300Y-84873600D01*
X312602300Y-84873600D02*
X313834700Y-86106000D01*
X331470000Y-83820000D02*
X331470000Y-84845300D01*
X415145001Y-99458999D02*
X412750000Y-101854000D01*
X415145001Y-88519901D02*
X415145001Y-99458999D01*
X414583000Y-87957900D02*
X415145001Y-88519901D01*
X412844600Y-101759400D02*
X412750000Y-101854000D01*
X412750000Y-101854000D02*
X408940000Y-105664000D01*
G04 #@! TO.N,/SWINT*
X282194000Y-128160700D02*
X281068700Y-127035400D01*
X281068700Y-127035400D02*
X281068700Y-105121800D01*
X281068700Y-105121800D02*
X270842000Y-94895100D01*
X270842000Y-94895100D02*
X270842000Y-87332700D01*
X282194000Y-129286000D02*
X282194000Y-128160700D01*
G04 #@! TO.N,Net-(J2-Pad3)*
X25654000Y-116205000D02*
X25654000Y-115029700D01*
X75565000Y-129159000D02*
X74439700Y-129159000D01*
X74439700Y-129159000D02*
X74439700Y-128877700D01*
X74439700Y-128877700D02*
X72686900Y-127124900D01*
X72686900Y-127124900D02*
X62889700Y-127124900D01*
X62889700Y-127124900D02*
X59199200Y-130815400D01*
X59199200Y-130815400D02*
X55201400Y-130815400D01*
X55201400Y-130815400D02*
X36867900Y-112481900D01*
X36867900Y-112481900D02*
X27705800Y-112481900D01*
X27705800Y-112481900D02*
X26929400Y-113258300D01*
X26929400Y-113258300D02*
X26929400Y-114709200D01*
X26929400Y-114709200D02*
X26608900Y-115029700D01*
X26608900Y-115029700D02*
X25654000Y-115029700D01*
G04 #@! TO.N,Net-(J2-Pad5)*
X26829300Y-118745000D02*
X26829300Y-118377700D01*
X26829300Y-118377700D02*
X27641200Y-117565800D01*
X27641200Y-117565800D02*
X39579100Y-117565800D01*
X39579100Y-117565800D02*
X42127100Y-120113800D01*
X25654000Y-118745000D02*
X26829300Y-118745000D01*
G04 #@! TO.N,Net-(J2-Pad7)*
X26829300Y-121285000D02*
X26829300Y-120917600D01*
X26829300Y-120917600D02*
X27637200Y-120109700D01*
X27637200Y-120109700D02*
X32489000Y-120109700D01*
X32489000Y-120109700D02*
X33836800Y-118761900D01*
X25654000Y-121285000D02*
X26829300Y-121285000D01*
G04 #@! TO.N,Net-(J2-Pad10)*
X229277700Y-106108000D02*
X220219900Y-106108000D01*
X175403658Y-111045400D02*
X175016002Y-111433057D01*
X175016002Y-111433057D02*
X172455998Y-111433057D01*
X251403900Y-95184300D02*
X242838400Y-103749800D01*
X172455998Y-111433057D02*
X172181006Y-111158064D01*
X242838400Y-103749800D02*
X231635900Y-103749800D01*
X172181006Y-111158064D02*
X165614636Y-111158064D01*
X220219900Y-106108000D02*
X215282500Y-111045400D01*
X68118800Y-118794300D02*
X67201999Y-119711101D01*
X67201999Y-119711101D02*
X66802000Y-120111100D01*
X215282500Y-111045400D02*
X175403658Y-111045400D01*
X231635900Y-103749800D02*
X229277700Y-106108000D01*
X98972400Y-118794300D02*
X68118800Y-118794300D01*
X101349000Y-116417700D02*
X98972400Y-118794300D01*
X160355000Y-116417700D02*
X101349000Y-116417700D01*
X165614636Y-111158064D02*
X160355000Y-116417700D01*
X260043600Y-95184300D02*
X251403900Y-95184300D01*
X274574000Y-109714700D02*
X260043600Y-95184300D01*
X274574000Y-121666000D02*
X274574000Y-109714700D01*
G04 #@! TO.N,Net-(J2-Pad2)*
X69359700Y-129159000D02*
X69359700Y-128877700D01*
X69359700Y-128877700D02*
X68057300Y-127575300D01*
X68057300Y-127575300D02*
X64168100Y-127575300D01*
X64168100Y-127575300D02*
X60432400Y-131311000D01*
X60432400Y-131311000D02*
X54784300Y-131311000D01*
X54784300Y-131311000D02*
X37138300Y-113665000D01*
X37138300Y-113665000D02*
X29369300Y-113665000D01*
X28194000Y-113665000D02*
X29369300Y-113665000D01*
X70485000Y-129159000D02*
X69359700Y-129159000D01*
G04 #@! TO.N,Net-(D42-Pad2)*
X264762100Y-94549100D02*
X250569800Y-94549100D01*
X250569800Y-94549100D02*
X242815600Y-102303300D01*
X242815600Y-102303300D02*
X220570000Y-102303300D01*
X220570000Y-102303300D02*
X219411400Y-103461900D01*
X219411400Y-103461900D02*
X219411400Y-104937300D01*
X219411400Y-104937300D02*
X219126700Y-105222000D01*
X219126700Y-105222000D02*
X205802900Y-105222000D01*
X205802900Y-105222000D02*
X201528800Y-109496100D01*
X201528800Y-109496100D02*
X198173300Y-109496100D01*
X198173300Y-109496100D02*
X194595300Y-105918100D01*
X194595300Y-105918100D02*
X194595300Y-104420000D01*
X76708000Y-110584700D02*
X76708000Y-107453000D01*
X76708000Y-107453000D02*
X94704200Y-89456800D01*
X94704200Y-89456800D02*
X94759600Y-89456800D01*
X94759600Y-89456800D02*
X95570400Y-88646000D01*
X95570400Y-88646000D02*
X119634000Y-88646000D01*
X191770000Y-104420000D02*
X194595300Y-104420000D01*
X355346000Y-104140000D02*
X355346000Y-96828100D01*
X355346000Y-96828100D02*
X354251600Y-95733700D01*
X76708000Y-111760000D02*
X76708000Y-110584700D01*
X181133209Y-104082009D02*
X178748401Y-104082009D01*
X167684389Y-95168799D02*
X164790390Y-92274800D01*
X174461002Y-108369408D02*
X174461002Y-108806002D01*
X167684389Y-103296800D02*
X167684389Y-95168799D01*
X174461002Y-108806002D02*
X174084002Y-109183002D01*
X173010998Y-108806002D02*
X173010998Y-108623409D01*
X173010998Y-108623409D02*
X167684389Y-103296800D01*
X164790390Y-92274800D02*
X140812600Y-92274800D01*
X140812600Y-92274800D02*
X138757899Y-90220099D01*
X138757899Y-90220099D02*
X138357900Y-89820100D01*
X174084002Y-109183002D02*
X173387998Y-109183002D01*
X185210600Y-105619400D02*
X182670600Y-105619400D01*
X186436000Y-104394000D02*
X185210600Y-105619400D01*
X182670600Y-105619400D02*
X181133209Y-104082009D01*
X178748401Y-104082009D02*
X174461002Y-108369408D01*
X173387998Y-109183002D02*
X173010998Y-108806002D01*
G04 #@! TO.N,Net-(D41-Pad2)*
X122632200Y-88646000D02*
X121465900Y-89812300D01*
X121465900Y-89812300D02*
X96036100Y-89812300D01*
X96036100Y-89812300D02*
X83521400Y-102327000D01*
X83521400Y-102327000D02*
X83521400Y-105210700D01*
X83521400Y-105210700D02*
X77883300Y-110848800D01*
X77883300Y-110848800D02*
X77883300Y-112316800D01*
X77883300Y-112316800D02*
X77075400Y-113124700D01*
X77075400Y-113124700D02*
X76708000Y-113124700D01*
X152146000Y-104394000D02*
X146372200Y-98620200D01*
X146372200Y-98620200D02*
X143253600Y-98620200D01*
X143253600Y-98620200D02*
X133604000Y-88970600D01*
X133604000Y-88970600D02*
X133604000Y-88289600D01*
X133604000Y-88289600D02*
X132367100Y-87052700D01*
X132367100Y-87052700D02*
X124611300Y-87052700D01*
X124611300Y-87052700D02*
X123299300Y-88364700D01*
X123299300Y-88364700D02*
X123299300Y-88646000D01*
X76708000Y-114300000D02*
X76708000Y-113124700D01*
X122736700Y-88646000D02*
X123299300Y-88646000D01*
X122174000Y-88646000D02*
X122632200Y-88646000D01*
X122736700Y-88646000D02*
X122632200Y-88646000D01*
G04 #@! TO.N,Net-(D40-Pad2)*
X124714000Y-88646000D02*
X124714000Y-89771300D01*
X123190000Y-104140000D02*
X123190000Y-102314700D01*
X123190000Y-102314700D02*
X123874500Y-102314700D01*
X123874500Y-102314700D02*
X126015400Y-100173800D01*
X126015400Y-100173800D02*
X126015400Y-91072700D01*
X126015400Y-91072700D02*
X124714000Y-89771300D01*
X80518000Y-113030000D02*
X79248000Y-114300000D01*
X111230600Y-110765400D02*
X83469500Y-110765400D01*
X117856000Y-104140000D02*
X111230600Y-110765400D01*
X83469500Y-110765400D02*
X83276100Y-110572000D01*
X83276100Y-110572000D02*
X81300000Y-110572000D01*
X81300000Y-110572000D02*
X80518000Y-111354000D01*
X80518000Y-111354000D02*
X80518000Y-113030000D01*
G04 #@! TO.N,Net-(D39-Pad2)*
X127254000Y-88646000D02*
X127254000Y-89771300D01*
X127254000Y-89771300D02*
X127846200Y-90363500D01*
X127846200Y-90363500D02*
X127846200Y-103045800D01*
X84836000Y-104140000D02*
X84836000Y-104921800D01*
X84836000Y-104921800D02*
X79714600Y-110043200D01*
G04 #@! TO.N,Net-(D38-Pad2)*
X130919300Y-106905800D02*
X121857700Y-115967400D01*
X121857700Y-115967400D02*
X100937100Y-115967400D01*
X100937100Y-115967400D02*
X100486800Y-116417700D01*
X100486800Y-116417700D02*
X68665700Y-116417700D01*
X68665700Y-116417700D02*
X66548000Y-114300000D01*
X220726000Y-103886000D02*
X220726000Y-104140000D01*
X226060000Y-104140000D02*
X220726000Y-104140000D01*
X130919300Y-106905800D02*
X130919300Y-88646000D01*
X59213300Y-104420000D02*
X65371200Y-110577900D01*
X65371200Y-110577900D02*
X65371200Y-113123200D01*
X65371200Y-113123200D02*
X66548000Y-114300000D01*
X129794000Y-88646000D02*
X130919300Y-88646000D01*
X56388000Y-104420000D02*
X59213300Y-104420000D01*
X220726000Y-104140000D02*
X220726000Y-104336300D01*
X214665500Y-110396800D02*
X197454500Y-110396800D01*
X197454500Y-110396800D02*
X194413800Y-107356100D01*
X194413800Y-107356100D02*
X177183726Y-107356100D01*
X177183726Y-107356100D02*
X174456802Y-110083024D01*
X174456802Y-110083024D02*
X173015198Y-110083024D01*
X173015198Y-110083024D02*
X170288274Y-107356100D01*
X170288274Y-107356100D02*
X160717200Y-107356100D01*
X160266900Y-106905800D02*
X130919300Y-106905800D01*
X160717200Y-107356100D02*
X160266900Y-106905800D01*
X220726000Y-104336300D02*
X214665500Y-110396800D01*
G04 #@! TO.N,/KEYINT*
X279654000Y-128160700D02*
X278528700Y-127035400D01*
X278528700Y-127035400D02*
X278528700Y-106598900D01*
X278528700Y-106598900D02*
X264577900Y-92648100D01*
X264577900Y-92648100D02*
X253326800Y-92648100D01*
X253326800Y-92648100D02*
X252590300Y-93384600D01*
X252590300Y-93384600D02*
X252590300Y-93620500D01*
X252590300Y-93620500D02*
X252165000Y-94045800D01*
X252165000Y-94045800D02*
X250436100Y-94045800D01*
X250436100Y-94045800D02*
X243314500Y-101167400D01*
X243314500Y-101167400D02*
X218062500Y-101167400D01*
X218062500Y-101167400D02*
X216433700Y-99538600D01*
X216433700Y-99538600D02*
X208627700Y-99538600D01*
X208627700Y-99538600D02*
X205802400Y-102363900D01*
X205802400Y-102363900D02*
X197986300Y-102363900D01*
X197986300Y-102363900D02*
X195390400Y-99768000D01*
X195390400Y-99768000D02*
X195390400Y-99017800D01*
X195390400Y-99017800D02*
X178644500Y-82271900D01*
X178644500Y-82271900D02*
X159511300Y-82271900D01*
X159511300Y-82271900D02*
X156546000Y-79306600D01*
X156546000Y-79306600D02*
X142517400Y-79306600D01*
X142517400Y-79306600D02*
X141079300Y-80744700D01*
X141079300Y-80744700D02*
X141079300Y-81026000D01*
X139954000Y-81026000D02*
X141079300Y-81026000D01*
X279654000Y-129286000D02*
X279654000Y-128160700D01*
G04 #@! TO.N,/SERIALOUT*
X416814000Y-34290000D02*
X416814000Y-35465300D01*
X392430000Y-83566000D02*
X392430000Y-82440700D01*
X392430000Y-82440700D02*
X396240000Y-78630700D01*
X396240000Y-78630700D02*
X396240000Y-65819300D01*
X396240000Y-65819300D02*
X412996800Y-49062500D01*
X412996800Y-49062500D02*
X412996800Y-48810800D01*
X412996800Y-48810800D02*
X413730900Y-48076700D01*
X413730900Y-48076700D02*
X417293500Y-48076700D01*
X417293500Y-48076700D02*
X418089400Y-47280800D01*
X418089400Y-47280800D02*
X418089400Y-35785800D01*
X418089400Y-35785800D02*
X417768900Y-35465300D01*
X417768900Y-35465300D02*
X416814000Y-35465300D01*
X363505010Y-112744990D02*
X363505010Y-101568990D01*
X357124000Y-119126000D02*
X363505010Y-112744990D01*
X363505010Y-101568990D02*
X368554000Y-96520000D01*
X368554000Y-96520000D02*
X368554000Y-96012000D01*
X381399999Y-94596001D02*
X381399999Y-89262001D01*
X381000000Y-94996000D02*
X381399999Y-94596001D01*
X381399999Y-89262001D02*
X384556000Y-86106000D01*
X384556000Y-86106000D02*
X384556000Y-85852000D01*
G04 #@! TO.N,/SERIALIN*
X416814000Y-32925300D02*
X417181300Y-32925300D01*
X417181300Y-32925300D02*
X418595000Y-34339000D01*
X418595000Y-34339000D02*
X418595000Y-75205400D01*
X418595000Y-75205400D02*
X413857700Y-79942700D01*
X413857700Y-79942700D02*
X413857700Y-80543500D01*
X413857700Y-80543500D02*
X413911800Y-80597600D01*
X413911800Y-80597600D02*
X413911800Y-87992200D01*
X416814000Y-31750000D02*
X416814000Y-32925300D01*
X414020000Y-88100400D02*
X414020000Y-90424000D01*
X413911800Y-87992200D02*
X414020000Y-88100400D01*
X371856000Y-99314000D02*
X371856000Y-116087319D01*
X370622889Y-117673011D02*
X370222890Y-118073010D01*
X370622889Y-117320430D02*
X370622889Y-117673011D01*
X371856000Y-116087319D02*
X370622889Y-117320430D01*
G04 #@! TO.N,/LIGHTINT*
X287274000Y-121666000D02*
X287274000Y-120540700D01*
X287274000Y-120540700D02*
X293663600Y-114151100D01*
X293663600Y-114151100D02*
X293663600Y-93121700D01*
X293663600Y-93121700D02*
X293414000Y-92872100D01*
G04 #@! TO.N,Net-(J3-Pad10)*
X71628000Y-111760000D02*
X71628000Y-109267900D01*
X71628000Y-109267900D02*
X74582700Y-106313200D01*
X74582700Y-106313200D02*
X76429700Y-106313200D01*
X76429700Y-106313200D02*
X94186700Y-88556200D01*
X94186700Y-88556200D02*
X94386400Y-88556200D01*
X94386400Y-88556200D02*
X101916600Y-81026000D01*
X101916600Y-81026000D02*
X119634000Y-81026000D01*
G04 #@! TO.N,Net-(J2-Pad15)*
X206425200Y-133996600D02*
X234151400Y-106270400D01*
X234151400Y-106270400D02*
X262542500Y-106270400D01*
X262542500Y-106270400D02*
X264414000Y-108141900D01*
X264414000Y-108141900D02*
X264414000Y-120540700D01*
X264414000Y-121666000D02*
X264414000Y-120540700D01*
G04 #@! TO.N,Net-(J2-Pad13)*
X26829300Y-128905000D02*
X26829300Y-129272400D01*
X26829300Y-129272400D02*
X27637200Y-130080300D01*
X27637200Y-130080300D02*
X52916700Y-130080300D01*
X52916700Y-130080300D02*
X54597700Y-131761300D01*
X54597700Y-131761300D02*
X60742600Y-131761300D01*
X60742600Y-131761300D02*
X64470200Y-128033700D01*
X64470200Y-128033700D02*
X66819700Y-128033700D01*
X66819700Y-128033700D02*
X67945000Y-129159000D01*
X25654000Y-128905000D02*
X26829300Y-128905000D01*
G04 #@! TO.N,Net-(U24-Pad1)*
X65405000Y-129159000D02*
X66530300Y-129159000D01*
X78105000Y-129159000D02*
X76979700Y-129159000D01*
X76979700Y-129159000D02*
X76979700Y-129440300D01*
X76979700Y-129440300D02*
X76135700Y-130284300D01*
X76135700Y-130284300D02*
X67374200Y-130284300D01*
X67374200Y-130284300D02*
X66530300Y-129440400D01*
X66530300Y-129440400D02*
X66530300Y-129159000D01*
G04 #@! TO.N,Net-(J2-Pad11)*
X80645000Y-121539000D02*
X79519700Y-121539000D01*
X67945000Y-121539000D02*
X69070300Y-121539000D01*
X69070300Y-121539000D02*
X69070300Y-121257700D01*
X69070300Y-121257700D02*
X69914300Y-120413700D01*
X69914300Y-120413700D02*
X78675800Y-120413700D01*
X78675800Y-120413700D02*
X79519700Y-121257600D01*
X79519700Y-121257600D02*
X79519700Y-121539000D01*
G04 #@! TO.N,/ENOLED2*
X388620000Y-105664000D02*
X386738400Y-103782400D01*
X386738400Y-103782400D02*
X386738400Y-103355100D01*
X342755000Y-113335000D02*
X342755000Y-112209700D01*
X344982800Y-110773600D02*
X343546700Y-112209700D01*
X343546700Y-112209700D02*
X342755000Y-112209700D01*
G04 #@! TO.N,/ENOLED1*
X394969600Y-106306900D02*
X394969600Y-96773600D01*
X394969600Y-96773600D02*
X388620000Y-90424000D01*
X394070400Y-107206100D02*
X394969600Y-106306900D01*
X412750000Y-83566000D02*
X412750000Y-85714400D01*
X412750000Y-85714400D02*
X410210000Y-88254400D01*
X410210000Y-88254400D02*
X410210000Y-96037800D01*
X410210000Y-96037800D02*
X407670000Y-98577800D01*
X407670000Y-98577800D02*
X407670000Y-106013300D01*
X407670000Y-106013300D02*
X406405700Y-107277600D01*
X406405700Y-107277600D02*
X395940300Y-107277600D01*
X395940300Y-107277600D02*
X394969600Y-106306900D01*
G04 #@! TO.N,Net-(J3-Pad18)*
X118400820Y-106172000D02*
X127508000Y-106172000D01*
X118200810Y-106372010D02*
X118400820Y-106172000D01*
X118200810Y-107114990D02*
X118200810Y-106372010D01*
X81788000Y-111760000D02*
X113555800Y-111760000D01*
X113555800Y-111760000D02*
X118200810Y-107114990D01*
X127508000Y-107184794D02*
X127440847Y-107251947D01*
X127508000Y-106172000D02*
X127508000Y-107184794D01*
G04 #@! TO.N,Net-(J3-Pad16)*
X90170000Y-99340000D02*
X90170000Y-101165300D01*
X90170000Y-101165300D02*
X89561800Y-101165300D01*
X89561800Y-101165300D02*
X86902000Y-103825100D01*
X86902000Y-103825100D02*
X86902000Y-104106000D01*
X86902000Y-104106000D02*
X79248000Y-111760000D01*
X198628000Y-107432700D02*
X192640600Y-101445300D01*
X192640600Y-101445300D02*
X191770000Y-101445300D01*
X198628000Y-108458000D02*
X198628000Y-107432700D01*
X191770000Y-99620000D02*
X191770000Y-101445300D01*
G04 #@! TO.N,Net-(J3-Pad7)*
X69596000Y-107696000D02*
X69596000Y-108721300D01*
X69088000Y-114300000D02*
X69088000Y-113124700D01*
X69088000Y-113124700D02*
X68720700Y-113124700D01*
X68720700Y-113124700D02*
X67902200Y-112306200D01*
X67902200Y-112306200D02*
X67902200Y-110415100D01*
X67902200Y-110415100D02*
X69596000Y-108721300D01*
G04 #@! TO.N,Net-(J3-Pad6)*
X315214000Y-107950000D02*
X316049400Y-107114600D01*
X316049400Y-107114600D02*
X330424400Y-107114600D01*
X330424400Y-107114600D02*
X332593100Y-104945900D01*
X66548000Y-112935300D02*
X66915400Y-112935300D01*
X66915400Y-112935300D02*
X67723300Y-113743200D01*
X67723300Y-113743200D02*
X67723300Y-114626100D01*
X67723300Y-114626100D02*
X68638700Y-115541500D01*
X68638700Y-115541500D02*
X69589200Y-115541500D01*
X69589200Y-115541500D02*
X70263300Y-114867400D01*
X70263300Y-114867400D02*
X70263300Y-114000500D01*
X70263300Y-114000500D02*
X71328400Y-112935400D01*
X71328400Y-112935400D02*
X72153600Y-112935400D01*
X72153600Y-112935400D02*
X72898000Y-112191000D01*
X72898000Y-112191000D02*
X72898000Y-111341800D01*
X72898000Y-111341800D02*
X73840500Y-110399300D01*
X73840500Y-110399300D02*
X73972800Y-110399300D01*
X73972800Y-110399300D02*
X75701400Y-108670700D01*
X75701400Y-108670700D02*
X75701400Y-107822700D01*
X75701400Y-107822700D02*
X94517600Y-89006500D01*
X94517600Y-89006500D02*
X94573000Y-89006500D01*
X94573000Y-89006500D02*
X96977100Y-86602400D01*
X96977100Y-86602400D02*
X132830400Y-86602400D01*
X132830400Y-86602400D02*
X134874000Y-88646000D01*
X66548000Y-111760000D02*
X66548000Y-112935300D01*
X197641100Y-109946500D02*
X213141500Y-109946500D01*
X214184001Y-108903999D02*
X214884000Y-108204000D01*
X139054100Y-92826100D02*
X156565200Y-92826100D01*
X134874000Y-88646000D02*
X139054100Y-92826100D01*
X156565200Y-92826100D02*
X172560987Y-108821887D01*
X172560987Y-108992402D02*
X173201598Y-109633013D01*
X173201598Y-109633013D02*
X174270402Y-109633013D01*
X174270402Y-109633013D02*
X176997615Y-106905800D01*
X176997615Y-106905800D02*
X194600400Y-106905800D01*
X194600400Y-106905800D02*
X197641100Y-109946500D01*
X213141500Y-109946500D02*
X214184001Y-108903999D01*
X172560987Y-108821887D02*
X172560987Y-108992402D01*
G04 #@! TO.N,Net-(J3-Pad12)*
X132334000Y-88646000D02*
X131208600Y-87520600D01*
X131208600Y-87520600D02*
X129252500Y-87520600D01*
X129252500Y-87520600D02*
X128574900Y-88198200D01*
X128574900Y-88198200D02*
X128574900Y-107143200D01*
X128574900Y-107143200D02*
X120201000Y-115517100D01*
X120201000Y-115517100D02*
X100750500Y-115517100D01*
X100750500Y-115517100D02*
X100300400Y-115967200D01*
X100300400Y-115967200D02*
X74166400Y-115967200D01*
X74166400Y-115967200D02*
X72992700Y-114793500D01*
X72992700Y-114793500D02*
X72992700Y-113743200D01*
X72992700Y-113743200D02*
X73800600Y-112935300D01*
X73800600Y-112935300D02*
X74168000Y-112935300D01*
X74168000Y-111760000D02*
X74168000Y-112935300D01*
G04 #@! TO.N,/ENOLED0*
X342755000Y-107129700D02*
X343036300Y-107129700D01*
X343036300Y-107129700D02*
X345008900Y-105157100D01*
X345008900Y-105157100D02*
X345008900Y-101303300D01*
X391160000Y-90424000D02*
X393665500Y-92929500D01*
X393665500Y-92929500D02*
X402997600Y-92929500D01*
X402997600Y-92929500D02*
X405130000Y-90797100D01*
X405130000Y-90797100D02*
X405130000Y-89771300D01*
X405130000Y-89771300D02*
X410210000Y-84691300D01*
X410210000Y-83566000D02*
X410210000Y-84691300D01*
X342755000Y-108255000D02*
X342755000Y-107129700D01*
G04 #@! TO.N,Net-(J12-Pad4)*
X123190000Y-121920000D02*
X134466300Y-121920000D01*
X134466300Y-121920000D02*
X139090100Y-117296200D01*
X337110800Y-113756600D02*
X337110800Y-107227600D01*
X337110800Y-107227600D02*
X342578100Y-101760300D01*
X342578100Y-101760300D02*
X342755000Y-101760300D01*
X123190000Y-121920000D02*
X122014700Y-121920000D01*
X342755000Y-100635000D02*
X342755000Y-101760300D01*
X120024300Y-121793000D02*
X121887700Y-121793000D01*
X121887700Y-121793000D02*
X122014700Y-121920000D01*
X118999000Y-121793000D02*
X120024300Y-121793000D01*
G04 #@! TO.N,Net-(J11-Pad4)*
X120024300Y-125984000D02*
X120024300Y-125855800D01*
X120024300Y-125855800D02*
X122690100Y-123190000D01*
X122690100Y-123190000D02*
X154219600Y-123190000D01*
X154219600Y-123190000D02*
X165348200Y-112061400D01*
X165348200Y-112061400D02*
X218909700Y-112061400D01*
X218909700Y-112061400D02*
X223951500Y-107019600D01*
X223951500Y-107019600D02*
X230156500Y-107019600D01*
X230156500Y-107019600D02*
X231661100Y-105515000D01*
X231661100Y-105515000D02*
X245390500Y-105515000D01*
X245390500Y-105515000D02*
X249117200Y-101788300D01*
X118999000Y-125984000D02*
X120024300Y-125984000D01*
G04 #@! TO.N,Net-(J17-Pad4)*
X335135000Y-96680300D02*
X335416300Y-96680300D01*
X335416300Y-96680300D02*
X336286700Y-97550700D01*
X336286700Y-97550700D02*
X336286700Y-101116600D01*
X336286700Y-101116600D02*
X335498300Y-101905000D01*
X335498300Y-101905000D02*
X334754000Y-101905000D01*
X334754000Y-101905000D02*
X333607400Y-103051600D01*
X333607400Y-103051600D02*
X333607400Y-107287200D01*
X333607400Y-107287200D02*
X326390000Y-114504600D01*
X326390000Y-114504600D02*
X326390000Y-120744700D01*
X326390000Y-121920000D02*
X326390000Y-120744700D01*
X335135000Y-95555000D02*
X335135000Y-96680300D01*
X313182000Y-121920000D02*
X314207300Y-121920000D01*
X326390000Y-121920000D02*
X325214700Y-121920000D01*
X325214700Y-121920000D02*
X324074000Y-120779300D01*
X324074000Y-120779300D02*
X315348000Y-120779300D01*
X315348000Y-120779300D02*
X314207300Y-121920000D01*
G04 #@! TO.N,Net-(J16-Pad4)*
X253619000Y-120894700D02*
X250374000Y-117649700D01*
X250374000Y-117649700D02*
X250374000Y-111106900D01*
X250374000Y-111106900D02*
X254485200Y-106995700D01*
X254485200Y-106995700D02*
X262208100Y-106995700D01*
X253619000Y-121920000D02*
X253619000Y-120894700D01*
X258826000Y-121920000D02*
X253619000Y-121920000D01*
G04 #@! TO.N,Net-(J15-Pad4)*
X192945300Y-121920000D02*
X198052600Y-116812700D01*
X191770000Y-121920000D02*
X192945300Y-121920000D01*
X342755000Y-99220300D02*
X343036300Y-99220300D01*
X343036300Y-99220300D02*
X343911800Y-100095800D01*
X343911800Y-100095800D02*
X343911800Y-103687200D01*
X343911800Y-103687200D02*
X343154000Y-104445000D01*
X343154000Y-104445000D02*
X342427500Y-104445000D01*
X342427500Y-104445000D02*
X338362000Y-108510500D01*
X338362000Y-108510500D02*
X338362000Y-112817300D01*
X342755000Y-98095000D02*
X342755000Y-99220300D01*
G04 #@! TO.N,/A14*
X379619200Y-91905500D02*
X379619200Y-99203200D01*
X379619200Y-99203200D02*
X383540000Y-103124000D01*
G04 #@! TO.N,/SPIVCC*
X368046000Y-88392000D02*
X368046000Y-87216700D01*
X380875000Y-74077200D02*
X380875000Y-74755000D01*
X380875000Y-74755000D02*
X368413300Y-87216700D01*
X368413300Y-87216700D02*
X368046000Y-87216700D01*
X400177000Y-114300000D02*
X400177000Y-112854500D01*
X400177000Y-112854500D02*
X405082300Y-107949200D01*
X405082300Y-107949200D02*
X409194800Y-107949200D01*
X409194800Y-107949200D02*
X411480000Y-105664000D01*
X400177000Y-114300000D02*
X400177000Y-116840000D01*
X400177000Y-116840000D02*
X400177000Y-117965300D01*
X409956000Y-132080000D02*
X409956000Y-127463000D01*
X409956000Y-127463000D02*
X400458300Y-117965300D01*
X400458300Y-117965300D02*
X400177000Y-117965300D01*
X386334000Y-117094000D02*
X387459300Y-117094000D01*
X392557000Y-119380000D02*
X389745300Y-119380000D01*
X389745300Y-119380000D02*
X387459300Y-117094000D01*
X386334000Y-115968700D02*
X378582500Y-108217200D01*
X386334000Y-117094000D02*
X386334000Y-115968700D01*
X378582500Y-95852675D02*
X378582500Y-95286990D01*
X378582500Y-108217200D02*
X378582500Y-95852675D01*
G04 #@! TO.N,/MISO*
X383540000Y-90424000D02*
X384716900Y-91600900D01*
X384716900Y-91600900D02*
X384716900Y-109562500D01*
X384716900Y-109562500D02*
X392557000Y-117402600D01*
X392557000Y-116840000D02*
X392557000Y-117402600D01*
X392881013Y-117402600D02*
X394132012Y-118653599D01*
X398181400Y-130465400D02*
X398946001Y-131230001D01*
X398946001Y-131230001D02*
X399796000Y-132080000D01*
X398181400Y-123027000D02*
X398181400Y-130465400D01*
X394132012Y-118977612D02*
X398181400Y-123027000D01*
X394132012Y-118653599D02*
X394132012Y-118977612D01*
X392557000Y-117402600D02*
X392881013Y-117402600D01*
G04 #@! TO.N,/CS*
X392557000Y-115425300D02*
X392801200Y-115425300D01*
X392801200Y-115425300D02*
X398644200Y-121268300D01*
X398644200Y-121268300D02*
X398644200Y-122984100D01*
X398644200Y-122984100D02*
X401066000Y-125405900D01*
X401066000Y-125405900D02*
X401066000Y-132518200D01*
X401066000Y-132518200D02*
X401803100Y-133255300D01*
X401803100Y-133255300D02*
X405432800Y-133255300D01*
X405432800Y-133255300D02*
X406240700Y-132447400D01*
X406240700Y-132447400D02*
X406240700Y-132080000D01*
X407416000Y-132080000D02*
X406240700Y-132080000D01*
X392557000Y-114300000D02*
X392557000Y-115425300D01*
X392557000Y-113737300D02*
X392557000Y-114300000D01*
X392557000Y-113737300D02*
X392557000Y-113174700D01*
X392557000Y-113174700D02*
X386080000Y-106697700D01*
X386080000Y-106697700D02*
X386080000Y-105664000D01*
G04 #@! TO.N,/TA2*
X385370700Y-69461300D02*
X386060900Y-70151500D01*
X386060900Y-70151500D02*
X386060900Y-86585700D01*
X386060900Y-86585700D02*
X384932900Y-87713700D01*
X384932900Y-87713700D02*
X384932900Y-91024200D01*
X384932900Y-91024200D02*
X387350000Y-93441300D01*
X387350000Y-93441300D02*
X387350000Y-101854000D01*
X387350000Y-101854000D02*
X391160000Y-105664000D01*
X385370700Y-69461300D02*
X384314600Y-69461300D01*
X384314600Y-69461300D02*
X383502300Y-68649000D01*
X383502300Y-68649000D02*
X383502300Y-67953300D01*
X383502300Y-67953300D02*
X378084800Y-62535800D01*
X378084800Y-62535800D02*
X375969500Y-62535800D01*
X375969500Y-62535800D02*
X369669600Y-68835700D01*
X369669600Y-68835700D02*
X369669600Y-69679100D01*
X369669600Y-69679100D02*
X366770600Y-72578100D01*
X366770600Y-72578100D02*
X366770600Y-79276200D01*
X366770600Y-79276200D02*
X367091100Y-79596700D01*
X367091100Y-79596700D02*
X368046000Y-79596700D01*
X386224700Y-68326000D02*
X386224700Y-68607300D01*
X386224700Y-68607300D02*
X385370700Y-69461300D01*
X368046000Y-80772000D02*
X368046000Y-79596700D01*
X387350000Y-68326000D02*
X386224700Y-68326000D01*
G04 #@! TO.N,/TA3*
X389890000Y-69451300D02*
X388764700Y-70576600D01*
X388764700Y-70576600D02*
X388764700Y-84730900D01*
X388764700Y-84730900D02*
X386786300Y-86709300D01*
X386786300Y-86709300D02*
X387455700Y-87378700D01*
X387455700Y-87378700D02*
X387455700Y-91097000D01*
X387455700Y-91097000D02*
X392285400Y-95926700D01*
X392285400Y-95926700D02*
X392285400Y-104249400D01*
X392285400Y-104249400D02*
X393700000Y-105664000D01*
X389890000Y-68326000D02*
X389890000Y-69451300D01*
G04 #@! TO.N,/MOSI*
X400177000Y-121920000D02*
X400177000Y-123045300D01*
X400177000Y-123045300D02*
X402336000Y-125204300D01*
X402336000Y-125204300D02*
X402336000Y-132080000D01*
X386080000Y-90424000D02*
X389890000Y-94234000D01*
X389890000Y-94234000D02*
X389890000Y-102511000D01*
X389890000Y-102511000D02*
X392574700Y-105195700D01*
X392574700Y-105195700D02*
X392574700Y-107542500D01*
X392574700Y-107542500D02*
X393682300Y-108650100D01*
X393682300Y-108650100D02*
X393682300Y-115425300D01*
X393682300Y-115425300D02*
X400177000Y-121920000D01*
G04 #@! TO.N,Net-(J4-Pad2)*
X416560000Y-105664000D02*
X412496000Y-109728000D01*
X412496000Y-109728000D02*
X408178000Y-109728000D01*
G04 #@! TO.N,/SSCK*
X400177000Y-119380000D02*
X400177000Y-120505300D01*
X400177000Y-120505300D02*
X400458300Y-120505300D01*
X400458300Y-120505300D02*
X404876000Y-124923000D01*
X404876000Y-124923000D02*
X404876000Y-132080000D01*
X393682001Y-119616001D02*
X395478000Y-121412000D01*
X393682001Y-118839999D02*
X393682001Y-119616001D01*
X393097001Y-118254999D02*
X393682001Y-118839999D01*
X392009314Y-118254999D02*
X393097001Y-118254999D01*
X381508000Y-107753685D02*
X392009314Y-118254999D01*
X381508000Y-107188000D02*
X381508000Y-107753685D01*
G04 #@! TO.N,Net-(J3-Pad8)*
X168134400Y-89911700D02*
X139475300Y-89911700D01*
X139475300Y-89911700D02*
X138539400Y-88975800D01*
X138539400Y-88975800D02*
X138539300Y-88975800D01*
X138539300Y-88975800D02*
X138539300Y-88646000D01*
X137414000Y-88646000D02*
X138539300Y-88646000D01*
X69088000Y-110584700D02*
X74581200Y-105091500D01*
X74581200Y-105091500D02*
X76825300Y-105091500D01*
X76825300Y-105091500D02*
X94308900Y-87607900D01*
X69088000Y-111760000D02*
X69088000Y-110584700D01*
X168134400Y-89911700D02*
X168134400Y-102856400D01*
X168134400Y-102856400D02*
X173736000Y-108458000D01*
X159855000Y-107356100D02*
X160956900Y-108458000D01*
X147151900Y-107356100D02*
X159855000Y-107356100D01*
X160956900Y-108458000D02*
X170753763Y-108458000D01*
X170753763Y-108458000D02*
X172828798Y-110533035D01*
X145796000Y-108712000D02*
X147151900Y-107356100D01*
X179096051Y-108458000D02*
X180086000Y-108458000D01*
X176718237Y-108458000D02*
X179096051Y-108458000D01*
X174643202Y-110533035D02*
X176718237Y-108458000D01*
X172828798Y-110533035D02*
X174643202Y-110533035D01*
G04 #@! TO.N,Net-(J3-Pad11)*
X74676000Y-107696000D02*
X74676000Y-108721300D01*
X73672300Y-109674000D02*
X74625000Y-108721300D01*
X74625000Y-108721300D02*
X74676000Y-108721300D01*
G04 #@! TO.N,Net-(J8-Pad4)*
X376428000Y-133350000D02*
X377698000Y-132080000D01*
X374688998Y-133350000D02*
X376428000Y-133350000D01*
X373982999Y-132644001D02*
X374688998Y-133350000D01*
X373982999Y-129165997D02*
X373982999Y-132644001D01*
X357124000Y-124968000D02*
X369785002Y-124968000D01*
X369785002Y-124968000D02*
X373982999Y-129165997D01*
G04 #@! TO.N,Net-(J8-Pad3)*
X375158000Y-130877919D02*
X375158000Y-132080000D01*
X375158000Y-129704587D02*
X375158000Y-130877919D01*
X367881413Y-122428000D02*
X375158000Y-129704587D01*
X357124000Y-122428000D02*
X367881413Y-122428000D01*
G04 #@! TD*
M02*
