G04 #@! TF.GenerationSoftware,KiCad,Pcbnew,(5.0.2)-1*
G04 #@! TF.CreationDate,2021-04-11T18:58:02+01:00*
G04 #@! TF.ProjectId,nova1200_fptest,6e6f7661-3132-4303-905f-667074657374,Rev 3*
G04 #@! TF.SameCoordinates,Original*
G04 #@! TF.FileFunction,Other,User*
%FSLAX46Y46*%
G04 Gerber Fmt 4.6, Leading zero omitted, Abs format (unit mm)*
G04 Created by KiCad (PCBNEW (5.0.2)-1) date 4/11/2021 6:58:02 PM*
%MOMM*%
%LPD*%
G01*
G04 APERTURE LIST*
%ADD10C,0.050000*%
G04 APERTURE END LIST*
D10*
G04 #@! TO.C,J8*
X368278000Y-133880000D02*
X379478000Y-133880000D01*
X379478000Y-133880000D02*
X379478000Y-130280000D01*
X379478000Y-130280000D02*
X368278000Y-130280000D01*
X368278000Y-130280000D02*
X368278000Y-133880000D01*
G04 #@! TO.C,U23*
X347536000Y-120878000D02*
X337736000Y-120878000D01*
X347536000Y-126528000D02*
X347536000Y-120878000D01*
X337736000Y-126528000D02*
X347536000Y-126528000D01*
X337736000Y-120878000D02*
X337736000Y-126528000D01*
G04 #@! TO.C,U25*
X348404000Y-120878000D02*
X348404000Y-126528000D01*
X348404000Y-126528000D02*
X358204000Y-126528000D01*
X358204000Y-126528000D02*
X358204000Y-120878000D01*
X358204000Y-120878000D02*
X348404000Y-120878000D01*
G04 #@! TO.C,R63*
X348554000Y-120176000D02*
X358074000Y-120176000D01*
X348554000Y-118076000D02*
X348554000Y-120176000D01*
X358074000Y-118076000D02*
X348554000Y-118076000D01*
X358074000Y-120176000D02*
X358074000Y-118076000D01*
G04 #@! TO.C,R62*
X353502000Y-129574000D02*
X353502000Y-127474000D01*
X353502000Y-127474000D02*
X343982000Y-127474000D01*
X343982000Y-127474000D02*
X343982000Y-129574000D01*
X343982000Y-129574000D02*
X353502000Y-129574000D01*
G04 #@! TO.C,J4*
X403838000Y-111528000D02*
X409988000Y-111528000D01*
X409988000Y-111528000D02*
X409988000Y-107928000D01*
X409988000Y-107928000D02*
X403838000Y-107928000D01*
X403838000Y-107928000D02*
X403838000Y-111528000D01*
G04 #@! TO.C,J5*
X383264000Y-133880000D02*
X383264000Y-130330000D01*
X383264000Y-130330000D02*
X391914000Y-130330000D01*
X391914000Y-130330000D02*
X391914000Y-133880000D01*
X391914000Y-133880000D02*
X383264000Y-133880000D01*
G04 #@! TO.C,C18*
X372488000Y-69596000D02*
G75*
G03X372488000Y-69596000I-3720000J0D01*
G01*
G04 #@! TO.C,C19*
X103756000Y-121412000D02*
G75*
G03X103756000Y-121412000I-3720000J0D01*
G01*
G04 #@! TO.C,C17*
X352168000Y-113411000D02*
G75*
G03X352168000Y-113411000I-3720000J0D01*
G01*
G04 #@! TO.C,C16*
X390054000Y-119594000D02*
G75*
G03X390054000Y-119594000I-3720000J0D01*
G01*
G04 #@! TO.C,J24*
X395456000Y-133880000D02*
X411756000Y-133880000D01*
X411756000Y-133880000D02*
X411756000Y-130280000D01*
X411756000Y-130280000D02*
X395456000Y-130280000D01*
X395456000Y-130280000D02*
X395456000Y-133880000D01*
G04 #@! TO.C,U21*
X391457000Y-112750000D02*
X391457000Y-123450000D01*
X391457000Y-123450000D02*
X401257000Y-123450000D01*
X401257000Y-123450000D02*
X401257000Y-112750000D01*
X401257000Y-112750000D02*
X391457000Y-112750000D01*
G04 #@! TO.C,J9*
X366246000Y-76432000D02*
X366246000Y-90182000D01*
X366246000Y-90182000D02*
X369846000Y-90182000D01*
X369846000Y-90182000D02*
X369846000Y-76432000D01*
X369846000Y-76432000D02*
X366246000Y-76432000D01*
G04 #@! TO.C,R57*
X110429000Y-124934000D02*
X110429000Y-127034000D01*
X110429000Y-127034000D02*
X119949000Y-127034000D01*
X119949000Y-127034000D02*
X119949000Y-124934000D01*
X119949000Y-124934000D02*
X110429000Y-124934000D01*
G04 #@! TO.C,R58*
X119949000Y-120743000D02*
X110429000Y-120743000D01*
X119949000Y-122843000D02*
X119949000Y-120743000D01*
X110429000Y-122843000D02*
X119949000Y-122843000D01*
X110429000Y-120743000D02*
X110429000Y-122843000D01*
G04 #@! TO.C,R59*
X179136000Y-120870000D02*
X179136000Y-122970000D01*
X179136000Y-122970000D02*
X188656000Y-122970000D01*
X188656000Y-122970000D02*
X188656000Y-120870000D01*
X188656000Y-120870000D02*
X179136000Y-120870000D01*
G04 #@! TO.C,R60*
X254569000Y-120870000D02*
X245049000Y-120870000D01*
X254569000Y-122970000D02*
X254569000Y-120870000D01*
X245049000Y-122970000D02*
X254569000Y-122970000D01*
X245049000Y-120870000D02*
X245049000Y-122970000D01*
G04 #@! TO.C,R61*
X321752000Y-122970000D02*
X321752000Y-120870000D01*
X321752000Y-120870000D02*
X312232000Y-120870000D01*
X312232000Y-120870000D02*
X312232000Y-122970000D01*
X312232000Y-122970000D02*
X321752000Y-122970000D01*
G04 #@! TO.C,U18*
X334035000Y-94005000D02*
X334035000Y-114855000D01*
X334035000Y-114855000D02*
X343835000Y-114855000D01*
X343835000Y-114855000D02*
X343835000Y-94005000D01*
X343835000Y-94005000D02*
X334035000Y-94005000D01*
G04 #@! TO.C,R55*
X330520000Y-88680000D02*
X340040000Y-88680000D01*
X330520000Y-86580000D02*
X330520000Y-88680000D01*
X340040000Y-86580000D02*
X330520000Y-86580000D01*
X340040000Y-88680000D02*
X340040000Y-86580000D01*
G04 #@! TO.C,R56*
X340040000Y-84870000D02*
X340040000Y-82770000D01*
X340040000Y-82770000D02*
X330520000Y-82770000D01*
X330520000Y-82770000D02*
X330520000Y-84870000D01*
X330520000Y-84870000D02*
X340040000Y-84870000D01*
G04 #@! TO.C,J3*
X59668000Y-116100000D02*
X83568000Y-116100000D01*
X83568000Y-116100000D02*
X83568000Y-109950000D01*
X83568000Y-109950000D02*
X59668000Y-109950000D01*
X59668000Y-109950000D02*
X59668000Y-116100000D01*
G04 #@! TO.C,J2*
X23854000Y-111865000D02*
X23854000Y-133215000D01*
X23854000Y-133215000D02*
X30004000Y-133215000D01*
X30004000Y-133215000D02*
X30004000Y-111865000D01*
X30004000Y-111865000D02*
X23854000Y-111865000D01*
G04 #@! TO.C,J20*
X393424000Y-61954000D02*
X393424000Y-65554000D01*
X393424000Y-65554000D02*
X397024000Y-65554000D01*
X397024000Y-65554000D02*
X397024000Y-61954000D01*
X397024000Y-61954000D02*
X393424000Y-61954000D01*
G04 #@! TO.C,J19*
X95482000Y-133880000D02*
X95482000Y-130330000D01*
X95482000Y-130330000D02*
X106682000Y-130330000D01*
X106682000Y-130330000D02*
X106682000Y-133880000D01*
X106682000Y-133880000D02*
X95482000Y-133880000D01*
G04 #@! TO.C,J18*
X406402000Y-19326000D02*
X395202000Y-19326000D01*
X406402000Y-15776000D02*
X406402000Y-19326000D01*
X395202000Y-15776000D02*
X406402000Y-15776000D01*
X395202000Y-19326000D02*
X395202000Y-15776000D01*
G04 #@! TO.C,J17*
X328190000Y-131340000D02*
X324640000Y-131340000D01*
X324640000Y-131340000D02*
X324640000Y-120140000D01*
X324640000Y-120140000D02*
X328190000Y-120140000D01*
X328190000Y-120140000D02*
X328190000Y-131340000D01*
G04 #@! TO.C,U24*
X63855000Y-130259000D02*
X82205000Y-130259000D01*
X82205000Y-130259000D02*
X82205000Y-120459000D01*
X82205000Y-120459000D02*
X63855000Y-120459000D01*
X63855000Y-120459000D02*
X63855000Y-130259000D01*
G04 #@! TO.C,H1*
X97700000Y-49530000D02*
G75*
G03X97700000Y-49530000I-2450000J0D01*
G01*
G04 #@! TO.C,H2*
X51472000Y-49530000D02*
G75*
G03X51472000Y-49530000I-2450000J0D01*
G01*
G04 #@! TO.C,PAD2*
X46630000Y-19050000D02*
G75*
G03X46630000Y-19050000I-3450000J0D01*
G01*
G04 #@! TO.C,J7*
X418614000Y-38630000D02*
X418614000Y-27430000D01*
X418614000Y-27430000D02*
X415014000Y-27430000D01*
X415014000Y-27430000D02*
X415014000Y-38630000D01*
X415014000Y-38630000D02*
X418614000Y-38630000D01*
G04 #@! TO.C,J6*
X412474000Y-44936000D02*
X412474000Y-58686000D01*
X412474000Y-58686000D02*
X418624000Y-58686000D01*
X418624000Y-58686000D02*
X418624000Y-44936000D01*
X418624000Y-44936000D02*
X412474000Y-44936000D01*
G04 #@! TO.C,J16*
X260626000Y-131340000D02*
X257076000Y-131340000D01*
X257076000Y-131340000D02*
X257076000Y-120140000D01*
X257076000Y-120140000D02*
X260626000Y-120140000D01*
X260626000Y-120140000D02*
X260626000Y-131340000D01*
G04 #@! TO.C,J15*
X193570000Y-120140000D02*
X193570000Y-131340000D01*
X190020000Y-120140000D02*
X193570000Y-120140000D01*
X190020000Y-131340000D02*
X190020000Y-120140000D01*
X193570000Y-131340000D02*
X190020000Y-131340000D01*
G04 #@! TO.C,J12*
X124990000Y-131340000D02*
X121440000Y-131340000D01*
X121440000Y-131340000D02*
X121440000Y-120140000D01*
X121440000Y-120140000D02*
X124990000Y-120140000D01*
X124990000Y-120140000D02*
X124990000Y-131340000D01*
G04 #@! TO.C,J11*
X58950000Y-131340000D02*
X55400000Y-131340000D01*
X55400000Y-131340000D02*
X55400000Y-120140000D01*
X55400000Y-120140000D02*
X58950000Y-120140000D01*
X58950000Y-120140000D02*
X58950000Y-131340000D01*
G04 #@! TO.C,J14*
X378736000Y-61954000D02*
X375136000Y-61954000D01*
X378736000Y-65554000D02*
X378736000Y-61954000D01*
X375136000Y-65554000D02*
X378736000Y-65554000D01*
X375136000Y-61954000D02*
X375136000Y-65554000D01*
G04 #@! TO.C,J13*
X47222000Y-41126000D02*
X47222000Y-44726000D01*
X47222000Y-44726000D02*
X50822000Y-44726000D01*
X50822000Y-44726000D02*
X50822000Y-41126000D01*
X50822000Y-41126000D02*
X47222000Y-41126000D01*
G04 #@! TO.C,U20*
X35136000Y-22835000D02*
X35136000Y-43795000D01*
X35136000Y-43795000D02*
X45636000Y-43795000D01*
X45636000Y-43795000D02*
X45636000Y-22835000D01*
X45636000Y-22835000D02*
X35136000Y-22835000D01*
G04 #@! TO.C,J10*
X387074000Y-61954000D02*
X387074000Y-65554000D01*
X387074000Y-65554000D02*
X390674000Y-65554000D01*
X390674000Y-65554000D02*
X390674000Y-61954000D01*
X390674000Y-61954000D02*
X387074000Y-61954000D01*
G04 #@! TO.C,U8*
X316040000Y-79476000D02*
X306240000Y-79476000D01*
X316040000Y-90176000D02*
X316040000Y-79476000D01*
X306240000Y-90176000D02*
X316040000Y-90176000D01*
X306240000Y-79476000D02*
X306240000Y-90176000D01*
G04 #@! TO.C,U7*
X284650000Y-79476000D02*
X284650000Y-90176000D01*
X284650000Y-90176000D02*
X294450000Y-90176000D01*
X294450000Y-90176000D02*
X294450000Y-79476000D01*
X294450000Y-79476000D02*
X284650000Y-79476000D01*
G04 #@! TO.C,D47*
X357306000Y-100890000D02*
X350856000Y-100890000D01*
X357306000Y-107390000D02*
X357306000Y-100890000D01*
X350856000Y-107390000D02*
X357306000Y-107390000D01*
X350856000Y-100890000D02*
X350856000Y-107390000D01*
G04 #@! TO.C,D41*
X147656000Y-101144000D02*
X147656000Y-107644000D01*
X147656000Y-107644000D02*
X154106000Y-107644000D01*
X154106000Y-107644000D02*
X154106000Y-101144000D01*
X154106000Y-101144000D02*
X147656000Y-101144000D01*
G04 #@! TO.C,D39*
X86796000Y-100890000D02*
X80346000Y-100890000D01*
X86796000Y-107390000D02*
X86796000Y-100890000D01*
X80346000Y-107390000D02*
X86796000Y-107390000D01*
X80346000Y-100890000D02*
X80346000Y-107390000D01*
G04 #@! TO.C,D46*
X316566000Y-100890000D02*
X316566000Y-107390000D01*
X316566000Y-107390000D02*
X323016000Y-107390000D01*
X323016000Y-107390000D02*
X323016000Y-100890000D01*
X323016000Y-100890000D02*
X316566000Y-100890000D01*
G04 #@! TO.C,D43*
X222686000Y-100636000D02*
X216236000Y-100636000D01*
X222686000Y-107136000D02*
X222686000Y-100636000D01*
X216236000Y-107136000D02*
X222686000Y-107136000D01*
X216236000Y-100636000D02*
X216236000Y-107136000D01*
G04 #@! TO.C,D42*
X181946000Y-101144000D02*
X181946000Y-107644000D01*
X181946000Y-107644000D02*
X188396000Y-107644000D01*
X188396000Y-107644000D02*
X188396000Y-101144000D01*
X188396000Y-101144000D02*
X181946000Y-101144000D01*
G04 #@! TO.C,D40*
X119816000Y-100890000D02*
X113366000Y-100890000D01*
X119816000Y-107390000D02*
X119816000Y-100890000D01*
X113366000Y-107390000D02*
X119816000Y-107390000D01*
X113366000Y-100890000D02*
X113366000Y-107390000D01*
G04 #@! TO.C,D38*
X46564000Y-101144000D02*
X46564000Y-107644000D01*
X46564000Y-107644000D02*
X53014000Y-107644000D01*
X53014000Y-107644000D02*
X53014000Y-101144000D01*
X53014000Y-101144000D02*
X46564000Y-101144000D01*
G04 #@! TO.C,D45*
X287456000Y-100890000D02*
X281006000Y-100890000D01*
X287456000Y-107390000D02*
X287456000Y-100890000D01*
X281006000Y-107390000D02*
X287456000Y-107390000D01*
X281006000Y-100890000D02*
X281006000Y-107390000D01*
G04 #@! TO.C,D44*
X249256000Y-100890000D02*
X249256000Y-107390000D01*
X249256000Y-107390000D02*
X255706000Y-107390000D01*
X255706000Y-107390000D02*
X255706000Y-100890000D01*
X255706000Y-100890000D02*
X249256000Y-100890000D01*
G04 #@! TO.C,U15*
X118084000Y-89746000D02*
X154184000Y-89746000D01*
X154184000Y-89746000D02*
X154184000Y-79946000D01*
X154184000Y-79946000D02*
X118084000Y-79946000D01*
X118084000Y-79946000D02*
X118084000Y-89746000D01*
G04 #@! TO.C,U4*
X262864000Y-120586000D02*
X262864000Y-130386000D01*
X298964000Y-120586000D02*
X262864000Y-120586000D01*
X298964000Y-130386000D02*
X298964000Y-120586000D01*
X262864000Y-130386000D02*
X298964000Y-130386000D01*
G04 #@! TO.C,U3*
X219684000Y-89746000D02*
X255784000Y-89746000D01*
X255784000Y-89746000D02*
X255784000Y-79946000D01*
X255784000Y-79946000D02*
X219684000Y-79946000D01*
X219684000Y-79946000D02*
X219684000Y-89746000D01*
G04 #@! TO.C,U2*
X58394000Y-21272000D02*
X58394000Y-31072000D01*
X94494000Y-21272000D02*
X58394000Y-21272000D01*
X94494000Y-31072000D02*
X94494000Y-21272000D01*
X58394000Y-31072000D02*
X94494000Y-31072000D01*
G04 #@! TO.C,U1*
X63670000Y-39090000D02*
X63670000Y-75190000D01*
X63670000Y-75190000D02*
X73470000Y-75190000D01*
X73470000Y-75190000D02*
X73470000Y-39090000D01*
X73470000Y-39090000D02*
X63670000Y-39090000D01*
G04 #@! TO.C,U17*
X305372000Y-79476000D02*
X295572000Y-79476000D01*
X305372000Y-90176000D02*
X305372000Y-79476000D01*
X295572000Y-90176000D02*
X305372000Y-90176000D01*
X295572000Y-79476000D02*
X295572000Y-90176000D01*
G04 #@! TO.C,U19*
X316908000Y-79476000D02*
X316908000Y-90176000D01*
X316908000Y-90176000D02*
X326708000Y-90176000D01*
X326708000Y-90176000D02*
X326708000Y-79476000D01*
X326708000Y-79476000D02*
X316908000Y-79476000D01*
G04 #@! TO.C,R44*
X246854000Y-99380000D02*
X246854000Y-108900000D01*
X248954000Y-99380000D02*
X246854000Y-99380000D01*
X248954000Y-108900000D02*
X248954000Y-99380000D01*
X246854000Y-108900000D02*
X248954000Y-108900000D01*
G04 #@! TO.C,R42*
X179036000Y-109408000D02*
X181136000Y-109408000D01*
X181136000Y-109408000D02*
X181136000Y-99888000D01*
X181136000Y-99888000D02*
X179036000Y-99888000D01*
X179036000Y-99888000D02*
X179036000Y-109408000D01*
G04 #@! TO.C,PAD3*
X245766000Y-19050000D02*
G75*
G03X245766000Y-19050000I-3450000J0D01*
G01*
G04 #@! TO.C,PAD4*
X245766000Y-113030000D02*
G75*
G03X245766000Y-113030000I-3450000J0D01*
G01*
G04 #@! TO.C,U5*
X363030000Y-18262000D02*
X353230000Y-18262000D01*
X363030000Y-39112000D02*
X363030000Y-18262000D01*
X353230000Y-39112000D02*
X363030000Y-39112000D01*
X353230000Y-18262000D02*
X353230000Y-39112000D01*
G04 #@! TO.C,U6*
X304208000Y-18262000D02*
X304208000Y-39112000D01*
X304208000Y-39112000D02*
X314008000Y-39112000D01*
X314008000Y-39112000D02*
X314008000Y-18262000D01*
X314008000Y-18262000D02*
X304208000Y-18262000D01*
G04 #@! TO.C,U9*
X205910000Y-18516000D02*
X205910000Y-39366000D01*
X205910000Y-39366000D02*
X215710000Y-39366000D01*
X215710000Y-39366000D02*
X215710000Y-18516000D01*
X215710000Y-18516000D02*
X205910000Y-18516000D01*
G04 #@! TO.C,U11*
X264986000Y-18262000D02*
X255186000Y-18262000D01*
X264986000Y-39112000D02*
X264986000Y-18262000D01*
X255186000Y-39112000D02*
X264986000Y-39112000D01*
X255186000Y-18262000D02*
X255186000Y-39112000D01*
G04 #@! TO.C,U12*
X115126000Y-18516000D02*
X105326000Y-18516000D01*
X115126000Y-39366000D02*
X115126000Y-18516000D01*
X105326000Y-39366000D02*
X115126000Y-39366000D01*
X105326000Y-18516000D02*
X105326000Y-39366000D01*
G04 #@! TO.C,U13*
X79672000Y-68808000D02*
X79672000Y-89658000D01*
X79672000Y-89658000D02*
X89472000Y-89658000D01*
X89472000Y-89658000D02*
X89472000Y-68808000D01*
X89472000Y-68808000D02*
X79672000Y-68808000D01*
G04 #@! TO.C,U14*
X58484000Y-69062000D02*
X48684000Y-69062000D01*
X58484000Y-89912000D02*
X58484000Y-69062000D01*
X48684000Y-89912000D02*
X58484000Y-89912000D01*
X48684000Y-69062000D02*
X48684000Y-89912000D01*
G04 #@! TO.C,U16*
X356934000Y-74015000D02*
X347134000Y-74015000D01*
X356934000Y-94865000D02*
X356934000Y-74015000D01*
X347134000Y-94865000D02*
X356934000Y-94865000D01*
X347134000Y-74015000D02*
X347134000Y-94865000D01*
G04 #@! TO.C,U10*
X165418000Y-18262000D02*
X155618000Y-18262000D01*
X165418000Y-39112000D02*
X165418000Y-18262000D01*
X155618000Y-39112000D02*
X165418000Y-39112000D01*
X155618000Y-18262000D02*
X155618000Y-39112000D01*
G04 #@! TO.C,R53*
X70646000Y-108646000D02*
X70646000Y-99126000D01*
X68546000Y-108646000D02*
X70646000Y-108646000D01*
X68546000Y-99126000D02*
X68546000Y-108646000D01*
X70646000Y-99126000D02*
X68546000Y-99126000D01*
G04 #@! TO.C,R45*
X278604000Y-109154000D02*
X280704000Y-109154000D01*
X280704000Y-109154000D02*
X280704000Y-99634000D01*
X280704000Y-99634000D02*
X278604000Y-99634000D01*
X278604000Y-99634000D02*
X278604000Y-109154000D01*
G04 #@! TO.C,R54*
X75726000Y-99126000D02*
X73626000Y-99126000D01*
X73626000Y-99126000D02*
X73626000Y-108646000D01*
X73626000Y-108646000D02*
X75726000Y-108646000D01*
X75726000Y-108646000D02*
X75726000Y-99126000D01*
G04 #@! TO.C,R46*
X314164000Y-99380000D02*
X314164000Y-108900000D01*
X316264000Y-99380000D02*
X314164000Y-99380000D01*
X316264000Y-108900000D02*
X316264000Y-99380000D01*
X314164000Y-108900000D02*
X316264000Y-108900000D01*
G04 #@! TO.C,R47*
X348200000Y-108900000D02*
X350300000Y-108900000D01*
X350300000Y-108900000D02*
X350300000Y-99380000D01*
X350300000Y-99380000D02*
X348200000Y-99380000D01*
X348200000Y-99380000D02*
X348200000Y-108900000D01*
G04 #@! TO.C,R48*
X218882000Y-96486000D02*
X209362000Y-96486000D01*
X218882000Y-98586000D02*
X218882000Y-96486000D01*
X209362000Y-98586000D02*
X218882000Y-98586000D01*
X209362000Y-96486000D02*
X209362000Y-98586000D01*
G04 #@! TO.C,R49*
X210600000Y-99888000D02*
X208500000Y-99888000D01*
X208500000Y-99888000D02*
X208500000Y-109408000D01*
X208500000Y-109408000D02*
X210600000Y-109408000D01*
X210600000Y-109408000D02*
X210600000Y-99888000D01*
G04 #@! TO.C,R50*
X199678000Y-109408000D02*
X199678000Y-99888000D01*
X197578000Y-109408000D02*
X199678000Y-109408000D01*
X197578000Y-99888000D02*
X197578000Y-109408000D01*
X199678000Y-99888000D02*
X197578000Y-99888000D01*
G04 #@! TO.C,R51*
X205266000Y-99888000D02*
X203166000Y-99888000D01*
X203166000Y-99888000D02*
X203166000Y-109408000D01*
X203166000Y-109408000D02*
X205266000Y-109408000D01*
X205266000Y-109408000D02*
X205266000Y-99888000D01*
G04 #@! TO.C,R52*
X65566000Y-108646000D02*
X65566000Y-99126000D01*
X63466000Y-108646000D02*
X65566000Y-108646000D01*
X63466000Y-99126000D02*
X63466000Y-108646000D01*
X65566000Y-99126000D02*
X63466000Y-99126000D01*
G04 #@! TO.C,R43*
X213834000Y-109154000D02*
X215934000Y-109154000D01*
X215934000Y-109154000D02*
X215934000Y-99634000D01*
X215934000Y-99634000D02*
X213834000Y-99634000D01*
X213834000Y-99634000D02*
X213834000Y-109154000D01*
G04 #@! TO.C,R19*
X314799000Y-45913000D02*
X314799000Y-55433000D01*
X316899000Y-45913000D02*
X314799000Y-45913000D01*
X316899000Y-55433000D02*
X316899000Y-45913000D01*
X314799000Y-55433000D02*
X316899000Y-55433000D01*
G04 #@! TO.C,R1*
X342993000Y-55433000D02*
X345093000Y-55433000D01*
X345093000Y-55433000D02*
X345093000Y-45913000D01*
X345093000Y-45913000D02*
X342993000Y-45913000D01*
X342993000Y-45913000D02*
X342993000Y-55433000D01*
G04 #@! TO.C,R2*
X336770000Y-45913000D02*
X336770000Y-55433000D01*
X338870000Y-45913000D02*
X336770000Y-45913000D01*
X338870000Y-55433000D02*
X338870000Y-45913000D01*
X336770000Y-55433000D02*
X338870000Y-55433000D01*
G04 #@! TO.C,R3*
X322927000Y-55433000D02*
X325027000Y-55433000D01*
X325027000Y-55433000D02*
X325027000Y-45913000D01*
X325027000Y-45913000D02*
X322927000Y-45913000D01*
X322927000Y-45913000D02*
X322927000Y-55433000D01*
G04 #@! TO.C,R31*
X115663000Y-55433000D02*
X117763000Y-55433000D01*
X117763000Y-55433000D02*
X117763000Y-45913000D01*
X117763000Y-45913000D02*
X115663000Y-45913000D01*
X115663000Y-45913000D02*
X115663000Y-55433000D01*
G04 #@! TO.C,R5*
X287367000Y-55433000D02*
X289467000Y-55433000D01*
X289467000Y-55433000D02*
X289467000Y-45913000D01*
X289467000Y-45913000D02*
X287367000Y-45913000D01*
X287367000Y-45913000D02*
X287367000Y-55433000D01*
G04 #@! TO.C,R6*
X273270000Y-45913000D02*
X273270000Y-55433000D01*
X275370000Y-45913000D02*
X273270000Y-45913000D01*
X275370000Y-55433000D02*
X275370000Y-45913000D01*
X273270000Y-55433000D02*
X275370000Y-55433000D01*
G04 #@! TO.C,R7*
X252823000Y-55433000D02*
X254923000Y-55433000D01*
X254923000Y-55433000D02*
X254923000Y-45913000D01*
X254923000Y-45913000D02*
X252823000Y-45913000D01*
X252823000Y-45913000D02*
X252823000Y-55433000D01*
G04 #@! TO.C,R8*
X237964000Y-45913000D02*
X237964000Y-55433000D01*
X240064000Y-45913000D02*
X237964000Y-45913000D01*
X240064000Y-55433000D02*
X240064000Y-45913000D01*
X237964000Y-55433000D02*
X240064000Y-55433000D01*
G04 #@! TO.C,R4*
X300956000Y-55433000D02*
X303056000Y-55433000D01*
X303056000Y-55433000D02*
X303056000Y-45913000D01*
X303056000Y-45913000D02*
X300956000Y-45913000D01*
X300956000Y-45913000D02*
X300956000Y-55433000D01*
G04 #@! TO.C,R40*
X110456000Y-108900000D02*
X112556000Y-108900000D01*
X112556000Y-108900000D02*
X112556000Y-99380000D01*
X112556000Y-99380000D02*
X110456000Y-99380000D01*
X110456000Y-99380000D02*
X110456000Y-108900000D01*
G04 #@! TO.C,R9*
X223740000Y-45913000D02*
X223740000Y-55433000D01*
X225840000Y-45913000D02*
X223740000Y-45913000D01*
X225840000Y-55433000D02*
X225840000Y-45913000D01*
X223740000Y-55433000D02*
X225840000Y-55433000D01*
G04 #@! TO.C,R17*
X350740000Y-55433000D02*
X352840000Y-55433000D01*
X352840000Y-55433000D02*
X352840000Y-45913000D01*
X352840000Y-45913000D02*
X350740000Y-45913000D01*
X350740000Y-45913000D02*
X350740000Y-55433000D01*
G04 #@! TO.C,R39*
X77436000Y-99380000D02*
X77436000Y-108900000D01*
X79536000Y-99380000D02*
X77436000Y-99380000D01*
X79536000Y-108900000D02*
X79536000Y-99380000D01*
X77436000Y-108900000D02*
X79536000Y-108900000D01*
G04 #@! TO.C,R38*
X43527000Y-106868000D02*
X45627000Y-106868000D01*
X45627000Y-106868000D02*
X45627000Y-97348000D01*
X45627000Y-97348000D02*
X43527000Y-97348000D01*
X43527000Y-97348000D02*
X43527000Y-106868000D01*
G04 #@! TO.C,R36*
X381728000Y-45913000D02*
X381728000Y-55433000D01*
X383828000Y-45913000D02*
X381728000Y-45913000D01*
X383828000Y-55433000D02*
X383828000Y-45913000D01*
X381728000Y-55433000D02*
X383828000Y-55433000D01*
G04 #@! TO.C,R18*
X328769000Y-55433000D02*
X330869000Y-55433000D01*
X330869000Y-55433000D02*
X330869000Y-45913000D01*
X330869000Y-45913000D02*
X328769000Y-45913000D01*
X328769000Y-45913000D02*
X328769000Y-55433000D01*
G04 #@! TO.C,R16*
X86680000Y-36161000D02*
X86680000Y-38261000D01*
X86680000Y-38261000D02*
X96200000Y-38261000D01*
X96200000Y-38261000D02*
X96200000Y-36161000D01*
X96200000Y-36161000D02*
X86680000Y-36161000D01*
G04 #@! TO.C,R15*
X123410000Y-45913000D02*
X123410000Y-55433000D01*
X125510000Y-45913000D02*
X123410000Y-45913000D01*
X125510000Y-55433000D02*
X125510000Y-45913000D01*
X123410000Y-55433000D02*
X125510000Y-55433000D01*
G04 #@! TO.C,R14*
X139031000Y-55433000D02*
X141131000Y-55433000D01*
X141131000Y-55433000D02*
X141131000Y-45913000D01*
X141131000Y-45913000D02*
X139031000Y-45913000D01*
X139031000Y-45913000D02*
X139031000Y-55433000D01*
G04 #@! TO.C,R13*
X153636000Y-45913000D02*
X153636000Y-55433000D01*
X155736000Y-45913000D02*
X153636000Y-45913000D01*
X155736000Y-55433000D02*
X155736000Y-45913000D01*
X153636000Y-55433000D02*
X155736000Y-55433000D01*
G04 #@! TO.C,R12*
X173321000Y-45913000D02*
X173321000Y-55433000D01*
X175421000Y-45913000D02*
X173321000Y-45913000D01*
X175421000Y-55433000D02*
X175421000Y-45913000D01*
X173321000Y-55433000D02*
X175421000Y-55433000D01*
G04 #@! TO.C,R11*
X188434000Y-55433000D02*
X190534000Y-55433000D01*
X190534000Y-55433000D02*
X190534000Y-45913000D01*
X190534000Y-45913000D02*
X188434000Y-45913000D01*
X188434000Y-45913000D02*
X188434000Y-55433000D01*
G04 #@! TO.C,R10*
X195038000Y-45913000D02*
X195038000Y-55433000D01*
X197138000Y-45913000D02*
X195038000Y-45913000D01*
X197138000Y-55433000D02*
X197138000Y-45913000D01*
X195038000Y-55433000D02*
X197138000Y-55433000D01*
G04 #@! TO.C,R20*
X293209000Y-55433000D02*
X295309000Y-55433000D01*
X295309000Y-55433000D02*
X295309000Y-45913000D01*
X295309000Y-45913000D02*
X293209000Y-45913000D01*
X293209000Y-45913000D02*
X293209000Y-55433000D01*
G04 #@! TO.C,R35*
X361154000Y-45786000D02*
X361154000Y-55306000D01*
X363254000Y-45786000D02*
X361154000Y-45786000D01*
X363254000Y-55306000D02*
X363254000Y-45786000D01*
X361154000Y-55306000D02*
X363254000Y-55306000D01*
G04 #@! TO.C,R34*
X372330000Y-55433000D02*
X374430000Y-55433000D01*
X374430000Y-55433000D02*
X374430000Y-45913000D01*
X374430000Y-45913000D02*
X372330000Y-45913000D01*
X372330000Y-45913000D02*
X372330000Y-55433000D01*
G04 #@! TO.C,R33*
X391761000Y-44135000D02*
X391761000Y-53655000D01*
X393861000Y-44135000D02*
X391761000Y-44135000D01*
X393861000Y-53655000D02*
X393861000Y-44135000D01*
X391761000Y-53655000D02*
X393861000Y-53655000D01*
G04 #@! TO.C,R32*
X86807000Y-42198000D02*
X96327000Y-42198000D01*
X86807000Y-40098000D02*
X86807000Y-42198000D01*
X96327000Y-40098000D02*
X86807000Y-40098000D01*
X96327000Y-42198000D02*
X96327000Y-40098000D01*
G04 #@! TO.C,R30*
X131157000Y-55433000D02*
X133257000Y-55433000D01*
X133257000Y-55433000D02*
X133257000Y-45913000D01*
X133257000Y-45913000D02*
X131157000Y-45913000D01*
X131157000Y-45913000D02*
X131157000Y-55433000D01*
G04 #@! TO.C,R29*
X145127000Y-45913000D02*
X145127000Y-55433000D01*
X147227000Y-45913000D02*
X145127000Y-45913000D01*
X147227000Y-55433000D02*
X147227000Y-45913000D01*
X145127000Y-55433000D02*
X147227000Y-55433000D01*
G04 #@! TO.C,R28*
X165447000Y-45913000D02*
X165447000Y-55433000D01*
X167547000Y-45913000D02*
X165447000Y-45913000D01*
X167547000Y-55433000D02*
X167547000Y-45913000D01*
X165447000Y-55433000D02*
X167547000Y-55433000D01*
G04 #@! TO.C,R27*
X179671000Y-55433000D02*
X181771000Y-55433000D01*
X181771000Y-55433000D02*
X181771000Y-45913000D01*
X181771000Y-45913000D02*
X179671000Y-45913000D01*
X179671000Y-45913000D02*
X179671000Y-55433000D01*
G04 #@! TO.C,R26*
X203674000Y-45913000D02*
X203674000Y-55433000D01*
X205774000Y-45913000D02*
X203674000Y-45913000D01*
X205774000Y-55433000D02*
X205774000Y-45913000D01*
X203674000Y-55433000D02*
X205774000Y-55433000D01*
G04 #@! TO.C,R41*
X144746000Y-109662000D02*
X146846000Y-109662000D01*
X146846000Y-109662000D02*
X146846000Y-100142000D01*
X146846000Y-100142000D02*
X144746000Y-100142000D01*
X144746000Y-100142000D02*
X144746000Y-109662000D01*
G04 #@! TO.C,R24*
X229582000Y-45913000D02*
X229582000Y-55433000D01*
X231682000Y-45913000D02*
X229582000Y-45913000D01*
X231682000Y-55433000D02*
X231682000Y-45913000D01*
X229582000Y-55433000D02*
X231682000Y-55433000D01*
G04 #@! TO.C,R23*
X244822000Y-55433000D02*
X246922000Y-55433000D01*
X246922000Y-55433000D02*
X246922000Y-45913000D01*
X246922000Y-45913000D02*
X244822000Y-45913000D01*
X244822000Y-45913000D02*
X244822000Y-55433000D01*
G04 #@! TO.C,R22*
X265269000Y-45913000D02*
X265269000Y-55433000D01*
X267369000Y-45913000D02*
X265269000Y-45913000D01*
X267369000Y-55433000D02*
X267369000Y-45913000D01*
X265269000Y-55433000D02*
X267369000Y-55433000D01*
G04 #@! TO.C,R21*
X279493000Y-55433000D02*
X281593000Y-55433000D01*
X281593000Y-55433000D02*
X281593000Y-45913000D01*
X281593000Y-45913000D02*
X279493000Y-45913000D01*
X279493000Y-45913000D02*
X279493000Y-55433000D01*
G04 #@! TO.C,R25*
X215866000Y-45913000D02*
X215866000Y-55433000D01*
X217966000Y-45913000D02*
X215866000Y-45913000D01*
X217966000Y-55433000D02*
X217966000Y-45913000D01*
X215866000Y-55433000D02*
X217966000Y-55433000D01*
G04 #@! TO.C,R37*
X397603000Y-53782000D02*
X399703000Y-53782000D01*
X399703000Y-53782000D02*
X399703000Y-44262000D01*
X399703000Y-44262000D02*
X397603000Y-44262000D01*
X397603000Y-44262000D02*
X397603000Y-53782000D01*
G04 #@! TO.C,A1*
X419350000Y-66816000D02*
X419350000Y-85096000D01*
X419350000Y-66816000D02*
X373130000Y-66816000D01*
X373130000Y-85096000D02*
X419350000Y-85096000D01*
X373130000Y-85096000D02*
X373130000Y-66816000D01*
G04 #@! TO.C,D25*
X224210000Y-18340000D02*
X217760000Y-18340000D01*
X224210000Y-24840000D02*
X224210000Y-18340000D01*
X217760000Y-24840000D02*
X224210000Y-24840000D01*
X217760000Y-18340000D02*
X217760000Y-24840000D01*
G04 #@! TO.C,D19*
X323270000Y-18340000D02*
X316820000Y-18340000D01*
X323270000Y-24840000D02*
X323270000Y-18340000D01*
X316820000Y-24840000D02*
X323270000Y-24840000D01*
X316820000Y-18340000D02*
X316820000Y-24840000D01*
G04 #@! TO.C,D20*
X301680000Y-18340000D02*
X295230000Y-18340000D01*
X301680000Y-24840000D02*
X301680000Y-18340000D01*
X295230000Y-24840000D02*
X301680000Y-24840000D01*
X295230000Y-18340000D02*
X295230000Y-24840000D01*
G04 #@! TO.C,D3*
X323270000Y-36120000D02*
X316820000Y-36120000D01*
X323270000Y-42620000D02*
X323270000Y-36120000D01*
X316820000Y-42620000D02*
X323270000Y-42620000D01*
X316820000Y-36120000D02*
X316820000Y-42620000D01*
G04 #@! TO.C,D18*
X337240000Y-18340000D02*
X330790000Y-18340000D01*
X337240000Y-24840000D02*
X337240000Y-18340000D01*
X330790000Y-24840000D02*
X337240000Y-24840000D01*
X330790000Y-18340000D02*
X330790000Y-24840000D01*
G04 #@! TO.C,D17*
X351210000Y-18340000D02*
X344760000Y-18340000D01*
X351210000Y-24840000D02*
X351210000Y-18340000D01*
X344760000Y-24840000D02*
X351210000Y-24840000D01*
X344760000Y-18340000D02*
X344760000Y-24840000D01*
G04 #@! TO.C,D16*
X98126000Y-36120000D02*
X98126000Y-42620000D01*
X98126000Y-42620000D02*
X104576000Y-42620000D01*
X104576000Y-42620000D02*
X104576000Y-36120000D01*
X104576000Y-36120000D02*
X98126000Y-36120000D01*
G04 #@! TO.C,D15*
X117430000Y-36120000D02*
X117430000Y-42620000D01*
X117430000Y-42620000D02*
X123880000Y-42620000D01*
X123880000Y-42620000D02*
X123880000Y-36120000D01*
X123880000Y-36120000D02*
X117430000Y-36120000D01*
G04 #@! TO.C,D14*
X132670000Y-36120000D02*
X132670000Y-42620000D01*
X132670000Y-42620000D02*
X139120000Y-42620000D01*
X139120000Y-42620000D02*
X139120000Y-36120000D01*
X139120000Y-36120000D02*
X132670000Y-36120000D01*
G04 #@! TO.C,D13*
X147656000Y-36120000D02*
X147656000Y-42620000D01*
X147656000Y-42620000D02*
X154106000Y-42620000D01*
X154106000Y-42620000D02*
X154106000Y-36120000D01*
X154106000Y-36120000D02*
X147656000Y-36120000D01*
G04 #@! TO.C,D12*
X173410000Y-36120000D02*
X166960000Y-36120000D01*
X173410000Y-42620000D02*
X173410000Y-36120000D01*
X166960000Y-42620000D02*
X173410000Y-42620000D01*
X166960000Y-36120000D02*
X166960000Y-42620000D01*
G04 #@! TO.C,D11*
X188650000Y-36120000D02*
X182200000Y-36120000D01*
X188650000Y-42620000D02*
X188650000Y-36120000D01*
X182200000Y-42620000D02*
X188650000Y-42620000D01*
X182200000Y-36120000D02*
X182200000Y-42620000D01*
G04 #@! TO.C,D10*
X203890000Y-36120000D02*
X197440000Y-36120000D01*
X203890000Y-42620000D02*
X203890000Y-36120000D01*
X197440000Y-42620000D02*
X203890000Y-42620000D01*
X197440000Y-36120000D02*
X197440000Y-42620000D01*
G04 #@! TO.C,D9*
X224210000Y-36120000D02*
X217760000Y-36120000D01*
X224210000Y-42620000D02*
X224210000Y-36120000D01*
X217760000Y-42620000D02*
X224210000Y-42620000D01*
X217760000Y-36120000D02*
X217760000Y-42620000D01*
G04 #@! TO.C,D8*
X238180000Y-36120000D02*
X231730000Y-36120000D01*
X238180000Y-42620000D02*
X238180000Y-36120000D01*
X231730000Y-42620000D02*
X238180000Y-42620000D01*
X231730000Y-36120000D02*
X231730000Y-42620000D01*
G04 #@! TO.C,D7*
X253420000Y-36120000D02*
X246970000Y-36120000D01*
X253420000Y-42620000D02*
X253420000Y-36120000D01*
X246970000Y-42620000D02*
X253420000Y-42620000D01*
X246970000Y-36120000D02*
X246970000Y-42620000D01*
G04 #@! TO.C,D6*
X273740000Y-36120000D02*
X267290000Y-36120000D01*
X273740000Y-42620000D02*
X273740000Y-36120000D01*
X267290000Y-42620000D02*
X273740000Y-42620000D01*
X267290000Y-36120000D02*
X267290000Y-42620000D01*
G04 #@! TO.C,D4*
X301680000Y-36120000D02*
X295230000Y-36120000D01*
X301680000Y-42620000D02*
X301680000Y-36120000D01*
X295230000Y-42620000D02*
X301680000Y-42620000D01*
X295230000Y-36120000D02*
X295230000Y-42620000D01*
G04 #@! TO.C,D2*
X337240000Y-36120000D02*
X330790000Y-36120000D01*
X337240000Y-42620000D02*
X337240000Y-36120000D01*
X330790000Y-42620000D02*
X337240000Y-42620000D01*
X330790000Y-36120000D02*
X330790000Y-42620000D01*
G04 #@! TO.C,D23*
X253420000Y-18340000D02*
X246970000Y-18340000D01*
X253420000Y-24840000D02*
X253420000Y-18340000D01*
X246970000Y-24840000D02*
X253420000Y-24840000D01*
X246970000Y-18340000D02*
X246970000Y-24840000D01*
G04 #@! TO.C,D5*
X287710000Y-36120000D02*
X281260000Y-36120000D01*
X287710000Y-42620000D02*
X287710000Y-36120000D01*
X281260000Y-42620000D02*
X287710000Y-42620000D01*
X281260000Y-36120000D02*
X281260000Y-42620000D01*
G04 #@! TO.C,D21*
X287710000Y-18340000D02*
X281260000Y-18340000D01*
X287710000Y-24840000D02*
X287710000Y-18340000D01*
X281260000Y-24840000D02*
X287710000Y-24840000D01*
X281260000Y-18340000D02*
X281260000Y-24840000D01*
G04 #@! TO.C,D37*
X407090000Y-36120000D02*
X400640000Y-36120000D01*
X407090000Y-42620000D02*
X407090000Y-36120000D01*
X400640000Y-42620000D02*
X407090000Y-42620000D01*
X400640000Y-36120000D02*
X400640000Y-42620000D01*
G04 #@! TO.C,D1*
X351210000Y-36120000D02*
X344760000Y-36120000D01*
X351210000Y-42620000D02*
X351210000Y-36120000D01*
X344760000Y-42620000D02*
X351210000Y-42620000D01*
X344760000Y-36120000D02*
X344760000Y-42620000D01*
G04 #@! TO.C,D36*
X390580000Y-36120000D02*
X384130000Y-36120000D01*
X390580000Y-42620000D02*
X390580000Y-36120000D01*
X384130000Y-42620000D02*
X390580000Y-42620000D01*
X384130000Y-36120000D02*
X384130000Y-42620000D01*
G04 #@! TO.C,D35*
X371530000Y-36120000D02*
X365080000Y-36120000D01*
X371530000Y-42620000D02*
X371530000Y-36120000D01*
X365080000Y-42620000D02*
X371530000Y-42620000D01*
X365080000Y-36120000D02*
X365080000Y-42620000D01*
G04 #@! TO.C,D34*
X371530000Y-18340000D02*
X365080000Y-18340000D01*
X371530000Y-24840000D02*
X371530000Y-18340000D01*
X365080000Y-24840000D02*
X371530000Y-24840000D01*
X365080000Y-18340000D02*
X365080000Y-24840000D01*
G04 #@! TO.C,D33*
X390580000Y-18340000D02*
X384130000Y-18340000D01*
X390580000Y-24840000D02*
X390580000Y-18340000D01*
X384130000Y-24840000D02*
X390580000Y-24840000D01*
X384130000Y-18340000D02*
X384130000Y-24840000D01*
G04 #@! TO.C,D32*
X79330000Y-36120000D02*
X79330000Y-42620000D01*
X79330000Y-42620000D02*
X85780000Y-42620000D01*
X85780000Y-42620000D02*
X85780000Y-36120000D01*
X85780000Y-36120000D02*
X79330000Y-36120000D01*
G04 #@! TO.C,D31*
X117430000Y-18340000D02*
X117430000Y-24840000D01*
X117430000Y-24840000D02*
X123880000Y-24840000D01*
X123880000Y-24840000D02*
X123880000Y-18340000D01*
X123880000Y-18340000D02*
X117430000Y-18340000D01*
G04 #@! TO.C,D30*
X132670000Y-18340000D02*
X132670000Y-24840000D01*
X132670000Y-24840000D02*
X139120000Y-24840000D01*
X139120000Y-24840000D02*
X139120000Y-18340000D01*
X139120000Y-18340000D02*
X132670000Y-18340000D01*
G04 #@! TO.C,D29*
X147656000Y-18340000D02*
X147656000Y-24840000D01*
X147656000Y-24840000D02*
X154106000Y-24840000D01*
X154106000Y-24840000D02*
X154106000Y-18340000D01*
X154106000Y-18340000D02*
X147656000Y-18340000D01*
G04 #@! TO.C,D28*
X173410000Y-18340000D02*
X166960000Y-18340000D01*
X173410000Y-24840000D02*
X173410000Y-18340000D01*
X166960000Y-24840000D02*
X173410000Y-24840000D01*
X166960000Y-18340000D02*
X166960000Y-24840000D01*
G04 #@! TO.C,D27*
X188650000Y-18340000D02*
X182200000Y-18340000D01*
X188650000Y-24840000D02*
X188650000Y-18340000D01*
X182200000Y-24840000D02*
X188650000Y-24840000D01*
X182200000Y-18340000D02*
X182200000Y-24840000D01*
G04 #@! TO.C,D26*
X203890000Y-18340000D02*
X197440000Y-18340000D01*
X203890000Y-24840000D02*
X203890000Y-18340000D01*
X197440000Y-24840000D02*
X203890000Y-24840000D01*
X197440000Y-18340000D02*
X197440000Y-24840000D01*
G04 #@! TO.C,D24*
X238180000Y-18340000D02*
X231730000Y-18340000D01*
X238180000Y-24840000D02*
X238180000Y-18340000D01*
X231730000Y-24840000D02*
X238180000Y-24840000D01*
X231730000Y-18340000D02*
X231730000Y-24840000D01*
G04 #@! TO.C,D22*
X273740000Y-18340000D02*
X267290000Y-18340000D01*
X273740000Y-24840000D02*
X273740000Y-18340000D01*
X267290000Y-24840000D02*
X273740000Y-24840000D01*
X267290000Y-18340000D02*
X267290000Y-24840000D01*
G04 #@! TO.C,C15*
X307972000Y-125984000D02*
G75*
G03X307972000Y-125984000I-3720000J0D01*
G01*
G04 #@! TO.C,C14*
X47027000Y-54570000D02*
G75*
G03X47027000Y-54570000I-3720000J0D01*
G01*
G04 #@! TO.C,C13*
X282826000Y-84836000D02*
G75*
G03X282826000Y-84836000I-3720000J0D01*
G01*
G04 #@! TO.C,C12*
X380656000Y-92416000D02*
G75*
G03X380656000Y-92416000I-3720000J0D01*
G01*
G04 #@! TO.C,C11*
X164502000Y-51903000D02*
G75*
G03X164502000Y-51903000I-3720000J0D01*
G01*
G04 #@! TO.C,C10*
X360209000Y-51856000D02*
G75*
G03X360209000Y-51856000I-3720000J0D01*
G01*
G04 #@! TO.C,C9*
X31954000Y-19304000D02*
G75*
G03X31954000Y-19304000I-3720000J0D01*
G01*
G04 #@! TO.C,C8*
X41566000Y-48474000D02*
G75*
G03X41566000Y-48474000I-3720000J0D01*
G01*
G04 #@! TO.C,C7*
X217548000Y-84582000D02*
G75*
G03X217548000Y-84582000I-3720000J0D01*
G01*
G04 #@! TO.C,C6*
X103923000Y-24551000D02*
G75*
G03X103923000Y-24551000I-3720000J0D01*
G01*
G04 #@! TO.C,C5*
X72086000Y-80772000D02*
G75*
G03X72086000Y-80772000I-3720000J0D01*
G01*
G04 #@! TO.C,C4*
X263943000Y-51983000D02*
G75*
G03X263943000Y-51983000I-3720000J0D01*
G01*
G04 #@! TO.C,C3*
X165605000Y-84328000D02*
G75*
G03X165605000Y-84328000I-3720000J0D01*
G01*
G04 #@! TO.C,C2*
X312838000Y-51856000D02*
G75*
G03X312838000Y-51856000I-3720000J0D01*
G01*
G04 #@! TO.C,C1*
X214540000Y-51983000D02*
G75*
G03X214540000Y-51983000I-3720000J0D01*
G01*
G04 #@! TO.C,PAD6*
X418740000Y-19050000D02*
G75*
G03X418740000Y-19050000I-3450000J0D01*
G01*
G04 #@! TO.C,PAD5*
X418740000Y-113030000D02*
G75*
G03X418740000Y-113030000I-3450000J0D01*
G01*
G04 #@! TO.C,PAD1*
X46630000Y-113030000D02*
G75*
G03X46630000Y-113030000I-3450000J0D01*
G01*
G04 #@! TD*
M02*
